Primae-Bold.ufo
<glyph name="ampersand" format="2">
	<unicode hex="0026"/>
	<advance width="1532"/>
	<outline>
		<contour>
			<point x="1281" y="-55" type="curve" smooth="yes"/>
			<point x="1356" y="-55"/>
			<point x="1422" y="21"/>
			<point x="1422" y="81" type="curve" smooth="yes"/>
			<point x="1422" y="103"/>
			<point x="1413" y="122"/>
			<point x="1391" y="147" type="curve" smooth="yes"/>
			<point x="731" y="899" type="line" smooth="yes"/>
			<point x="582" y="1069"/>
			<point x="543" y="1126"/>
			<point x="543" y="1218" type="curve" smooth="yes"/>
			<point x="543" y="1336"/>
			<point x="622" y="1409"/>
			<point x="725" y="1409" type="curve" smooth="yes"/>
			<point x="829" y="1409"/>
			<point x="904" y="1336"/>
			<point x="904" y="1233" type="curve" smooth="yes"/>
			<point x="904" y="1088"/>
			<point x="775" y="1011"/>
			<point x="581" y="903" type="curve" smooth="yes"/>
			<point x="412" y="809"/>
			<point x="170" y="663"/>
			<point x="170" y="383" type="curve" smooth="yes"/>
			<point x="170" y="148"/>
			<point x="339" y="-23"/>
			<point x="610" y="-23" type="curve" smooth="yes"/>
			<point x="879" y="-23"/>
			<point x="1064" y="103"/>
			<point x="1323" y="441" type="curve" smooth="yes"/>
			<point x="1356" y="484"/>
			<point x="1360" y="498"/>
			<point x="1360" y="519" type="curve" smooth="yes"/>
			<point x="1360" y="582"/>
			<point x="1305" y="628"/>
			<point x="1246" y="628" type="curve" smooth="yes"/>
			<point x="1209" y="628"/>
			<point x="1193" y="609"/>
			<point x="1163" y="570" type="curve" smooth="yes"/>
			<point x="935" y="275"/>
			<point x="811" y="191"/>
			<point x="645" y="191" type="curve" smooth="yes"/>
			<point x="504" y="191"/>
			<point x="401" y="263"/>
			<point x="401" y="398" type="curve" smooth="yes"/>
			<point x="401" y="561"/>
			<point x="546" y="649"/>
			<point x="695" y="738" type="curve" smooth="yes"/>
			<point x="931" y="878"/>
			<point x="1136" y="1000"/>
			<point x="1136" y="1254" type="curve" smooth="yes"/>
			<point x="1136" y="1474"/>
			<point x="980" y="1625"/>
			<point x="736" y="1625" type="curve" smooth="yes"/>
			<point x="484" y="1625"/>
			<point x="309" y="1444"/>
			<point x="309" y="1211" type="curve" smooth="yes"/>
			<point x="309" y="1076"/>
			<point x="358" y="956"/>
			<point x="557" y="729" type="curve" smooth="yes"/>
			<point x="1202" y="-7" type="line" smooth="yes"/>
			<point x="1231" y="-40"/>
			<point x="1248" y="-55"/>
		</contour>
	</outline>
</glyph>
<glyph name="quotesingle" format="2">
	<unicode hex="0027"/>
	<advance width="409"/>
	<outline>
		<contour>
			<point x="212" y="1092" type="curve" smooth="yes"/>
			<point x="273" y="1092"/>
			<point x="302" y="1108"/>
			<point x="312" y="1180" type="curve" smooth="yes"/>
			<point x="353" y="1469" type="line" smooth="yes"/>
			<point x="357" y="1499"/>
			<point x="359" y="1517"/>
			<point x="359" y="1530" type="curve" smooth="yes"/>
			<point x="359" y="1596"/>
			<point x="323" y="1620"/>
			<point x="244" y="1620" type="curve" smooth="yes"/>
			<point x="172" y="1620"/>
			<point x="131" y="1593"/>
			<point x="129" y="1509" type="curve" smooth="yes"/>
			<point x="121" y="1214" type="line" smooth="yes"/>
			<point x="120" y="1189"/>
			<point x="120" y="1176"/>
			<point x="120" y="1169" type="curve" smooth="yes"/>
			<point x="120" y="1117"/>
			<point x="149" y="1092"/>
		</contour>
	</outline>
</glyph>
<glyph name="asterisk" format="2">
	<unicode hex="002A"/>
	<advance width="950"/>
	<outline>
		<contour>
			<point x="660" y="1103" type="curve" smooth="yes"/>
			<point x="594" y="1265"/>
			<point x="506" y="1477"/>
			<point x="421" y="1660" type="curve" smooth="yes"/>
			<point x="389" y="1729"/>
			<point x="370" y="1737"/>
			<point x="340" y="1737" type="curve" smooth="yes"/>
			<point x="278" y="1737"/>
			<point x="213" y="1689"/>
			<point x="213" y="1649" type="curve" smooth="yes"/>
			<point x="213" y="1624"/>
			<point x="222" y="1605"/>
			<point x="241" y="1565" type="curve" smooth="yes"/>
			<point x="339" y="1362"/>
			<point x="445" y="1132"/>
			<point x="544" y="916" type="curve" smooth="yes"/>
			<point x="562" y="876"/>
			<point x="579" y="868"/>
			<point x="609" y="868" type="curve" smooth="yes"/>
			<point x="660" y="868"/>
			<point x="708" y="912"/>
			<point x="708" y="953" type="curve" smooth="yes"/>
			<point x="708" y="979"/>
			<point x="691" y="1027"/>
		</contour>
		<contour>
			<point x="353" y="996" type="curve" smooth="yes"/>
			<point x="488" y="1165"/>
			<point x="648" y="1369"/>
			<point x="755" y="1518" type="curve" smooth="yes"/>
			<point x="782" y="1557"/>
			<point x="798" y="1588"/>
			<point x="798" y="1612" type="curve" smooth="yes"/>
			<point x="798" y="1657"/>
			<point x="736" y="1710"/>
			<point x="673" y="1710" type="curve" smooth="yes"/>
			<point x="632" y="1710"/>
			<point x="614" y="1682"/>
			<point x="583" y="1637" type="curve" smooth="yes"/>
			<point x="463" y="1465"/>
			<point x="307" y="1256"/>
			<point x="220" y="1145" type="curve" smooth="yes"/>
			<point x="155" y="1062"/>
			<point x="149" y="1047"/>
			<point x="149" y="1022" type="curve" smooth="yes"/>
			<point x="149" y="977"/>
			<point x="191" y="931"/>
			<point x="248" y="931" type="curve" smooth="yes"/>
			<point x="290" y="931"/>
			<point x="316" y="950"/>
		</contour>
		<contour>
			<point x="114" y="1272" type="curve" smooth="yes"/>
			<point x="322" y="1248"/>
			<point x="560" y="1227"/>
			<point x="789" y="1208" type="curve" smooth="yes"/>
			<point x="798" y="1207"/>
			<point x="806" y="1207"/>
			<point x="826" y="1207" type="curve" smooth="yes"/>
			<point x="894" y="1208"/>
			<point x="911" y="1250"/>
			<point x="911" y="1300" type="curve" smooth="yes"/>
			<point x="911" y="1351"/>
			<point x="888" y="1380"/>
			<point x="799" y="1391" type="curve" smooth="yes"/>
			<point x="602" y="1415"/>
			<point x="187" y="1460"/>
			<point x="117" y="1460" type="curve" smooth="yes"/>
			<point x="60" y="1460"/>
			<point x="33" y="1417"/>
			<point x="33" y="1361" type="curve" smooth="yes"/>
			<point x="33" y="1310"/>
			<point x="58" y="1278"/>
		</contour>
	</outline>
</glyph>
<glyph name="plus" format="2">
	<unicode hex="002B"/>
	<advance width="1200"/>
	<outline>
		<contour>
			<point x="573" y="338" type="curve" smooth="yes"/>
			<point x="637" y="338"/>
			<point x="679" y="351"/>
			<point x="684" y="423" type="curve" smooth="yes"/>
			<point x="735" y="1179" type="line" smooth="yes"/>
			<point x="737" y="1215"/>
			<point x="739" y="1229"/>
			<point x="739" y="1245" type="curve" smooth="yes"/>
			<point x="739" y="1297"/>
			<point x="708" y="1316"/>
			<point x="626" y="1316" type="curve" smooth="yes"/>
			<point x="539" y="1316"/>
			<point x="510" y="1292"/>
			<point x="505" y="1222" type="curve" smooth="yes"/>
			<point x="455" y="459" type="line" smooth="yes"/>
			<point x="454" y="444"/>
			<point x="453" y="429"/>
			<point x="453" y="420" type="curve" smooth="yes"/>
			<point x="453" y="351"/>
			<point x="495" y="338"/>
		</contour>
		<contour>
			<point x="208" y="715" type="curve" smooth="yes"/>
			<point x="994" y="715" type="line" smooth="yes"/>
			<point x="1048" y="715"/>
			<point x="1065" y="769"/>
			<point x="1065" y="837" type="curve" smooth="yes"/>
			<point x="1065" y="906"/>
			<point x="1039" y="935"/>
			<point x="997" y="935" type="curve" smooth="yes"/>
			<point x="210" y="935" type="line" smooth="yes"/>
			<point x="163" y="935"/>
			<point x="145" y="879"/>
			<point x="145" y="810" type="curve" smooth="yes"/>
			<point x="145" y="747"/>
			<point x="167" y="715"/>
		</contour>
	</outline>
</glyph>
<glyph name="slash" format="2">
	<unicode hex="002F"/>
	<advance width="1077"/>
	<outline>
		<contour>
			<point x="99" y="-155" type="curve" smooth="yes"/>
			<point x="138" y="-155"/>
			<point x="157" y="-133"/>
			<point x="178" y="-96" type="curve" smooth="yes"/>
			<point x="1084" y="1501" type="line" smooth="yes"/>
			<point x="1115" y="1556"/>
			<point x="1117" y="1571"/>
			<point x="1117" y="1587" type="curve" smooth="yes"/>
			<point x="1117" y="1638"/>
			<point x="1055" y="1695"/>
			<point x="986" y="1695" type="curve" smooth="yes"/>
			<point x="952" y="1695"/>
			<point x="929" y="1678"/>
			<point x="897" y="1622" type="curve" smooth="yes"/>
			<point x="-11" y="25" type="line" smooth="yes"/>
			<point x="-24" y="2"/>
			<point x="-40" y="-25"/>
			<point x="-40" y="-54" type="curve" smooth="yes"/>
			<point x="-40" y="-107"/>
			<point x="37" y="-155"/>
		</contour>
	</outline>
</glyph>
<glyph name="one" format="2">
	<unicode hex="0031"/>
	<advance width="893"/>
	<outline>
		<contour>
			<point x="472" y="-12" type="curve" smooth="yes"/>
			<point x="556" y="-12"/>
			<point x="597" y="14"/>
			<point x="601" y="81" type="curve" smooth="yes"/>
			<point x="692" y="1477" type="line" smooth="yes"/>
			<point x="693" y="1490"/>
			<point x="693" y="1507"/>
			<point x="693" y="1520" type="curve" smooth="yes"/>
			<point x="693" y="1574"/>
			<point x="657" y="1619"/>
			<point x="605" y="1619" type="curve" smooth="yes"/>
			<point x="564" y="1619"/>
			<point x="543" y="1608"/>
			<point x="477" y="1567" type="curve" smooth="yes"/>
			<point x="397" y="1518"/>
			<point x="240" y="1425"/>
			<point x="142" y="1370" type="curve" smooth="yes"/>
			<point x="71" y="1330"/>
			<point x="60" y="1308"/>
			<point x="60" y="1276" type="curve" smooth="yes"/>
			<point x="60" y="1203"/>
			<point x="124" y="1137"/>
			<point x="169" y="1137" type="curve" smooth="yes"/>
			<point x="194" y="1137"/>
			<point x="207" y="1142"/>
			<point x="248" y="1162" type="curve" smooth="yes"/>
			<point x="344" y="1208"/>
			<point x="419" y="1253"/>
			<point x="478" y="1289" type="curve"/>
			<point x="441" y="1298" type="line"/>
			<point x="354" y="146" type="line" smooth="yes"/>
			<point x="352" y="119"/>
			<point x="350" y="92"/>
			<point x="350" y="74" type="curve" smooth="yes"/>
			<point x="350" y="14"/>
			<point x="391" y="-12"/>
		</contour>
	</outline>
</glyph>
<glyph name="three" format="2">
	<unicode hex="0033"/>
	<advance width="1184"/>
	<outline>
		<contour>
			<point x="531" y="-12" type="curve" smooth="yes"/>
			<point x="840" y="-12"/>
			<point x="1054" y="182"/>
			<point x="1054" y="452" type="curve" smooth="yes"/>
			<point x="1054" y="648"/>
			<point x="925" y="795"/>
			<point x="754" y="855" type="curve"/>
			<point x="751" y="805" type="line"/>
			<point x="944" y="910"/>
			<point x="1035" y="1062"/>
			<point x="1035" y="1239" type="curve" smooth="yes"/>
			<point x="1035" y="1471"/>
			<point x="853" y="1614"/>
			<point x="607" y="1614" type="curve" smooth="yes"/>
			<point x="463" y="1614"/>
			<point x="335" y="1578"/>
			<point x="233" y="1523" type="curve" smooth="yes"/>
			<point x="166" y="1487"/>
			<point x="148" y="1456"/>
			<point x="148" y="1421" type="curve" smooth="yes"/>
			<point x="148" y="1362"/>
			<point x="202" y="1299"/>
			<point x="245" y="1299" type="curve" smooth="yes"/>
			<point x="267" y="1299"/>
			<point x="284" y="1302"/>
			<point x="324" y="1319" type="curve" smooth="yes"/>
			<point x="407" y="1354"/>
			<point x="493" y="1379"/>
			<point x="578" y="1379" type="curve" smooth="yes"/>
			<point x="693" y="1379"/>
			<point x="795" y="1314"/>
			<point x="795" y="1181" type="curve" smooth="yes"/>
			<point x="795" y="1072"/>
			<point x="730" y="980"/>
			<point x="636" y="914" type="curve"/>
			<point x="541" y="943"/>
			<point x="490" y="953"/>
			<point x="442" y="953" type="curve" smooth="yes"/>
			<point x="360" y="953"/>
			<point x="300" y="915"/>
			<point x="300" y="841" type="curve" smooth="yes"/>
			<point x="300" y="760"/>
			<point x="355" y="696"/>
			<point x="443" y="696" type="curve" smooth="yes"/>
			<point x="487" y="696"/>
			<point x="533" y="705"/>
			<point x="609" y="734" type="curve"/>
			<point x="734" y="679"/>
			<point x="809" y="576"/>
			<point x="809" y="455" type="curve" smooth="yes"/>
			<point x="809" y="310"/>
			<point x="699" y="223"/>
			<point x="545" y="223" type="curve" smooth="yes"/>
			<point x="423" y="223"/>
			<point x="318" y="248"/>
			<point x="221" y="293" type="curve" smooth="yes"/>
			<point x="187" y="309"/>
			<point x="167" y="316"/>
			<point x="149" y="316" type="curve" smooth="yes"/>
			<point x="97" y="316"/>
			<point x="50" y="242"/>
			<point x="50" y="181" type="curve" smooth="yes"/>
			<point x="50" y="154"/>
			<point x="64" y="127"/>
			<point x="112" y="96" type="curve" smooth="yes"/>
			<point x="197" y="41"/>
			<point x="358" y="-12"/>
		</contour>
	</outline>
</glyph>
<glyph name="five" format="2">
	<unicode hex="0035"/>
	<advance width="1197"/>
	<outline>
		<contour>
			<point x="515" y="-12" type="curve" smooth="yes"/>
			<point x="855" y="-12"/>
			<point x="1077" y="220"/>
			<point x="1077" y="556" type="curve" smooth="yes"/>
			<point x="1077" y="835"/>
			<point x="915" y="1000"/>
			<point x="674" y="1000" type="curve" smooth="yes"/>
			<point x="568" y="1000"/>
			<point x="453" y="950"/>
			<point x="362" y="887" type="curve"/>
			<point x="391" y="879" type="line"/>
			<point x="428" y="1360" type="line"/>
			<point x="977" y="1360" type="line" smooth="yes"/>
			<point x="1044" y="1360"/>
			<point x="1074" y="1408"/>
			<point x="1074" y="1490" type="curve" smooth="yes"/>
			<point x="1074" y="1569"/>
			<point x="1045" y="1600"/>
			<point x="987" y="1600" type="curve" smooth="yes"/>
			<point x="317" y="1600" type="line" smooth="yes"/>
			<point x="241" y="1600"/>
			<point x="216" y="1571"/>
			<point x="211" y="1497" type="curve" smooth="yes"/>
			<point x="178" y="982" type="line" smooth="yes"/>
			<point x="175" y="943"/>
			<point x="174" y="929"/>
			<point x="174" y="898" type="curve" smooth="yes"/>
			<point x="174" y="794"/>
			<point x="249" y="730"/>
			<point x="340" y="730" type="curve" smooth="yes"/>
			<point x="373" y="730"/>
			<point x="418" y="744"/>
			<point x="466" y="756" type="curve" smooth="yes"/>
			<point x="519" y="770"/>
			<point x="576" y="781"/>
			<point x="620" y="781" type="curve" smooth="yes"/>
			<point x="751" y="781"/>
			<point x="832" y="695"/>
			<point x="832" y="538" type="curve" smooth="yes"/>
			<point x="832" y="352"/>
			<point x="710" y="223"/>
			<point x="526" y="223" type="curve" smooth="yes"/>
			<point x="410" y="223"/>
			<point x="315" y="254"/>
			<point x="232" y="291" type="curve" smooth="yes"/>
			<point x="206" y="303"/>
			<point x="189" y="307"/>
			<point x="175" y="307" type="curve" smooth="yes"/>
			<point x="127" y="307"/>
			<point x="80" y="229"/>
			<point x="80" y="168" type="curve" smooth="yes"/>
			<point x="80" y="141"/>
			<point x="98" y="119"/>
			<point x="157" y="81" type="curve" smooth="yes"/>
			<point x="237" y="29"/>
			<point x="385" y="-12"/>
		</contour>
	</outline>
</glyph>
<glyph name="six" format="2">
	<unicode hex="0036"/>
	<advance width="1179"/>
	<outline>
		<contour>
			<point x="601" y="-12" type="curve" smooth="yes"/>
			<point x="859" y="-12"/>
			<point x="1099" y="248"/>
			<point x="1099" y="584" type="curve" smooth="yes"/>
			<point x="1099" y="848"/>
			<point x="943" y="1014"/>
			<point x="733" y="1014" type="curve" smooth="yes"/>
			<point x="548" y="1014"/>
			<point x="377" y="876"/>
			<point x="270" y="641" type="curve"/>
			<point x="342" y="589" type="line"/>
			<point x="436" y="707"/>
			<point x="560" y="789"/>
			<point x="672" y="789" type="curve" smooth="yes"/>
			<point x="797" y="789"/>
			<point x="864" y="697"/>
			<point x="864" y="553" type="curve" smooth="yes"/>
			<point x="864" y="360"/>
			<point x="744" y="223"/>
			<point x="601" y="223" type="curve" smooth="yes"/>
			<point x="439" y="223"/>
			<point x="350" y="372"/>
			<point x="350" y="672" type="curve" smooth="yes"/>
			<point x="350" y="1115"/>
			<point x="502" y="1400"/>
			<point x="742" y="1400" type="curve" smooth="yes"/>
			<point x="799" y="1400"/>
			<point x="854" y="1387"/>
			<point x="901" y="1370" type="curve" smooth="yes"/>
			<point x="932" y="1359"/>
			<point x="950" y="1353"/>
			<point x="969" y="1353" type="curve" smooth="yes"/>
			<point x="1014" y="1353"/>
			<point x="1061" y="1420"/>
			<point x="1061" y="1477" type="curve" smooth="yes"/>
			<point x="1061" y="1512"/>
			<point x="1045" y="1534"/>
			<point x="1001" y="1560" type="curve" smooth="yes"/>
			<point x="938" y="1597"/>
			<point x="846" y="1625"/>
			<point x="760" y="1625" type="curve" smooth="yes"/>
			<point x="366" y="1625"/>
			<point x="100" y="1224"/>
			<point x="100" y="672" type="curve" smooth="yes"/>
			<point x="100" y="229"/>
			<point x="317" y="-12"/>
		</contour>
	</outline>
</glyph>
<glyph name="eight" format="2">
	<unicode hex="0038"/>
	<advance width="1253"/>
	<outline>
		<contour>
			<point x="601" y="-25" type="curve" smooth="yes"/>
			<point x="894" y="-25"/>
			<point x="1143" y="151"/>
			<point x="1143" y="417" type="curve" smooth="yes"/>
			<point x="1143" y="585"/>
			<point x="1073" y="703"/>
			<point x="846" y="834" type="curve"/>
			<point x="1057" y="945"/>
			<point x="1135" y="1085"/>
			<point x="1135" y="1250" type="curve" smooth="yes"/>
			<point x="1135" y="1471"/>
			<point x="939" y="1625"/>
			<point x="686" y="1625" type="curve" smooth="yes"/>
			<point x="379" y="1625"/>
			<point x="174" y="1425"/>
			<point x="174" y="1194" type="curve" smooth="yes"/>
			<point x="174" y="1044"/>
			<point x="240" y="932"/>
			<point x="428" y="808" type="curve"/>
			<point x="175" y="678"/>
			<point x="110" y="519"/>
			<point x="110" y="375" type="curve" smooth="yes"/>
			<point x="110" y="137"/>
			<point x="317" y="-25"/>
		</contour>
		<contour>
			<point x="334" y="413" type="curve" smooth="yes"/>
			<point x="334" y="523"/>
			<point x="419" y="614"/>
			<point x="599" y="705" type="curve"/>
			<point x="847" y="588"/>
			<point x="908" y="508"/>
			<point x="908" y="403" type="curve" smooth="yes"/>
			<point x="908" y="278"/>
			<point x="789" y="180"/>
			<point x="622" y="180" type="curve" smooth="yes"/>
			<point x="452" y="180"/>
			<point x="334" y="275"/>
		</contour>
		<contour>
			<point x="409" y="1212" type="curve" smooth="yes"/>
			<point x="409" y="1334"/>
			<point x="534" y="1420"/>
			<point x="671" y="1420" type="curve" smooth="yes"/>
			<point x="797" y="1420"/>
			<point x="888" y="1339"/>
			<point x="888" y="1219" type="curve" smooth="yes"/>
			<point x="888" y="1125"/>
			<point x="838" y="1033"/>
			<point x="683" y="940" type="curve"/>
			<point x="474" y="1047"/>
			<point x="409" y="1111"/>
		</contour>
	</outline>
</glyph>
<glyph name="nine" format="2">
	<unicode hex="0039"/>
	<advance width="1184"/>
	<outline>
		<contour>
			<point x="914" y="917" type="curve"/>
			<point x="859" y="952" type="line"/>
			<point x="792" y="868"/>
			<point x="688" y="806"/>
			<point x="563" y="806" type="curve" smooth="yes"/>
			<point x="411" y="806"/>
			<point x="315" y="906"/>
			<point x="315" y="1075" type="curve" smooth="yes"/>
			<point x="315" y="1249"/>
			<point x="436" y="1405"/>
			<point x="608" y="1405" type="curve" smooth="yes"/>
			<point x="746" y="1405"/>
			<point x="844" y="1302"/>
			<point x="844" y="1047" type="curve" smooth="yes"/>
			<point x="844" y="784"/>
			<point x="719" y="559"/>
			<point x="485" y="171" type="curve" smooth="yes"/>
			<point x="465" y="138"/>
			<point x="456" y="114"/>
			<point x="456" y="83" type="curve" smooth="yes"/>
			<point x="456" y="27"/>
			<point x="520" y="-25"/>
			<point x="591" y="-25" type="curve" smooth="yes"/>
			<point x="634" y="-25"/>
			<point x="653" y="-10"/>
			<point x="700" y="55" type="curve" smooth="yes"/>
			<point x="925" y="366"/>
			<point x="1084" y="781"/>
			<point x="1084" y="1085" type="curve" smooth="yes"/>
			<point x="1084" y="1435"/>
			<point x="909" y="1625"/>
			<point x="635" y="1625" type="curve" smooth="yes"/>
			<point x="303" y="1625"/>
			<point x="80" y="1345"/>
			<point x="80" y="1043" type="curve" smooth="yes"/>
			<point x="80" y="772"/>
			<point x="287" y="601"/>
			<point x="497" y="601" type="curve" smooth="yes"/>
			<point x="689" y="601"/>
			<point x="845" y="740"/>
		</contour>
	</outline>
</glyph>
<glyph name="equal" format="2">
	<unicode hex="003D"/>
	<advance width="1200"/>
	<outline>
		<contour>
			<point x="218" y="915" type="curve" smooth="yes"/>
			<point x="1004" y="915" type="line" smooth="yes"/>
			<point x="1058" y="915"/>
			<point x="1075" y="969"/>
			<point x="1075" y="1037" type="curve" smooth="yes"/>
			<point x="1075" y="1106"/>
			<point x="1049" y="1135"/>
			<point x="1007" y="1135" type="curve" smooth="yes"/>
			<point x="220" y="1135" type="line" smooth="yes"/>
			<point x="173" y="1135"/>
			<point x="155" y="1079"/>
			<point x="155" y="1010" type="curve" smooth="yes"/>
			<point x="155" y="947"/>
			<point x="177" y="915"/>
		</contour>
		<contour>
			<point x="188" y="515" type="curve" smooth="yes"/>
			<point x="974" y="515" type="line" smooth="yes"/>
			<point x="1028" y="515"/>
			<point x="1045" y="569"/>
			<point x="1045" y="637" type="curve" smooth="yes"/>
			<point x="1045" y="706"/>
			<point x="1019" y="735"/>
			<point x="977" y="735" type="curve" smooth="yes"/>
			<point x="190" y="735" type="line" smooth="yes"/>
			<point x="143" y="735"/>
			<point x="125" y="679"/>
			<point x="125" y="610" type="curve" smooth="yes"/>
			<point x="125" y="547"/>
			<point x="147" y="515"/>
		</contour>
	</outline>
</glyph>
<glyph name="question" format="2">
	<unicode hex="003F"/>
	<advance width="1011"/>
	<outline>
		<contour>
			<point x="491" y="450" type="curve" smooth="yes"/>
			<point x="599" y="450"/>
			<point x="698" y="493"/>
			<point x="752" y="556" type="curve" smooth="yes"/>
			<point x="776" y="585"/>
			<point x="780" y="602"/>
			<point x="780" y="614" type="curve" smooth="yes"/>
			<point x="780" y="653"/>
			<point x="739" y="702"/>
			<point x="691" y="702" type="curve" smooth="yes"/>
			<point x="676" y="702"/>
			<point x="666" y="699"/>
			<point x="644" y="683" type="curve" smooth="yes"/>
			<point x="608" y="657"/>
			<point x="561" y="634"/>
			<point x="514" y="634" type="curve" smooth="yes"/>
			<point x="454" y="634"/>
			<point x="424" y="658"/>
			<point x="424" y="699" type="curve" smooth="yes"/>
			<point x="424" y="754"/>
			<point x="447" y="780"/>
			<point x="678" y="939" type="curve" smooth="yes"/>
			<point x="892" y="1087"/>
			<point x="961" y="1191"/>
			<point x="961" y="1328" type="curve" smooth="yes"/>
			<point x="961" y="1508"/>
			<point x="826" y="1625"/>
			<point x="630" y="1625" type="curve" smooth="yes"/>
			<point x="500" y="1625"/>
			<point x="382" y="1591"/>
			<point x="270" y="1523" type="curve" smooth="yes"/>
			<point x="194" y="1478"/>
			<point x="170" y="1445"/>
			<point x="170" y="1410" type="curve" smooth="yes"/>
			<point x="170" y="1362"/>
			<point x="224" y="1303"/>
			<point x="261" y="1303" type="curve" smooth="yes"/>
			<point x="284" y="1303"/>
			<point x="296" y="1310"/>
			<point x="328" y="1327" type="curve" smooth="yes"/>
			<point x="441" y="1387"/>
			<point x="529" y="1415"/>
			<point x="614" y="1415" type="curve" smooth="yes"/>
			<point x="690" y="1415"/>
			<point x="731" y="1372"/>
			<point x="731" y="1317" type="curve" smooth="yes"/>
			<point x="731" y="1262"/>
			<point x="696" y="1215"/>
			<point x="483" y="1070" type="curve" smooth="yes"/>
			<point x="288" y="937"/>
			<point x="214" y="839"/>
			<point x="214" y="706" type="curve" smooth="yes"/>
			<point x="214" y="557"/>
			<point x="315" y="450"/>
		</contour>
		<contour>
			<point x="459" y="-12" type="curve" smooth="yes"/>
			<point x="544" y="-12"/>
			<point x="620" y="58"/>
			<point x="620" y="152" type="curve" smooth="yes"/>
			<point x="620" y="243"/>
			<point x="566" y="302"/>
			<point x="481" y="302" type="curve" smooth="yes"/>
			<point x="396" y="302"/>
			<point x="321" y="231"/>
			<point x="321" y="136" type="curve" smooth="yes"/>
			<point x="321" y="47"/>
			<point x="374" y="-12"/>
		</contour>
	</outline>
</glyph>
<glyph name="A" format="2">
	<unicode hex="0041"/>
	<advance width="1306"/>
	<outline>
		<contour>
			<point x="153" y="-12" type="curve" smooth="yes"/>
			<point x="187" y="-12"/>
			<point x="216" y="5"/>
			<point x="239" y="66" type="curve" smooth="yes"/>
			<point x="758" y="1441" type="line"/>
			<point x="610" y="1441" type="line"/>
			<point x="958" y="104" type="line" smooth="yes"/>
			<point x="983" y="8"/>
			<point x="1004" y="-12"/>
			<point x="1064" y="-12" type="curve" smooth="yes"/>
			<point x="1150" y="-12"/>
			<point x="1216" y="39"/>
			<point x="1216" y="83" type="curve" smooth="yes"/>
			<point x="1216" y="102"/>
			<point x="1214" y="113"/>
			<point x="1205" y="147" type="curve" smooth="yes"/>
			<point x="846" y="1477" type="line" smooth="yes"/>
			<point x="821" y="1568"/>
			<point x="779" y="1600"/>
			<point x="714" y="1600" type="curve" smooth="yes"/>
			<point x="694" y="1600" type="line" smooth="yes"/>
			<point x="623" y="1600"/>
			<point x="587" y="1572"/>
			<point x="551" y="1482" type="curve" smooth="yes"/>
			<point x="18" y="148" type="line" smooth="yes"/>
			<point x="7" y="121"/>
			<point x="0" y="100"/>
			<point x="0" y="81" type="curve" smooth="yes"/>
			<point x="0" y="33"/>
			<point x="71" y="-12"/>
		</contour>
		<contour>
			<point x="306" y="486" type="curve" smooth="yes"/>
			<point x="915" y="486" type="line" smooth="yes"/>
			<point x="941" y="486"/>
			<point x="960" y="524"/>
			<point x="960" y="682" type="curve" smooth="yes"/>
			<point x="960" y="698"/>
			<point x="946" y="706"/>
			<point x="920" y="706" type="curve" smooth="yes"/>
			<point x="321" y="706" type="line" smooth="yes"/>
			<point x="295" y="706"/>
			<point x="276" y="697"/>
			<point x="276" y="676" type="curve" smooth="yes"/>
			<point x="276" y="529"/>
			<point x="290" y="486"/>
		</contour>
	</outline>
	<anchor name="bottom" x="599" y="0"/>
	<anchor name="ogonek" x="1124" y="0"/>
	<anchor name="top" x="694" y="1600"/>
	<anchor name="topleft" x="252" y="1600"/>
</glyph>
<glyph name="B" format="2">
	<unicode hex="0042"/>
	<advance width="1199"/>
	<outline>
		<contour>
			<point x="443" y="-12" type="curve" smooth="yes"/>
			<point x="866" y="-12"/>
			<point x="1111" y="201"/>
			<point x="1111" y="483" type="curve" smooth="yes"/>
			<point x="1111" y="643"/>
			<point x="1007" y="780"/>
			<point x="850" y="831" type="curve"/>
			<point x="851" y="817" type="line"/>
			<point x="1013" y="877"/>
			<point x="1129" y="1021"/>
			<point x="1129" y="1209" type="curve" smooth="yes"/>
			<point x="1129" y="1455"/>
			<point x="915" y="1625"/>
			<point x="583" y="1625" type="curve" smooth="yes"/>
			<point x="464" y="1625"/>
			<point x="362" y="1617"/>
			<point x="293" y="1603" type="curve" smooth="yes"/>
			<point x="205" y="1585"/>
			<point x="173" y="1541"/>
			<point x="167" y="1456" type="curve" smooth="yes"/>
			<point x="86" y="271" type="line" smooth="yes"/>
			<point x="81" y="200"/>
			<point x="80" y="180"/>
			<point x="80" y="144" type="curve" smooth="yes"/>
			<point x="80" y="48"/>
			<point x="177" y="-12"/>
		</contour>
		<contour>
			<point x="473" y="218" type="curve" smooth="yes"/>
			<point x="405" y="218"/>
			<point x="364" y="223"/>
			<point x="333" y="230" type="curve"/>
			<point x="415" y="1383" type="line"/>
			<point x="435" y="1386"/>
			<point x="496" y="1395"/>
			<point x="566" y="1395" type="curve" smooth="yes"/>
			<point x="759" y="1395"/>
			<point x="879" y="1308"/>
			<point x="879" y="1173" type="curve" smooth="yes"/>
			<point x="879" y="1034"/>
			<point x="776" y="933"/>
			<point x="562" y="933" type="curve" smooth="yes"/>
			<point x="258" y="933" type="line"/>
			<point x="253" y="713" type="line"/>
			<point x="549" y="713" type="line" smooth="yes"/>
			<point x="761" y="713"/>
			<point x="862" y="623"/>
			<point x="862" y="473" type="curve" smooth="yes"/>
			<point x="862" y="324"/>
			<point x="721" y="218"/>
		</contour>
	</outline>
</glyph>
<glyph name="D" format="2">
	<unicode hex="0044"/>
	<advance width="1331"/>
	<outline>
		<contour>
			<point x="411" y="-17" type="curve" smooth="yes"/>
			<point x="877" y="-17"/>
			<point x="1241" y="355"/>
			<point x="1241" y="949" type="curve" smooth="yes"/>
			<point x="1241" y="1363"/>
			<point x="1007" y="1625"/>
			<point x="604" y="1625" type="curve" smooth="yes"/>
			<point x="503" y="1625"/>
			<point x="419" y="1616"/>
			<point x="345" y="1603" type="curve" smooth="yes"/>
			<point x="228" y="1583"/>
			<point x="166" y="1519"/>
			<point x="160" y="1421" type="curve" smooth="yes"/>
			<point x="86" y="295" type="line" smooth="yes"/>
			<point x="82" y="237"/>
			<point x="80" y="207"/>
			<point x="80" y="174" type="curve" smooth="yes"/>
			<point x="80" y="52"/>
			<point x="166" y="-17"/>
		</contour>
		<contour>
			<point x="442" y="218" type="curve" smooth="yes"/>
			<point x="400" y="218"/>
			<point x="351" y="224"/>
			<point x="329" y="228" type="curve"/>
			<point x="406" y="1371" type="line"/>
			<point x="438" y="1381"/>
			<point x="518" y="1390"/>
			<point x="562" y="1390" type="curve" smooth="yes"/>
			<point x="799" y="1390"/>
			<point x="981" y="1241"/>
			<point x="981" y="905" type="curve" smooth="yes"/>
			<point x="981" y="460"/>
			<point x="721" y="218"/>
		</contour>
	</outline>
	<anchor name="bottom" x="353" y="0"/>
	<anchor name="center" x="340" y="840"/>
	<anchor name="top" x="616" y="1600"/>
</glyph>
<glyph name="E" format="2">
	<unicode hex="0045"/>
	<advance width="1084"/>
	<outline>
		<contour>
			<point x="225" y="-12" type="curve" smooth="yes"/>
			<point x="369" y="-12"/>
			<point x="769" y="-11"/>
			<point x="895" y="-5" type="curve" smooth="yes"/>
			<point x="963" y="-2"/>
			<point x="986" y="55"/>
			<point x="986" y="157" type="curve" smooth="yes"/>
			<point x="986" y="201"/>
			<point x="961" y="236"/>
			<point x="904" y="236" type="curve" smooth="yes"/>
			<point x="830" y="236"/>
			<point x="457" y="232"/>
			<point x="336" y="228" type="curve"/>
			<point x="369" y="690" type="line"/>
			<point x="481" y="690"/>
			<point x="775" y="694"/>
			<point x="817" y="695" type="curve" smooth="yes"/>
			<point x="878" y="696"/>
			<point x="907" y="734"/>
			<point x="907" y="831" type="curve" smooth="yes"/>
			<point x="907" y="882"/>
			<point x="888" y="930"/>
			<point x="840" y="930" type="curve" smooth="yes"/>
			<point x="755" y="930"/>
			<point x="454" y="924"/>
			<point x="384" y="921" type="curve"/>
			<point x="412" y="1360" type="line"/>
			<point x="921" y="1360" type="line" smooth="yes"/>
			<point x="986" y="1360"/>
			<point x="1024" y="1414"/>
			<point x="1024" y="1510" type="curve" smooth="yes"/>
			<point x="1024" y="1571"/>
			<point x="994" y="1600"/>
			<point x="938" y="1600" type="curve" smooth="yes"/>
			<point x="297" y="1600" type="line" smooth="yes"/>
			<point x="215" y="1600"/>
			<point x="176" y="1572"/>
			<point x="171" y="1497" type="curve" smooth="yes"/>
			<point x="85" y="208" type="line" smooth="yes"/>
			<point x="82" y="168"/>
			<point x="80" y="136"/>
			<point x="80" y="119" type="curve" smooth="yes"/>
			<point x="80" y="36"/>
			<point x="135" y="-12"/>
		</contour>
	</outline>
	<anchor name="bottom" x="517" y="0"/>
	<anchor name="ogonek" x="882" y="0"/>
	<anchor name="top" x="593" y="1600"/>
	<anchor name="topleft" x="303" y="1600"/>
</glyph>
<glyph name="F" format="2">
	<unicode hex="0046"/>
	<advance width="977"/>
	<outline>
		<contour>
			<point x="218" y="-12" type="curve" smooth="yes"/>
			<point x="301" y="-12"/>
			<point x="328" y="11"/>
			<point x="333" y="88" type="curve" smooth="yes"/>
			<point x="372" y="690" type="line"/>
			<point x="484" y="690"/>
			<point x="778" y="694"/>
			<point x="820" y="695" type="curve" smooth="yes"/>
			<point x="881" y="696"/>
			<point x="910" y="734"/>
			<point x="910" y="831" type="curve" smooth="yes"/>
			<point x="910" y="882"/>
			<point x="891" y="930"/>
			<point x="847" y="930" type="curve" smooth="yes"/>
			<point x="762" y="930"/>
			<point x="457" y="924"/>
			<point x="387" y="921" type="curve"/>
			<point x="415" y="1360" type="line"/>
			<point x="924" y="1360" type="line" smooth="yes"/>
			<point x="989" y="1360"/>
			<point x="1027" y="1414"/>
			<point x="1027" y="1510" type="curve" smooth="yes"/>
			<point x="1027" y="1571"/>
			<point x="997" y="1600"/>
			<point x="945" y="1600" type="curve" smooth="yes"/>
			<point x="300" y="1600" type="line" smooth="yes"/>
			<point x="218" y="1600"/>
			<point x="179" y="1572"/>
			<point x="174" y="1497" type="curve" smooth="yes"/>
			<point x="86" y="191" type="line" smooth="yes"/>
			<point x="83" y="144"/>
			<point x="80" y="96"/>
			<point x="80" y="66" type="curve" smooth="yes"/>
			<point x="80" y="17"/>
			<point x="134" y="-12"/>
		</contour>
	</outline>
</glyph>
<glyph name="H" format="2">
	<unicode hex="0048"/>
	<advance width="1343"/>
	<outline>
		<contour>
			<point x="199" y="-12" type="curve" smooth="yes"/>
			<point x="280" y="-12"/>
			<point x="326" y="5"/>
			<point x="330" y="66" type="curve" smooth="yes"/>
			<point x="426" y="1443" type="line" smooth="yes"/>
			<point x="429" y="1480"/>
			<point x="430" y="1498"/>
			<point x="430" y="1523" type="curve" smooth="yes"/>
			<point x="430" y="1583"/>
			<point x="395" y="1600"/>
			<point x="302" y="1600" type="curve" smooth="yes"/>
			<point x="219" y="1600"/>
			<point x="180" y="1572"/>
			<point x="175" y="1497" type="curve" smooth="yes"/>
			<point x="83" y="123" type="line" smooth="yes"/>
			<point x="81" y="99"/>
			<point x="80" y="82"/>
			<point x="80" y="71" type="curve" smooth="yes"/>
			<point x="80" y="7"/>
			<point x="107" y="-12"/>
		</contour>
		<contour>
			<point x="1032" y="-12" type="curve" smooth="yes"/>
			<point x="1113" y="-12"/>
			<point x="1159" y="5"/>
			<point x="1163" y="66" type="curve" smooth="yes"/>
			<point x="1259" y="1443" type="line" smooth="yes"/>
			<point x="1262" y="1480"/>
			<point x="1263" y="1498"/>
			<point x="1263" y="1523" type="curve" smooth="yes"/>
			<point x="1263" y="1583"/>
			<point x="1228" y="1600"/>
			<point x="1135" y="1600" type="curve" smooth="yes"/>
			<point x="1052" y="1600"/>
			<point x="1013" y="1572"/>
			<point x="1008" y="1497" type="curve" smooth="yes"/>
			<point x="916" y="123" type="line" smooth="yes"/>
			<point x="914" y="99"/>
			<point x="913" y="82"/>
			<point x="913" y="71" type="curve" smooth="yes"/>
			<point x="913" y="7"/>
			<point x="940" y="-12"/>
		</contour>
		<contour>
			<point x="268" y="942" type="curve"/>
			<point x="263" y="701" type="line"/>
			<point x="356" y="694"/>
			<point x="530" y="692"/>
			<point x="688" y="692" type="curve" smooth="yes"/>
			<point x="862" y="692"/>
			<point x="942" y="697"/>
			<point x="1016" y="703" type="curve"/>
			<point x="1021" y="941" type="line"/>
			<point x="944" y="936"/>
			<point x="855" y="932"/>
			<point x="692" y="932" type="curve" smooth="yes"/>
			<point x="548" y="932"/>
			<point x="360" y="935"/>
		</contour>
	</outline>
	<anchor name="bottom" x="616" y="0"/>
	<anchor name="center" x="695" y="1220"/>
	<anchor name="top" x="719" y="1600"/>
	<anchor name="topleft" x="177" y="1600"/>
	<note>
u0048
</note>
</glyph>
<glyph name="L" format="2">
	<unicode hex="004C"/>
	<advance width="1040"/>
	<outline>
		<contour>
			<point x="199" y="-12" type="curve" smooth="yes"/>
			<point x="373" y="-12"/>
			<point x="773" y="-11"/>
			<point x="899" y="-5" type="curve" smooth="yes"/>
			<point x="967" y="-2"/>
			<point x="990" y="55"/>
			<point x="990" y="157" type="curve" smooth="yes"/>
			<point x="990" y="201"/>
			<point x="965" y="239"/>
			<point x="908" y="239" type="curve" smooth="yes"/>
			<point x="888" y="239"/>
			<point x="846" y="239"/>
			<point x="795" y="238" type="curve" smooth="yes"/>
			<point x="341" y="228" type="line"/>
			<point x="427" y="1453" type="line" smooth="yes"/>
			<point x="429" y="1482"/>
			<point x="430" y="1498"/>
			<point x="430" y="1523" type="curve" smooth="yes"/>
			<point x="430" y="1583"/>
			<point x="395" y="1600"/>
			<point x="302" y="1600" type="curve" smooth="yes"/>
			<point x="220" y="1600"/>
			<point x="180" y="1572"/>
			<point x="175" y="1497" type="curve" smooth="yes"/>
			<point x="83" y="127" type="line" smooth="yes"/>
			<point x="82" y="119"/>
			<point x="80" y="80"/>
			<point x="80" y="71" type="curve" smooth="yes"/>
			<point x="80" y="7"/>
			<point x="107" y="-12"/>
		</contour>
	</outline>
	<anchor name="bottom" x="520" y="-12"/>
	<anchor name="center" x="261" y="839"/>
	<anchor name="top" x="302" y="1600"/>
	<anchor name="topright" x="446" y="1600"/>
</glyph>
<glyph name="M" format="2">
	<unicode hex="004D"/>
	<advance width="1797"/>
	<outline>
		<contour>
			<point x="60" y="76" type="curve" smooth="yes"/>
			<point x="60" y="10"/>
			<point x="110" y="-12"/>
			<point x="190" y="-12" type="curve" smooth="yes"/>
			<point x="248" y="-12"/>
			<point x="274" y="21"/>
			<point x="283" y="84" type="curve" smooth="yes"/>
			<point x="418" y="1065" type="line" smooth="yes"/>
			<point x="434" y="1183"/>
			<point x="445" y="1300"/>
			<point x="453" y="1418" type="curve"/>
			<point x="386" y="1418" type="line"/>
			<point x="403" y="1311"/>
			<point x="435" y="1190"/>
			<point x="466" y="1080" type="curve" smooth="yes"/>
			<point x="705" y="245" type="line" smooth="yes"/>
			<point x="731" y="154"/>
			<point x="766" y="129"/>
			<point x="834" y="129" type="curve" smooth="yes"/>
			<point x="883" y="129"/>
			<point x="937" y="148"/>
			<point x="971" y="237" type="curve" smooth="yes"/>
			<point x="1273" y="1029" type="line" smooth="yes"/>
			<point x="1321" y="1154"/>
			<point x="1355" y="1276"/>
			<point x="1394" y="1418" type="curve"/>
			<point x="1337" y="1418" type="line"/>
			<point x="1343" y="1047" type="line"/>
			<point x="1385" y="110" type="line" smooth="yes"/>
			<point x="1390" y="5"/>
			<point x="1429" y="-12"/>
			<point x="1514" y="-12" type="curve" smooth="yes"/>
			<point x="1593" y="-12"/>
			<point x="1657" y="16"/>
			<point x="1657" y="87" type="curve" smooth="yes"/>
			<point x="1657" y="123"/>
			<point x="1654" y="168"/>
			<point x="1651" y="211" type="curve" smooth="yes"/>
			<point x="1554" y="1450" type="line" smooth="yes"/>
			<point x="1546" y="1557"/>
			<point x="1506" y="1600"/>
			<point x="1423" y="1600" type="curve" smooth="yes"/>
			<point x="1339" y="1600"/>
			<point x="1296" y="1569"/>
			<point x="1255" y="1465" type="curve" smooth="yes"/>
			<point x="970" y="741" type="line" smooth="yes"/>
			<point x="906" y="578"/>
			<point x="852" y="405"/>
			<point x="823" y="290" type="curve"/>
			<point x="907" y="290" type="line"/>
			<point x="886" y="405"/>
			<point x="852" y="574"/>
			<point x="804" y="736" type="curve" smooth="yes"/>
			<point x="588" y="1464" type="line" smooth="yes"/>
			<point x="556" y="1572"/>
			<point x="512" y="1600"/>
			<point x="423" y="1600" type="curve" smooth="yes"/>
			<point x="348" y="1600"/>
			<point x="297" y="1556"/>
			<point x="281" y="1458" type="curve" smooth="yes"/>
			<point x="64" y="122" type="line" smooth="yes"/>
			<point x="62" y="109"/>
			<point x="60" y="89"/>
		</contour>
	</outline>
	<anchor name="bottom" x="834" y="129"/>
	<anchor name="top" x="920" y="1600"/>
</glyph>
<glyph name="N" format="2">
	<unicode hex="004E"/>
	<advance width="1360"/>
	<outline>
		<contour>
			<point x="196" y="-12" type="curve" smooth="yes"/>
			<point x="284" y="-12"/>
			<point x="303" y="6"/>
			<point x="307" y="67" type="curve" smooth="yes"/>
			<point x="368" y="967" type="line" smooth="yes"/>
			<point x="374" y="1060"/>
			<point x="378" y="1146"/>
			<point x="377" y="1197" type="curve"/>
			<point x="361" y="1194" type="line"/>
			<point x="374" y="1160"/>
			<point x="414" y="1058"/>
			<point x="481" y="930" type="curve" smooth="yes"/>
			<point x="918" y="94" type="line" smooth="yes"/>
			<point x="968" y="-2"/>
			<point x="1001" y="-12"/>
			<point x="1060" y="-12" type="curve" smooth="yes"/>
			<point x="1136" y="-12"/>
			<point x="1178" y="29"/>
			<point x="1185" y="128" type="curve" smooth="yes"/>
			<point x="1277" y="1452" type="line" smooth="yes"/>
			<point x="1279" y="1476"/>
			<point x="1280" y="1498"/>
			<point x="1280" y="1523" type="curve" smooth="yes"/>
			<point x="1280" y="1583"/>
			<point x="1246" y="1600"/>
			<point x="1154" y="1600" type="curve" smooth="yes"/>
			<point x="1071" y="1600"/>
			<point x="1054" y="1581"/>
			<point x="1049" y="1510" type="curve" smooth="yes"/>
			<point x="990" y="614" type="line" smooth="yes"/>
			<point x="984" y="528"/>
			<point x="981" y="436"/>
			<point x="982" y="388" type="curve"/>
			<point x="999" y="391" type="line"/>
			<point x="984" y="446"/>
			<point x="949" y="530"/>
			<point x="901" y="624" type="curve" smooth="yes"/>
			<point x="439" y="1526" type="line" smooth="yes"/>
			<point x="402" y="1598"/>
			<point x="372" y="1600"/>
			<point x="302" y="1600" type="curve" smooth="yes"/>
			<point x="226" y="1600"/>
			<point x="180" y="1565"/>
			<point x="175" y="1497" type="curve" smooth="yes"/>
			<point x="83" y="123" type="line" smooth="yes"/>
			<point x="81" y="99"/>
			<point x="80" y="82"/>
			<point x="80" y="71" type="curve" smooth="yes"/>
			<point x="80" y="7"/>
			<point x="107" y="-12"/>
		</contour>
	</outline>
	<anchor name="bottom" x="618" y="0"/>
	<anchor name="top" x="750" y="1600"/>
</glyph>
<glyph name="O" format="2">
	<unicode hex="004F"/>
	<advance width="1392"/>
	<outline>
		<contour>
			<point x="618" y="-14" type="curve" smooth="yes"/>
			<point x="987" y="-14"/>
			<point x="1302" y="353"/>
			<point x="1302" y="921" type="curve" smooth="yes"/>
			<point x="1302" y="1397"/>
			<point x="1073" y="1625"/>
			<point x="771" y="1625" type="curve" smooth="yes"/>
			<point x="405" y="1625"/>
			<point x="90" y="1259"/>
			<point x="90" y="691" type="curve" smooth="yes"/>
			<point x="90" y="215"/>
			<point x="316" y="-14"/>
		</contour>
		<contour>
			<point x="644" y="231" type="curve" smooth="yes"/>
			<point x="479" y="231"/>
			<point x="350" y="366"/>
			<point x="350" y="726" type="curve" smooth="yes"/>
			<point x="350" y="1116"/>
			<point x="539" y="1380"/>
			<point x="748" y="1380" type="curve" smooth="yes"/>
			<point x="913" y="1380"/>
			<point x="1042" y="1245"/>
			<point x="1042" y="885" type="curve" smooth="yes"/>
			<point x="1042" y="495"/>
			<point x="853" y="231"/>
		</contour>
	</outline>
	<anchor name="Qtail" x="780" y="0"/>
	<anchor name="bottom" x="628" y="0"/>
	<anchor name="center" x="691" y="784"/>
	<anchor name="ogonek" x="679" y="0"/>
	<anchor name="top" x="769" y="1600"/>
	<anchor name="topleft" x="269" y="1434"/>
	<anchor name="topright" x="1380" y="1600"/>
</glyph>
<glyph name="S" format="2">
	<unicode hex="0053"/>
	<advance width="1118"/>
	<outline>
		<contour>
			<point x="516" y="-12" type="curve" smooth="yes"/>
			<point x="805" y="-12"/>
			<point x="1012" y="174"/>
			<point x="1012" y="437" type="curve" smooth="yes"/>
			<point x="1012" y="704"/>
			<point x="813" y="833"/>
			<point x="642" y="944" type="curve" smooth="yes"/>
			<point x="515" y="1026"/>
			<point x="404" y="1098"/>
			<point x="404" y="1209" type="curve" smooth="yes"/>
			<point x="404" y="1329"/>
			<point x="511" y="1395"/>
			<point x="651" y="1395" type="curve" smooth="yes"/>
			<point x="725" y="1395"/>
			<point x="802" y="1381"/>
			<point x="890" y="1348" type="curve" smooth="yes"/>
			<point x="914" y="1339"/>
			<point x="937" y="1330"/>
			<point x="954" y="1330" type="curve" smooth="yes"/>
			<point x="998" y="1330"/>
			<point x="1048" y="1395"/>
			<point x="1048" y="1450" type="curve" smooth="yes"/>
			<point x="1048" y="1488"/>
			<point x="1022" y="1515"/>
			<point x="962" y="1548" type="curve" smooth="yes"/>
			<point x="873" y="1596"/>
			<point x="762" y="1625"/>
			<point x="652" y="1625" type="curve" smooth="yes"/>
			<point x="377" y="1625"/>
			<point x="164" y="1455"/>
			<point x="164" y="1200" type="curve" smooth="yes"/>
			<point x="164" y="942"/>
			<point x="348" y="827"/>
			<point x="513" y="725" type="curve" smooth="yes"/>
			<point x="649" y="640"/>
			<point x="772" y="564"/>
			<point x="772" y="422" type="curve" smooth="yes"/>
			<point x="772" y="314"/>
			<point x="701" y="218"/>
			<point x="523" y="218" type="curve" smooth="yes"/>
			<point x="403" y="218"/>
			<point x="286" y="244"/>
			<point x="166" y="290" type="curve" smooth="yes"/>
			<point x="145" y="298"/>
			<point x="128" y="304"/>
			<point x="112" y="304" type="curve" smooth="yes"/>
			<point x="62" y="304"/>
			<point x="20" y="245"/>
			<point x="20" y="170" type="curve" smooth="yes"/>
			<point x="20" y="137"/>
			<point x="40" y="113"/>
			<point x="88" y="87" type="curve" smooth="yes"/>
			<point x="180" y="36"/>
			<point x="357" y="-12"/>
		</contour>
	</outline>
	<anchor name="bottom" x="539" y="0"/>
	<anchor name="top" x="677" y="1600"/>
</glyph>
<glyph name="V" format="2">
	<unicode hex="0056"/>
	<advance width="1201"/>
	<outline>
		<contour>
			<point x="544" y="-12" type="curve" smooth="yes"/>
			<point x="634" y="-12"/>
			<point x="690" y="14"/>
			<point x="730" y="117" type="curve" smooth="yes"/>
			<point x="1221" y="1389" type="line" smooth="yes"/>
			<point x="1241" y="1440"/>
			<point x="1251" y="1471"/>
			<point x="1251" y="1495" type="curve" smooth="yes"/>
			<point x="1251" y="1555"/>
			<point x="1183" y="1600"/>
			<point x="1107" y="1600" type="curve" smooth="yes"/>
			<point x="1051" y="1600"/>
			<point x="1031" y="1580"/>
			<point x="1007" y="1515" type="curve" smooth="yes"/>
			<point x="685" y="641" type="line" smooth="yes"/>
			<point x="630" y="493"/>
			<point x="603" y="411"/>
			<point x="578" y="306" type="curve"/>
			<point x="606" y="307" type="line"/>
			<point x="591" y="412"/>
			<point x="579" y="450"/>
			<point x="532" y="644" type="curve" smooth="yes"/>
			<point x="326" y="1496" type="line" smooth="yes"/>
			<point x="308" y="1570"/>
			<point x="287" y="1600"/>
			<point x="224" y="1600" type="curve" smooth="yes"/>
			<point x="134" y="1600"/>
			<point x="60" y="1545"/>
			<point x="60" y="1491" type="curve" smooth="yes"/>
			<point x="60" y="1466"/>
			<point x="73" y="1420"/>
			<point x="85" y="1373" type="curve" smooth="yes"/>
			<point x="417" y="117" type="line" smooth="yes"/>
			<point x="444" y="15"/>
			<point x="495" y="-12"/>
		</contour>
	</outline>
	<anchor name="bottom" x="577" y="0"/>
	<anchor name="top" x="636" y="1600"/>
</glyph>
<glyph name="Y" format="2">
	<unicode hex="0059"/>
	<advance width="1155"/>
	<outline>
		<contour>
			<point x="511" y="-12" type="curve" smooth="yes"/>
			<point x="592" y="-12"/>
			<point x="638" y="2"/>
			<point x="642" y="66" type="curve" smooth="yes"/>
			<point x="682" y="643" type="line"/>
			<point x="1156" y="1384" type="line" smooth="yes"/>
			<point x="1184" y="1428"/>
			<point x="1195" y="1451"/>
			<point x="1195" y="1472" type="curve" smooth="yes"/>
			<point x="1195" y="1541"/>
			<point x="1122" y="1600"/>
			<point x="1047" y="1600" type="curve" smooth="yes"/>
			<point x="1014" y="1600"/>
			<point x="992" y="1590"/>
			<point x="959" y="1536" type="curve" smooth="yes"/>
			<point x="432" y="663" type="line"/>
			<point x="395" y="123" type="line" smooth="yes"/>
			<point x="393" y="99"/>
			<point x="392" y="82"/>
			<point x="392" y="71" type="curve" smooth="yes"/>
			<point x="392" y="7"/>
			<point x="419" y="-12"/>
		</contour>
		<contour>
			<point x="459" y="641" type="curve"/>
			<point x="661" y="686" type="line"/>
			<point x="296" y="1511" type="line" smooth="yes"/>
			<point x="265" y="1580"/>
			<point x="248" y="1600"/>
			<point x="202" y="1600" type="curve" smooth="yes"/>
			<point x="129" y="1600"/>
			<point x="40" y="1545"/>
			<point x="40" y="1490" type="curve" smooth="yes"/>
			<point x="40" y="1467"/>
			<point x="50" y="1438"/>
			<point x="75" y="1385" type="curve" smooth="yes"/>
			<point x="370" y="755" type="line" smooth="yes"/>
			<point x="411" y="667"/>
			<point x="432" y="651"/>
		</contour>
	</outline>
	<anchor name="bottom" x="284" y="0"/>
	<anchor name="top" x="648" y="1600"/>
	<anchor name="topleft" x="153" y="1602"/>
</glyph>
<glyph name="underscore" format="2">
	<unicode hex="005F"/>
	<advance width="1580"/>
	<outline>
		<contour>
			<point x="170" y="-290" type="curve" smooth="yes"/>
			<point x="1405" y="-290" type="line" smooth="yes"/>
			<point x="1448" y="-290"/>
			<point x="1480" y="-259"/>
			<point x="1480" y="-185" type="curve" smooth="yes"/>
			<point x="1480" y="-115"/>
			<point x="1456" y="-80"/>
			<point x="1410" y="-80" type="curve" smooth="yes"/>
			<point x="175" y="-80" type="line" smooth="yes"/>
			<point x="132" y="-80"/>
			<point x="100" y="-114"/>
			<point x="100" y="-201" type="curve" smooth="yes"/>
			<point x="100" y="-260"/>
			<point x="125" y="-290"/>
		</contour>
	</outline>
</glyph>
<glyph name="c" format="2">
	<unicode hex="0063"/>
	<advance width="888"/>
	<outline>
		<contour>
			<point x="461" y="-12" type="curve" smooth="yes"/>
			<point x="592" y="-12"/>
			<point x="698" y="29"/>
			<point x="772" y="95" type="curve" smooth="yes"/>
			<point x="812" y="131"/>
			<point x="827" y="159"/>
			<point x="827" y="187" type="curve" smooth="yes"/>
			<point x="827" y="231"/>
			<point x="775" y="284"/>
			<point x="742" y="284" type="curve" smooth="yes"/>
			<point x="724" y="284"/>
			<point x="710" y="278"/>
			<point x="672" y="251" type="curve" smooth="yes"/>
			<point x="621" y="216"/>
			<point x="560" y="188"/>
			<point x="495" y="188" type="curve" smooth="yes"/>
			<point x="387" y="188"/>
			<point x="325" y="268"/>
			<point x="325" y="438" type="curve" smooth="yes"/>
			<point x="325" y="656"/>
			<point x="433" y="806"/>
			<point x="559" y="806" type="curve" smooth="yes"/>
			<point x="604" y="806"/>
			<point x="648" y="790"/>
			<point x="688" y="768" type="curve" smooth="yes"/>
			<point x="711" y="755"/>
			<point x="726" y="748"/>
			<point x="746" y="748" type="curve" smooth="yes"/>
			<point x="787" y="748"/>
			<point x="833" y="809"/>
			<point x="833" y="852" type="curve" smooth="yes"/>
			<point x="833" y="885"/>
			<point x="803" y="921"/>
			<point x="757" y="949" type="curve" smooth="yes"/>
			<point x="706" y="980"/>
			<point x="638" y="1000"/>
			<point x="557" y="1000" type="curve" smooth="yes"/>
			<point x="290" y="1000"/>
			<point x="80" y="752"/>
			<point x="80" y="427" type="curve" smooth="yes"/>
			<point x="80" y="158"/>
			<point x="239" y="-12"/>
		</contour>
	</outline>
	<anchor name="bottom" x="475" y="0"/>
	<anchor name="top" x="538" y="985"/>
</glyph>
<glyph name="e" format="2">
	<unicode hex="0065"/>
	<advance width="966"/>
	<outline>
		<contour>
			<point x="502" y="-12" type="curve" smooth="yes"/>
			<point x="635" y="-12"/>
			<point x="759" y="41"/>
			<point x="834" y="119" type="curve" smooth="yes"/>
			<point x="868" y="154"/>
			<point x="883" y="187"/>
			<point x="883" y="210" type="curve" smooth="yes"/>
			<point x="883" y="252"/>
			<point x="835" y="302"/>
			<point x="795" y="302" type="curve" smooth="yes"/>
			<point x="783" y="302"/>
			<point x="767" y="299"/>
			<point x="731" y="270" type="curve" smooth="yes"/>
			<point x="666" y="217"/>
			<point x="598" y="188"/>
			<point x="514" y="188" type="curve" smooth="yes"/>
			<point x="387" y="188"/>
			<point x="325" y="266"/>
			<point x="325" y="438" type="curve" smooth="yes"/>
			<point x="325" y="665"/>
			<point x="429" y="829"/>
			<point x="549" y="829" type="curve" smooth="yes"/>
			<point x="613" y="829"/>
			<point x="646" y="790"/>
			<point x="646" y="715" type="curve" smooth="yes"/>
			<point x="646" y="605"/>
			<point x="535" y="523"/>
			<point x="257" y="507" type="curve" smooth="yes"/>
			<point x="210" y="504"/>
			<point x="181" y="485"/>
			<point x="181" y="444" type="curve" smooth="yes"/>
			<point x="181" y="397"/>
			<point x="208" y="361"/>
			<point x="242" y="362" type="curve" smooth="yes"/>
			<point x="662" y="378"/>
			<point x="891" y="523"/>
			<point x="891" y="745" type="curve" smooth="yes"/>
			<point x="891" y="895"/>
			<point x="770" y="999"/>
			<point x="590" y="999" type="curve" smooth="yes"/>
			<point x="299" y="999"/>
			<point x="80" y="752"/>
			<point x="80" y="427" type="curve" smooth="yes"/>
			<point x="80" y="158"/>
			<point x="243" y="-12"/>
		</contour>
	</outline>
	<anchor name="bottom" x="510" y="0"/>
	<anchor name="ogonek" x="670" y="0"/>
	<anchor name="top" x="584" y="985"/>
</glyph>
<glyph name="h" format="2">
	<unicode hex="0068"/>
	<advance width="1102"/>
	<outline>
		<contour>
			<point x="215" y="-12" type="curve" smooth="yes"/>
			<point x="296" y="-12"/>
			<point x="337" y="9"/>
			<point x="340" y="64" type="curve" smooth="yes"/>
			<point x="342" y="100"/>
			<point x="343" y="137"/>
			<point x="344" y="173" type="curve"/>
			<point x="386" y="478"/>
			<point x="556" y="770"/>
			<point x="691" y="770" type="curve" smooth="yes"/>
			<point x="738" y="770"/>
			<point x="755" y="744"/>
			<point x="755" y="680" type="curve" smooth="yes"/>
			<point x="755" y="651"/>
			<point x="753" y="622"/>
			<point x="748" y="568" type="curve" smooth="yes"/>
			<point x="711" y="156" type="line" smooth="yes"/>
			<point x="708" y="121"/>
			<point x="706" y="87"/>
			<point x="706" y="67" type="curve" smooth="yes"/>
			<point x="706" y="11"/>
			<point x="734" y="-12"/>
			<point x="821" y="-12" type="curve" smooth="yes"/>
			<point x="904" y="-12"/>
			<point x="942" y="9"/>
			<point x="946" y="64" type="curve" smooth="yes"/>
			<point x="986" y="608" type="line" smooth="yes"/>
			<point x="990" y="656"/>
			<point x="992" y="698"/>
			<point x="992" y="759" type="curve" smooth="yes"/>
			<point x="992" y="907"/>
			<point x="915" y="1000"/>
			<point x="789" y="1000" type="curve" smooth="yes"/>
			<point x="631" y="1000"/>
			<point x="470" y="861"/>
			<point x="354" y="551" type="curve"/>
			<point x="364" y="548" type="line"/>
			<point x="438" y="1479" type="line" smooth="yes"/>
			<point x="441" y="1517"/>
			<point x="442" y="1537"/>
			<point x="442" y="1552" type="curve" smooth="yes"/>
			<point x="442" y="1607"/>
			<point x="415" y="1625"/>
			<point x="331" y="1625" type="curve" smooth="yes"/>
			<point x="235" y="1625"/>
			<point x="209" y="1612"/>
			<point x="202" y="1515" type="curve" smooth="yes"/>
			<point x="103" y="156" type="line" smooth="yes"/>
			<point x="100" y="121"/>
			<point x="100" y="87"/>
			<point x="100" y="67" type="curve" smooth="yes"/>
			<point x="100" y="11"/>
			<point x="128" y="-12"/>
		</contour>
	</outline>
	<anchor name="bottom" x="494" y="0"/>
	<anchor name="center" x="315" y="1208"/>
	<anchor name="top" x="328" y="1600"/>
</glyph>
<glyph name="l" format="2">
	<unicode hex="006C"/>
	<advance width="592"/>
	<outline>
		<contour>
			<point x="342" y="-12" type="curve" smooth="yes"/>
			<point x="412" y="-12"/>
			<point x="486" y="15"/>
			<point x="530" y="64" type="curve" smooth="yes"/>
			<point x="565" y="102"/>
			<point x="572" y="138"/>
			<point x="572" y="158" type="curve" smooth="yes"/>
			<point x="572" y="197"/>
			<point x="530" y="246"/>
			<point x="480" y="246" type="curve" smooth="yes"/>
			<point x="467" y="246"/>
			<point x="456" y="240"/>
			<point x="440" y="226" type="curve" smooth="yes"/>
			<point x="419" y="207"/>
			<point x="398" y="198"/>
			<point x="381" y="198" type="curve" smooth="yes"/>
			<point x="348" y="198"/>
			<point x="336" y="217"/>
			<point x="336" y="270" type="curve" smooth="yes"/>
			<point x="336" y="294"/>
			<point x="338" y="327"/>
			<point x="342" y="376" type="curve" smooth="yes"/>
			<point x="423" y="1479" type="line" smooth="yes"/>
			<point x="426" y="1517"/>
			<point x="427" y="1537"/>
			<point x="427" y="1552" type="curve" smooth="yes"/>
			<point x="427" y="1607"/>
			<point x="400" y="1625"/>
			<point x="316" y="1625" type="curve" smooth="yes"/>
			<point x="220" y="1625"/>
			<point x="194" y="1612"/>
			<point x="187" y="1515" type="curve" smooth="yes"/>
			<point x="107" y="384" type="line" smooth="yes"/>
			<point x="102" y="313"/>
			<point x="100" y="283"/>
			<point x="100" y="241" type="curve" smooth="yes"/>
			<point x="100" y="89"/>
			<point x="189" y="-12"/>
		</contour>
	</outline>
	<anchor name="bottom" x="312" y="0"/>
	<anchor name="center" x="265" y="868"/>
	<anchor name="top" x="314" y="1600"/>
	<anchor name="topright" x="426" y="1600"/>
</glyph>
<glyph name="p" format="2">
	<unicode hex="0070"/>
	<advance width="1090"/>
	<outline>
		<contour>
			<point x="303" y="-614" type="curve" smooth="yes"/>
			<point x="409" y="854" type="line" smooth="yes"/>
			<point x="412" y="892"/>
			<point x="413" y="912"/>
			<point x="413" y="927" type="curve" smooth="yes"/>
			<point x="413" y="982"/>
			<point x="386" y="1000"/>
			<point x="302" y="1000" type="curve" smooth="yes"/>
			<point x="206" y="1000"/>
			<point x="180" y="987"/>
			<point x="173" y="890" type="curve" smooth="yes"/>
			<point x="72" y="-522" type="line" smooth="yes"/>
			<point x="70" y="-544"/>
			<point x="66" y="-591"/>
			<point x="66" y="-611" type="curve" smooth="yes"/>
			<point x="66" y="-668"/>
			<point x="94" y="-690"/>
			<point x="181" y="-690" type="curve" smooth="yes"/>
			<point x="262" y="-690"/>
			<point x="299" y="-669"/>
		</contour>
		<contour>
			<point x="352" y="257" type="curve"/>
			<point x="297" y="65" type="line"/>
			<point x="355" y="16"/>
			<point x="413" y="-12"/>
			<point x="496" y="-12" type="curve" smooth="yes"/>
			<point x="757" y="-12"/>
			<point x="1010" y="239"/>
			<point x="1010" y="630" type="curve" smooth="yes"/>
			<point x="1010" y="874"/>
			<point x="900" y="1000"/>
			<point x="746" y="1000" type="curve" smooth="yes"/>
			<point x="573" y="1000"/>
			<point x="431" y="871"/>
			<point x="295" y="507" type="curve"/>
			<point x="377" y="477" type="line"/>
			<point x="478" y="704"/>
			<point x="565" y="790"/>
			<point x="658" y="790" type="curve" smooth="yes"/>
			<point x="724" y="790"/>
			<point x="765" y="731"/>
			<point x="765" y="590" type="curve" smooth="yes"/>
			<point x="765" y="351"/>
			<point x="631" y="179"/>
			<point x="490" y="179" type="curve" smooth="yes"/>
			<point x="435" y="179"/>
			<point x="390" y="205"/>
		</contour>
	</outline>
</glyph>
<glyph name="s" format="2">
	<unicode hex="0073"/>
	<advance width="860"/>
	<outline>
		<contour>
			<point x="424" y="-12" type="curve" smooth="yes"/>
			<point x="639" y="-12"/>
			<point x="785" y="104"/>
			<point x="785" y="289" type="curve" smooth="yes"/>
			<point x="785" y="419"/>
			<point x="704" y="514"/>
			<point x="522" y="602" type="curve" smooth="yes"/>
			<point x="383" y="669"/>
			<point x="356" y="693"/>
			<point x="356" y="741" type="curve" smooth="yes"/>
			<point x="356" y="786"/>
			<point x="412" y="820"/>
			<point x="493" y="820" type="curve" smooth="yes"/>
			<point x="559" y="820"/>
			<point x="613" y="805"/>
			<point x="655" y="791" type="curve" smooth="yes"/>
			<point x="681" y="782"/>
			<point x="697" y="777"/>
			<point x="714" y="777" type="curve" smooth="yes"/>
			<point x="752" y="777"/>
			<point x="790" y="834"/>
			<point x="790" y="879" type="curve" smooth="yes"/>
			<point x="790" y="910"/>
			<point x="780" y="927"/>
			<point x="744" y="946" type="curve" smooth="yes"/>
			<point x="674" y="983"/>
			<point x="587" y="1000"/>
			<point x="497" y="1000" type="curve" smooth="yes"/>
			<point x="272" y="1000"/>
			<point x="126" y="858"/>
			<point x="126" y="710" type="curve" smooth="yes"/>
			<point x="126" y="574"/>
			<point x="208" y="489"/>
			<point x="387" y="406" type="curve" smooth="yes"/>
			<point x="514" y="347"/>
			<point x="555" y="309"/>
			<point x="555" y="254" type="curve" smooth="yes"/>
			<point x="555" y="204"/>
			<point x="513" y="168"/>
			<point x="427" y="168" type="curve" smooth="yes"/>
			<point x="339" y="168"/>
			<point x="252" y="196"/>
			<point x="197" y="221" type="curve" smooth="yes"/>
			<point x="168" y="234"/>
			<point x="150" y="242"/>
			<point x="130" y="242" type="curve" smooth="yes"/>
			<point x="95" y="242"/>
			<point x="55" y="191"/>
			<point x="55" y="135" type="curve" smooth="yes"/>
			<point x="55" y="109"/>
			<point x="73" y="83"/>
			<point x="140" y="49" type="curve" smooth="yes"/>
			<point x="218" y="9"/>
			<point x="314" y="-12"/>
		</contour>
	</outline>
	<anchor name="bottom" x="397" y="0"/>
	<anchor name="top" x="485" y="985"/>
</glyph>
<glyph name="t" format="2">
	<unicode hex="0074"/>
	<advance width="771"/>
	<outline>
		<contour>
			<point x="429" y="-12" type="curve" smooth="yes"/>
			<point x="536" y="-12"/>
			<point x="626" y="29"/>
			<point x="697" y="111" type="curve" smooth="yes"/>
			<point x="727" y="145"/>
			<point x="736" y="166"/>
			<point x="736" y="184" type="curve" smooth="yes"/>
			<point x="736" y="220"/>
			<point x="677" y="276"/>
			<point x="636" y="276" type="curve" smooth="yes"/>
			<point x="625" y="276"/>
			<point x="615" y="271"/>
			<point x="593" y="254" type="curve" smooth="yes"/>
			<point x="548" y="219"/>
			<point x="512" y="198"/>
			<point x="476" y="198" type="curve" smooth="yes"/>
			<point x="436" y="198"/>
			<point x="414" y="216"/>
			<point x="414" y="280" type="curve" smooth="yes"/>
			<point x="414" y="311"/>
			<point x="416" y="349"/>
			<point x="420" y="390" type="curve" smooth="yes"/>
			<point x="482" y="1199" type="line" smooth="yes"/>
			<point x="483" y="1214"/>
			<point x="483" y="1215"/>
			<point x="483" y="1222" type="curve" smooth="yes"/>
			<point x="483" y="1272"/>
			<point x="446" y="1284"/>
			<point x="365" y="1284" type="curve" smooth="yes"/>
			<point x="303" y="1284"/>
			<point x="240" y="1274"/>
			<point x="235" y="1210" type="curve" smooth="yes"/>
			<point x="177" y="408" type="line" smooth="yes"/>
			<point x="172" y="334"/>
			<point x="169" y="302"/>
			<point x="169" y="260" type="curve" smooth="yes"/>
			<point x="169" y="89"/>
			<point x="272" y="-12"/>
		</contour>
		<contour>
			<point x="89" y="795" type="curve" smooth="yes"/>
			<point x="648" y="795" type="line" smooth="yes"/>
			<point x="692" y="795"/>
			<point x="724" y="828"/>
			<point x="724" y="916" type="curve" smooth="yes"/>
			<point x="724" y="963"/>
			<point x="705" y="985"/>
			<point x="668" y="985" type="curve" smooth="yes"/>
			<point x="109" y="985" type="line" smooth="yes"/>
			<point x="63" y="985"/>
			<point x="30" y="954"/>
			<point x="30" y="871" type="curve" smooth="yes"/>
			<point x="30" y="819"/>
			<point x="51" y="795"/>
		</contour>
	</outline>
	<anchor name="bottom" x="430" y="0"/>
	<anchor name="center" x="352" y="566"/>
	<anchor name="top" x="350" y="1165"/>
	<anchor name="topright" x="500" y="1420"/>
</glyph>
<glyph name="v" format="2">
	<unicode hex="0076"/>
	<advance width="959"/>
	<outline>
		<contour>
			<point x="419" y="-12" type="curve" smooth="yes"/>
			<point x="517" y="-12"/>
			<point x="553" y="21"/>
			<point x="608" y="147" type="curve" smooth="yes"/>
			<point x="895" y="805" type="line" smooth="yes"/>
			<point x="923" y="870"/>
			<point x="929" y="888"/>
			<point x="929" y="907" type="curve" smooth="yes"/>
			<point x="929" y="956"/>
			<point x="853" y="1000"/>
			<point x="790" y="1000" type="curve" smooth="yes"/>
			<point x="745" y="1000"/>
			<point x="721" y="987"/>
			<point x="698" y="925" type="curve" smooth="yes"/>
			<point x="509" y="409" type="line"/>
			<point x="437" y="210" type="line"/>
			<point x="462" y="213" type="line"/>
			<point x="416" y="435" type="line"/>
			<point x="300" y="912" type="line" smooth="yes"/>
			<point x="283" y="980"/>
			<point x="265" y="1000"/>
			<point x="215" y="1000" type="curve" smooth="yes"/>
			<point x="125" y="1000"/>
			<point x="45" y="953"/>
			<point x="45" y="902" type="curve" smooth="yes"/>
			<point x="45" y="880"/>
			<point x="53" y="845"/>
			<point x="61" y="819" type="curve" smooth="yes"/>
			<point x="248" y="174" type="line" smooth="yes"/>
			<point x="291" y="28"/>
			<point x="341" y="-12"/>
		</contour>
	</outline>
</glyph>
<glyph name="w" format="2">
	<unicode hex="0077"/>
	<advance width="1480"/>
	<outline>
		<contour>
			<point x="397" y="-12" type="curve" smooth="yes"/>
			<point x="502" y="-12"/>
			<point x="545" y="27"/>
			<point x="594" y="190" type="curve" smooth="yes"/>
			<point x="687" y="496" type="line"/>
			<point x="749" y="751" type="line"/>
			<point x="718" y="752" type="line"/>
			<point x="752" y="507" type="line"/>
			<point x="810" y="190" type="line" smooth="yes"/>
			<point x="836" y="46"/>
			<point x="890" y="-12"/>
			<point x="993" y="-12" type="curve" smooth="yes"/>
			<point x="1070" y="-12"/>
			<point x="1118" y="19"/>
			<point x="1168" y="147" type="curve" smooth="yes"/>
			<point x="1397" y="748" type="line" smooth="yes"/>
			<point x="1434" y="843"/>
			<point x="1450" y="887"/>
			<point x="1450" y="916" type="curve" smooth="yes"/>
			<point x="1450" y="958"/>
			<point x="1393" y="1000"/>
			<point x="1312" y="1000" type="curve" smooth="yes"/>
			<point x="1261" y="1000"/>
			<point x="1243" y="983"/>
			<point x="1221" y="916" type="curve" smooth="yes"/>
			<point x="1064" y="434" type="line"/>
			<point x="993" y="200" type="line"/>
			<point x="1010" y="198" type="line"/>
			<point x="977" y="418" type="line"/>
			<point x="895" y="873" type="line" smooth="yes"/>
			<point x="881" y="948"/>
			<point x="843" y="972"/>
			<point x="765" y="970" type="curve" smooth="yes"/>
			<point x="685" y="968"/>
			<point x="639" y="937"/>
			<point x="612" y="849" type="curve" smooth="yes"/>
			<point x="484" y="437" type="line"/>
			<point x="419" y="200" type="line"/>
			<point x="440" y="200" type="line"/>
			<point x="398" y="435" type="line"/>
			<point x="296" y="923" type="line" smooth="yes"/>
			<point x="284" y="978"/>
			<point x="262" y="1000"/>
			<point x="212" y="1000" type="curve" smooth="yes"/>
			<point x="126" y="1000"/>
			<point x="45" y="960"/>
			<point x="45" y="900" type="curve" smooth="yes"/>
			<point x="45" y="879"/>
			<point x="50" y="855"/>
			<point x="58" y="825" type="curve" smooth="yes"/>
			<point x="217" y="190" type="line" smooth="yes"/>
			<point x="254" y="43"/>
			<point x="310" y="-12"/>
		</contour>
	</outline>
	<anchor name="bottom" x="724" y="0"/>
	<anchor name="top" x="767" y="975"/>
</glyph>
<glyph name="braceleft" format="2">
	<unicode hex="007B"/>
	<advance width="870"/>
	<outline>
		<contour>
			<point x="597" y="-412" type="curve" smooth="yes"/>
			<point x="651" y="-412"/>
			<point x="671" y="-348"/>
			<point x="671" y="-298" type="curve" smooth="yes"/>
			<point x="671" y="-246"/>
			<point x="650" y="-222"/>
			<point x="605" y="-209" type="curve" smooth="yes"/>
			<point x="490" y="-176"/>
			<point x="444" y="-114"/>
			<point x="444" y="-15" type="curve" smooth="yes"/>
			<point x="444" y="49"/>
			<point x="463" y="138"/>
			<point x="492" y="235" type="curve" smooth="yes"/>
			<point x="514" y="309"/>
			<point x="545" y="399"/>
			<point x="545" y="478" type="curve" smooth="yes"/>
			<point x="545" y="569"/>
			<point x="503" y="658"/>
			<point x="383" y="689" type="curve"/>
			<point x="382" y="671" type="line"/>
			<point x="525" y="706"/>
			<point x="570" y="782"/>
			<point x="570" y="909" type="curve" smooth="yes"/>
			<point x="570" y="951"/>
			<point x="565" y="999"/>
			<point x="558" y="1063" type="curve" smooth="yes"/>
			<point x="552" y="1117"/>
			<point x="543" y="1214"/>
			<point x="543" y="1274" type="curve" smooth="yes"/>
			<point x="543" y="1438"/>
			<point x="610" y="1520"/>
			<point x="748" y="1534" type="curve" smooth="yes"/>
			<point x="827" y="1542"/>
			<point x="850" y="1573"/>
			<point x="850" y="1642" type="curve" smooth="yes"/>
			<point x="850" y="1699"/>
			<point x="835" y="1742"/>
			<point x="733" y="1742" type="curve" smooth="yes"/>
			<point x="561" y="1742"/>
			<point x="295" y="1620"/>
			<point x="295" y="1283" type="curve" smooth="yes"/>
			<point x="295" y="1211"/>
			<point x="307" y="1103"/>
			<point x="313" y="1046" type="curve" smooth="yes"/>
			<point x="321" y="971"/>
			<point x="324" y="925"/>
			<point x="324" y="890" type="curve" smooth="yes"/>
			<point x="324" y="834"/>
			<point x="316" y="802"/>
			<point x="257" y="802" type="curve" smooth="yes"/>
			<point x="234" y="802"/>
			<point x="214" y="802"/>
			<point x="193" y="802" type="curve" smooth="yes"/>
			<point x="136" y="802"/>
			<point x="80" y="765"/>
			<point x="80" y="683" type="curve" smooth="yes"/>
			<point x="80" y="605"/>
			<point x="130" y="574"/>
			<point x="200" y="568" type="curve" smooth="yes"/>
			<point x="258" y="563"/>
			<point x="297" y="546"/>
			<point x="297" y="477" type="curve" smooth="yes"/>
			<point x="297" y="415"/>
			<point x="266" y="313"/>
			<point x="246" y="246" type="curve" smooth="yes"/>
			<point x="222" y="166"/>
			<point x="196" y="74"/>
			<point x="196" y="-20" type="curve" smooth="yes"/>
			<point x="196" y="-186"/>
			<point x="277" y="-298"/>
			<point x="443" y="-370" type="curve" smooth="yes"/>
			<point x="514" y="-401"/>
			<point x="574" y="-412"/>
		</contour>
	</outline>
</glyph>
<glyph name="exclamdown" format="2">
	<unicode hex="00A1"/>
	<advance width="604"/>
	<outline>
		<contour>
			<point x="275" y="508" type="curve" smooth="yes"/>
			<point x="195" y="508"/>
			<point x="166" y="489"/>
			<point x="161" y="423" type="curve" smooth="yes"/>
			<point x="94" y="-471" type="line" smooth="yes"/>
			<point x="91" y="-517"/>
			<point x="90" y="-532"/>
			<point x="90" y="-549" type="curve" smooth="yes"/>
			<point x="90" y="-595"/>
			<point x="123" y="-612"/>
			<point x="200" y="-612" type="curve" smooth="yes"/>
			<point x="256" y="-612"/>
			<point x="302" y="-603"/>
			<point x="307" y="-531" type="curve" smooth="yes"/>
			<point x="369" y="374" type="line" smooth="yes"/>
			<point x="371" y="401"/>
			<point x="372" y="413"/>
			<point x="372" y="438" type="curve" smooth="yes"/>
			<point x="372" y="469"/>
			<point x="361" y="508"/>
		</contour>
		<contour>
			<point x="316" y="1000" type="curve" smooth="yes"/>
			<point x="231" y="1000"/>
			<point x="155" y="930"/>
			<point x="155" y="836" type="curve" smooth="yes"/>
			<point x="155" y="745"/>
			<point x="209" y="686"/>
			<point x="294" y="686" type="curve" smooth="yes"/>
			<point x="379" y="686"/>
			<point x="454" y="757"/>
			<point x="454" y="852" type="curve" smooth="yes"/>
			<point x="454" y="941"/>
			<point x="401" y="1000"/>
		</contour>
	</outline>
</glyph>
<glyph name="cent" format="2">
	<unicode hex="00A2"/>
	<advance width="1200"/>
	<outline>
		<contour>
			<point x="583" y="310" type="curve" smooth="yes"/>
			<point x="714" y="310"/>
			<point x="820" y="351"/>
			<point x="894" y="417" type="curve" smooth="yes"/>
			<point x="934" y="453"/>
			<point x="949" y="481"/>
			<point x="949" y="509" type="curve" smooth="yes"/>
			<point x="949" y="546"/>
			<point x="904" y="590"/>
			<point x="871" y="590" type="curve" smooth="yes"/>
			<point x="853" y="590"/>
			<point x="839" y="584"/>
			<point x="801" y="557" type="curve" smooth="yes"/>
			<point x="748" y="520"/>
			<point x="685" y="490"/>
			<point x="617" y="490" type="curve" smooth="yes"/>
			<point x="491" y="490"/>
			<point x="427" y="565"/>
			<point x="427" y="760" type="curve" smooth="yes"/>
			<point x="427" y="1002"/>
			<point x="540" y="1148"/>
			<point x="681" y="1148" type="curve" smooth="yes"/>
			<point x="738" y="1148"/>
			<point x="791" y="1126"/>
			<point x="842" y="1098" type="curve" smooth="yes"/>
			<point x="865" y="1085"/>
			<point x="880" y="1078"/>
			<point x="900" y="1078" type="curve" smooth="yes"/>
			<point x="941" y="1078"/>
			<point x="985" y="1134"/>
			<point x="985" y="1174" type="curve" smooth="yes"/>
			<point x="985" y="1207"/>
			<point x="955" y="1243"/>
			<point x="909" y="1271" type="curve" smooth="yes"/>
			<point x="853" y="1306"/>
			<point x="773" y="1322"/>
			<point x="679" y="1322" type="curve" smooth="yes"/>
			<point x="419" y="1322"/>
			<point x="202" y="1074"/>
			<point x="202" y="749" type="curve" smooth="yes"/>
			<point x="202" y="480"/>
			<point x="383" y="310"/>
		</contour>
		<contour>
			<point x="591" y="120" type="curve" smooth="yes"/>
			<point x="646" y="120"/>
			<point x="669" y="135"/>
			<point x="675" y="189" type="curve" smooth="yes"/>
			<point x="809" y="1412" type="line" smooth="yes"/>
			<point x="812" y="1439"/>
			<point x="813" y="1451"/>
			<point x="813" y="1462" type="curve" smooth="yes"/>
			<point x="812" y="1488"/>
			<point x="766" y="1510"/>
			<point x="698" y="1510" type="curve" smooth="yes"/>
			<point x="643" y="1510"/>
			<point x="620" y="1495"/>
			<point x="613" y="1432" type="curve" smooth="yes"/>
			<point x="480" y="238" type="line" smooth="yes"/>
			<point x="479" y="226"/>
			<point x="476" y="204"/>
			<point x="476" y="179" type="curve" smooth="yes"/>
			<point x="476" y="147"/>
			<point x="523" y="120"/>
		</contour>
	</outline>
</glyph>
<glyph name="yen" format="2">
	<unicode hex="00A5"/>
	<advance width="1200"/>
	<outline>
		<contour>
			<point x="531" y="-12" type="curve" smooth="yes"/>
			<point x="612" y="-12"/>
			<point x="658" y="2"/>
			<point x="662" y="66" type="curve" smooth="yes"/>
			<point x="702" y="643" type="line"/>
			<point x="1151" y="1398" type="line" smooth="yes"/>
			<point x="1177" y="1442"/>
			<point x="1190" y="1465"/>
			<point x="1190" y="1486" type="curve" smooth="yes"/>
			<point x="1190" y="1555"/>
			<point x="1122" y="1600"/>
			<point x="1047" y="1600" type="curve" smooth="yes"/>
			<point x="1014" y="1600"/>
			<point x="990" y="1591"/>
			<point x="959" y="1536" type="curve" smooth="yes"/>
			<point x="590" y="882" type="line"/>
			<point x="336" y="1511" type="line" smooth="yes"/>
			<point x="308" y="1581"/>
			<point x="288" y="1600"/>
			<point x="242" y="1600" type="curve" smooth="yes"/>
			<point x="169" y="1600"/>
			<point x="80" y="1545"/>
			<point x="80" y="1490" type="curve" smooth="yes"/>
			<point x="80" y="1467"/>
			<point x="91" y="1438"/>
			<point x="115" y="1385" type="curve" smooth="yes"/>
			<point x="451" y="641" type="line"/>
			<point x="416" y="149" type="line" smooth="yes"/>
			<point x="414" y="123"/>
			<point x="412" y="86"/>
			<point x="412" y="71" type="curve" smooth="yes"/>
			<point x="412" y="7"/>
			<point x="439" y="-12"/>
		</contour>
		<contour>
			<point x="160" y="717" type="curve" smooth="yes"/>
			<point x="498" y="717" type="line"/>
			<point x="397" y="932" type="line"/>
			<point x="172" y="932" type="line" smooth="yes"/>
			<point x="107" y="932"/>
			<point x="73" y="898"/>
			<point x="73" y="810" type="curve" smooth="yes"/>
			<point x="73" y="747"/>
			<point x="95" y="717"/>
		</contour>
		<contour>
			<point x="1021" y="932" type="curve" smooth="yes"/>
			<point x="797" y="932" type="line"/>
			<point x="698" y="717" type="line"/>
			<point x="1005" y="717" type="line" smooth="yes"/>
			<point x="1076" y="717"/>
			<point x="1116" y="747"/>
			<point x="1116" y="830" type="curve" smooth="yes"/>
			<point x="1116" y="898"/>
			<point x="1091" y="932"/>
		</contour>
		<contour>
			<point x="137" y="338" type="curve" smooth="yes"/>
			<point x="981" y="338" type="line" smooth="yes"/>
			<point x="1052" y="338"/>
			<point x="1092" y="368"/>
			<point x="1092" y="451" type="curve" smooth="yes"/>
			<point x="1092" y="519"/>
			<point x="1067" y="553"/>
			<point x="997" y="553" type="curve" smooth="yes"/>
			<point x="149" y="553" type="line" smooth="yes"/>
			<point x="84" y="553"/>
			<point x="50" y="518"/>
			<point x="50" y="431" type="curve" smooth="yes"/>
			<point x="50" y="367"/>
			<point x="72" y="338"/>
		</contour>
	</outline>
</glyph>
<glyph name="threesuperior" format="2">
	<unicode hex="00B3"/>
	<advance width="780"/>
	<outline>
		<contour>
			<point x="372" y="985" type="curve" smooth="yes"/>
			<point x="587" y="985"/>
			<point x="708" y="1084"/>
			<point x="708" y="1220" type="curve" smooth="yes"/>
			<point x="708" y="1321"/>
			<point x="633" y="1401"/>
			<point x="521" y="1433" type="curve"/>
			<point x="519" y="1392" type="line"/>
			<point x="652" y="1440"/>
			<point x="710" y="1514"/>
			<point x="710" y="1609" type="curve" smooth="yes"/>
			<point x="710" y="1746"/>
			<point x="590" y="1838"/>
			<point x="409" y="1838" type="curve" smooth="yes"/>
			<point x="317" y="1838"/>
			<point x="224" y="1819"/>
			<point x="156" y="1789" type="curve" smooth="yes"/>
			<point x="93" y="1761"/>
			<point x="80" y="1742"/>
			<point x="80" y="1704" type="curve" smooth="yes"/>
			<point x="80" y="1657"/>
			<point x="120" y="1609"/>
			<point x="161" y="1609" type="curve" smooth="yes"/>
			<point x="182" y="1609"/>
			<point x="194" y="1614"/>
			<point x="233" y="1625" type="curve" smooth="yes"/>
			<point x="294" y="1642"/>
			<point x="335" y="1653"/>
			<point x="385" y="1653" type="curve" smooth="yes"/>
			<point x="459" y="1653"/>
			<point x="510" y="1614"/>
			<point x="510" y="1561" type="curve" smooth="yes"/>
			<point x="510" y="1532"/>
			<point x="494" y="1507"/>
			<point x="434" y="1482" type="curve"/>
			<point x="360" y="1506"/>
			<point x="327" y="1512"/>
			<point x="294" y="1512" type="curve" smooth="yes"/>
			<point x="233" y="1512"/>
			<point x="188" y="1473"/>
			<point x="188" y="1421" type="curve" smooth="yes"/>
			<point x="188" y="1358"/>
			<point x="236" y="1323"/>
			<point x="303" y="1323" type="curve" smooth="yes"/>
			<point x="327" y="1323"/>
			<point x="353" y="1325"/>
			<point x="404" y="1337" type="curve"/>
			<point x="473" y="1317"/>
			<point x="508" y="1283"/>
			<point x="508" y="1246" type="curve" smooth="yes"/>
			<point x="508" y="1208"/>
			<point x="468" y="1170"/>
			<point x="382" y="1170" type="curve" smooth="yes"/>
			<point x="314" y="1170"/>
			<point x="243" y="1193"/>
			<point x="191" y="1210" type="curve" smooth="yes"/>
			<point x="144" y="1226"/>
			<point x="125" y="1229"/>
			<point x="109" y="1229" type="curve" smooth="yes"/>
			<point x="72" y="1229"/>
			<point x="37" y="1172"/>
			<point x="37" y="1128" type="curve" smooth="yes"/>
			<point x="37" y="1088"/>
			<point x="54" y="1070"/>
			<point x="102" y="1045" type="curve" smooth="yes"/>
			<point x="164" y="1013"/>
			<point x="275" y="985"/>
		</contour>
	</outline>
</glyph>
<glyph name="onesuperior" format="2">
	<unicode hex="00B9"/>
	<advance width="588"/>
	<outline>
		<contour>
			<point x="340" y="985" type="curve" smooth="yes"/>
			<point x="424" y="985"/>
			<point x="454" y="1007"/>
			<point x="458" y="1062" type="curve" smooth="yes"/>
			<point x="507" y="1731" type="line" smooth="yes"/>
			<point x="507" y="1737"/>
			<point x="508" y="1748"/>
			<point x="508" y="1756" type="curve" smooth="yes"/>
			<point x="508" y="1803"/>
			<point x="477" y="1838"/>
			<point x="425" y="1838" type="curve" smooth="yes"/>
			<point x="408" y="1838"/>
			<point x="389" y="1836"/>
			<point x="359" y="1819" type="curve" smooth="yes"/>
			<point x="292" y="1781"/>
			<point x="151" y="1706"/>
			<point x="86" y="1670" type="curve" smooth="yes"/>
			<point x="43" y="1646"/>
			<point x="30" y="1631"/>
			<point x="30" y="1596" type="curve" smooth="yes"/>
			<point x="30" y="1541"/>
			<point x="71" y="1489"/>
			<point x="110" y="1489" type="curve" smooth="yes"/>
			<point x="125" y="1489"/>
			<point x="139" y="1492"/>
			<point x="180" y="1510" type="curve" smooth="yes"/>
			<point x="217" y="1526"/>
			<point x="319" y="1577"/>
			<point x="337" y="1595" type="curve"/>
			<point x="299" y="1590" type="line"/>
			<point x="248" y="1105" type="line" smooth="yes"/>
			<point x="246" y="1086"/>
			<point x="245" y="1072"/>
			<point x="245" y="1053" type="curve" smooth="yes"/>
			<point x="245" y="1006"/>
			<point x="280" y="985"/>
		</contour>
	</outline>
</glyph>
<glyph name="multiply" format="2">
	<unicode hex="00D7"/>
	<advance width="1200"/>
	<outline>
		<contour>
			<point x="266" y="360" type="curve" smooth="yes"/>
			<point x="306" y="360"/>
			<point x="335" y="394"/>
			<point x="367" y="426" type="curve" smooth="yes"/>
			<point x="975" y="1031" type="line" smooth="yes"/>
			<point x="1006" y="1062"/>
			<point x="1017" y="1087"/>
			<point x="1017" y="1107" type="curve" smooth="yes"/>
			<point x="1017" y="1159"/>
			<point x="942" y="1231"/>
			<point x="894" y="1231" type="curve" smooth="yes"/>
			<point x="857" y="1231"/>
			<point x="825" y="1190"/>
			<point x="791" y="1156" type="curve" smooth="yes"/>
			<point x="177" y="546" type="line" smooth="yes"/>
			<point x="155" y="524"/>
			<point x="146" y="505"/>
			<point x="146" y="486" type="curve" smooth="yes"/>
			<point x="146" y="435"/>
			<point x="207" y="360"/>
		</contour>
		<contour>
			<point x="897" y="360" type="curve" smooth="yes"/>
			<point x="956" y="360"/>
			<point x="1017" y="436"/>
			<point x="1017" y="484" type="curve" smooth="yes"/>
			<point x="1017" y="505"/>
			<point x="1005" y="526"/>
			<point x="986" y="546" type="curve" smooth="yes"/>
			<point x="412" y="1156" type="line" smooth="yes"/>
			<point x="383" y="1187"/>
			<point x="347" y="1231"/>
			<point x="310" y="1231" type="curve" smooth="yes"/>
			<point x="262" y="1231"/>
			<point x="186" y="1159"/>
			<point x="186" y="1107" type="curve" smooth="yes"/>
			<point x="186" y="1087"/>
			<point x="197" y="1064"/>
			<point x="228" y="1031" type="curve" smooth="yes"/>
			<point x="796" y="426" type="line" smooth="yes"/>
			<point x="827" y="393"/>
			<point x="858" y="360"/>
		</contour>
	</outline>
</glyph>
<glyph name="Oslash" format="2">
	<unicode hex="00D8"/>
	<advance width="1392"/>
	<outline>
		<contour>
			<point x="618" y="-12" type="curve" smooth="yes"/>
			<point x="987" y="-12"/>
			<point x="1302" y="355"/>
			<point x="1302" y="923" type="curve" smooth="yes"/>
			<point x="1302" y="1119"/>
			<point x="1263" y="1272"/>
			<point x="1195" y="1385" type="curve"/>
			<point x="1244" y="1461" type="line" smooth="yes"/>
			<point x="1272" y="1506"/>
			<point x="1278" y="1517"/>
			<point x="1278" y="1537" type="curve" smooth="yes"/>
			<point x="1278" y="1582"/>
			<point x="1226" y="1634"/>
			<point x="1163" y="1634" type="curve" smooth="yes"/>
			<point x="1142" y="1634"/>
			<point x="1125" y="1622"/>
			<point x="1101" y="1584" type="curve" smooth="yes"/>
			<point x="1067" y="1529" type="line"/>
			<point x="984" y="1594"/>
			<point x="883" y="1625"/>
			<point x="771" y="1625" type="curve" smooth="yes"/>
			<point x="405" y="1625"/>
			<point x="90" y="1261"/>
			<point x="90" y="693" type="curve" smooth="yes"/>
			<point x="90" y="468"/>
			<point x="141" y="298"/>
			<point x="229" y="181" type="curve"/>
			<point x="174" y="98" type="line" smooth="yes"/>
			<point x="161" y="78"/>
			<point x="155" y="64"/>
			<point x="155" y="45" type="curve" smooth="yes"/>
			<point x="155" y="-7"/>
			<point x="213" y="-45"/>
			<point x="262" y="-45" type="curve" smooth="yes"/>
			<point x="299" y="-45"/>
			<point x="309" y="-36"/>
			<point x="329" y="-4" type="curve" smooth="yes"/>
			<point x="365" y="57" type="line"/>
			<point x="439" y="10"/>
			<point x="525" y="-12"/>
		</contour>
		<contour>
			<point x="345" y="728" type="curve" smooth="yes"/>
			<point x="345" y="1118"/>
			<point x="536" y="1380"/>
			<point x="748" y="1380" type="curve" smooth="yes"/>
			<point x="819" y="1380"/>
			<point x="882" y="1359"/>
			<point x="931" y="1313" type="curve"/>
			<point x="383" y="434" type="line"/>
			<point x="359" y="511"/>
			<point x="345" y="607"/>
		</contour>
		<contour>
			<point x="497" y="266" type="curve"/>
			<point x="1023" y="1114" type="line"/>
			<point x="1039" y="1049"/>
			<point x="1047" y="975"/>
			<point x="1047" y="887" type="curve" smooth="yes"/>
			<point x="1047" y="497"/>
			<point x="856" y="233"/>
			<point x="644" y="233" type="curve" smooth="yes"/>
			<point x="584" y="233"/>
			<point x="534" y="244"/>
		</contour>
	</outline>
	<anchor name="bottom" x="628" y="-12"/>
	<anchor name="center" x="691" y="784"/>
	<anchor name="ogonek" x="1036" y="10"/>
	<anchor name="top" x="769" y="1600"/>
	<anchor name="topleft" x="269" y="1434"/>
	<anchor name="topright" x="1380" y="1600"/>
</glyph>
<glyph name="Aogonek" format="2">
	<unicode hex="0104"/>
	<advance width="1318"/>
	<outline>
		<contour>
			<point x="153" y="-12" type="curve" smooth="yes"/>
			<point x="187" y="-12"/>
			<point x="216" y="5"/>
			<point x="239" y="66" type="curve" smooth="yes"/>
			<point x="683" y="1245" type="line"/>
			<point x="660" y="1246" type="line"/>
			<point x="992" y="-4" type="line"/>
			<point x="890" y="-97"/>
			<point x="834" y="-199"/>
			<point x="834" y="-309" type="curve" smooth="yes"/>
			<point x="834" y="-413"/>
			<point x="909" y="-485"/>
			<point x="1034" y="-485" type="curve" smooth="yes"/>
			<point x="1115" y="-485"/>
			<point x="1197" y="-443"/>
			<point x="1247" y="-398" type="curve" smooth="yes"/>
			<point x="1283" y="-366"/>
			<point x="1288" y="-336"/>
			<point x="1288" y="-322" type="curve" smooth="yes"/>
			<point x="1288" y="-262"/>
			<point x="1237" y="-223"/>
			<point x="1195" y="-223" type="curve" smooth="yes"/>
			<point x="1183" y="-223"/>
			<point x="1173" y="-226"/>
			<point x="1151" y="-241" type="curve" smooth="yes"/>
			<point x="1124" y="-260"/>
			<point x="1095" y="-274"/>
			<point x="1068" y="-274" type="curve" smooth="yes"/>
			<point x="1041" y="-274"/>
			<point x="1026" y="-261"/>
			<point x="1026" y="-226" type="curve" smooth="yes"/>
			<point x="1026" y="-157"/>
			<point x="1078" y="-85"/>
			<point x="1166" y="-5" type="curve" smooth="yes"/>
			<point x="1208" y="33"/>
			<point x="1216" y="54"/>
			<point x="1216" y="77" type="curve" smooth="yes"/>
			<point x="1216" y="99"/>
			<point x="1212" y="120"/>
			<point x="1205" y="147" type="curve" smooth="yes"/>
			<point x="841" y="1495" type="line" smooth="yes"/>
			<point x="820" y="1574"/>
			<point x="779" y="1600"/>
			<point x="714" y="1600" type="curve" smooth="yes"/>
			<point x="694" y="1600" type="line" smooth="yes"/>
			<point x="623" y="1600"/>
			<point x="588" y="1576"/>
			<point x="557" y="1499" type="curve" smooth="yes"/>
			<point x="18" y="148" type="line" smooth="yes"/>
			<point x="7" y="121"/>
			<point x="0" y="100"/>
			<point x="0" y="81" type="curve" smooth="yes"/>
			<point x="0" y="33"/>
			<point x="71" y="-12"/>
		</contour>
		<contour>
			<point x="306" y="446" type="line"/>
			<point x="915" y="446" type="line"/>
			<point x="920" y="666" type="line"/>
			<point x="321" y="666" type="line"/>
		</contour>
	</outline>
	<anchor name="bottom" x="599" y="0"/>
	<anchor name="top" x="694" y="1600"/>
	<anchor name="topleft" x="252" y="1600"/>
</glyph>
<glyph name="eogonek" format="2">
	<unicode hex="0119"/>
	<advance width="966"/>
	<outline>
		<contour>
			<point x="572" y="-226" type="curve" smooth="yes"/>
			<point x="572" y="-162"/>
			<point x="615" y="-80"/>
			<point x="756" y="46" type="curve" smooth="yes"/>
			<point x="872" y="151"/>
			<point x="883" y="187"/>
			<point x="883" y="210" type="curve" smooth="yes"/>
			<point x="883" y="253"/>
			<point x="829" y="302"/>
			<point x="795" y="302" type="curve" smooth="yes"/>
			<point x="783" y="302"/>
			<point x="767" y="300"/>
			<point x="731" y="270" type="curve" smooth="yes"/>
			<point x="671" y="219"/>
			<point x="600" y="188"/>
			<point x="520" y="188" type="curve" smooth="yes"/>
			<point x="387" y="188"/>
			<point x="325" y="266"/>
			<point x="325" y="438" type="curve" smooth="yes"/>
			<point x="325" y="665"/>
			<point x="429" y="829"/>
			<point x="549" y="829" type="curve" smooth="yes"/>
			<point x="613" y="829"/>
			<point x="646" y="790"/>
			<point x="646" y="715" type="curve" smooth="yes"/>
			<point x="646" y="605"/>
			<point x="535" y="523"/>
			<point x="257" y="507" type="curve" smooth="yes"/>
			<point x="210" y="504"/>
			<point x="181" y="485"/>
			<point x="181" y="444" type="curve" smooth="yes"/>
			<point x="181" y="397"/>
			<point x="208" y="361"/>
			<point x="242" y="362" type="curve" smooth="yes"/>
			<point x="662" y="378"/>
			<point x="891" y="523"/>
			<point x="891" y="745" type="curve" smooth="yes"/>
			<point x="891" y="895"/>
			<point x="770" y="999"/>
			<point x="590" y="999" type="curve" smooth="yes"/>
			<point x="299" y="999"/>
			<point x="80" y="752"/>
			<point x="80" y="427" type="curve" smooth="yes"/>
			<point x="80" y="158"/>
			<point x="243" y="-12"/>
			<point x="502" y="-12" type="curve" smooth="yes"/>
			<point x="556" y="-12"/>
			<point x="609" y="-3"/>
			<point x="657" y="12" type="curve"/>
			<point x="657" y="59" type="line"/>
			<point x="532" y="4"/>
			<point x="380" y="-132"/>
			<point x="380" y="-309" type="curve" smooth="yes"/>
			<point x="380" y="-413"/>
			<point x="455" y="-485"/>
			<point x="580" y="-485" type="curve" smooth="yes"/>
			<point x="661" y="-485"/>
			<point x="745" y="-445"/>
			<point x="793" y="-398" type="curve" smooth="yes"/>
			<point x="829" y="-365"/>
			<point x="834" y="-336"/>
			<point x="834" y="-322" type="curve" smooth="yes"/>
			<point x="834" y="-262"/>
			<point x="783" y="-223"/>
			<point x="741" y="-223" type="curve" smooth="yes"/>
			<point x="729" y="-223"/>
			<point x="719" y="-226"/>
			<point x="697" y="-241" type="curve" smooth="yes"/>
			<point x="670" y="-260"/>
			<point x="641" y="-274"/>
			<point x="614" y="-274" type="curve" smooth="yes"/>
			<point x="587" y="-274"/>
			<point x="572" y="-261"/>
		</contour>
	</outline>
	<anchor name="bottom" x="510" y="0"/>
	<anchor name="top" x="584" y="985"/>
</glyph>
<glyph name="eng" format="2">
	<unicode hex="014B"/>
	<advance width="1091"/>
	<outline>
		<contour>
			<point x="215" y="-12" type="curve" smooth="yes"/>
			<point x="298" y="-12"/>
			<point x="337" y="9"/>
			<point x="340" y="64" type="curve" smooth="yes"/>
			<point x="341" y="100"/>
			<point x="343" y="137"/>
			<point x="344" y="173" type="curve"/>
			<point x="408" y="550"/>
			<point x="576" y="770"/>
			<point x="691" y="770" type="curve" smooth="yes"/>
			<point x="738" y="770"/>
			<point x="759" y="744"/>
			<point x="759" y="680" type="curve" smooth="yes"/>
			<point x="759" y="651"/>
			<point x="756" y="622"/>
			<point x="751" y="568" type="curve" smooth="yes"/>
			<point x="701" y="-12" type="line" smooth="yes"/>
			<point x="683" y="-228"/>
			<point x="648" y="-272"/>
			<point x="567" y="-272" type="curve" smooth="yes"/>
			<point x="529" y="-272"/>
			<point x="495" y="-260"/>
			<point x="470" y="-248" type="curve" smooth="yes"/>
			<point x="450" y="-238"/>
			<point x="443" y="-235"/>
			<point x="428" y="-235" type="curve" smooth="yes"/>
			<point x="398" y="-235"/>
			<point x="343" y="-287"/>
			<point x="343" y="-351" type="curve" smooth="yes"/>
			<point x="343" y="-397"/>
			<point x="442" y="-467"/>
			<point x="582" y="-467" type="curve" smooth="yes"/>
			<point x="780" y="-467"/>
			<point x="922" y="-329"/>
			<point x="944" y="-27" type="curve" smooth="yes"/>
			<point x="985" y="550" type="line" smooth="yes"/>
			<point x="993" y="659"/>
			<point x="996" y="704"/>
			<point x="996" y="769" type="curve" smooth="yes"/>
			<point x="996" y="918"/>
			<point x="910" y="1000"/>
			<point x="789" y="1000" type="curve" smooth="yes"/>
			<point x="631" y="1000"/>
			<point x="470" y="861"/>
			<point x="354" y="551" type="curve"/>
			<point x="364" y="548" type="line"/>
			<point x="393" y="844" type="line" smooth="yes"/>
			<point x="397" y="887"/>
			<point x="400" y="910"/>
			<point x="400" y="927" type="curve" smooth="yes"/>
			<point x="400" y="982"/>
			<point x="372" y="1000"/>
			<point x="285" y="1000" type="curve" smooth="yes"/>
			<point x="189" y="1000"/>
			<point x="163" y="987"/>
			<point x="156" y="890" type="curve" smooth="yes"/>
			<point x="105" y="146" type="line" smooth="yes"/>
			<point x="103" y="121"/>
			<point x="100" y="87"/>
			<point x="100" y="67" type="curve" smooth="yes"/>
			<point x="100" y="11"/>
			<point x="128" y="-12"/>
		</contour>
	</outline>
</glyph>
<glyph name="OE" format="2">
	<unicode hex="0152"/>
	<advance width="2023"/>
	<outline>
		<contour>
			<point x="627" y="-12" type="curve" smooth="yes"/>
			<point x="793" y="-12"/>
			<point x="980" y="92"/>
			<point x="1070" y="287" type="curve"/>
			<point x="1059" y="289" type="line"/>
			<point x="1045" y="249"/>
			<point x="1036" y="202"/>
			<point x="1032" y="168" type="curve" smooth="yes"/>
			<point x="1029" y="143" type="line" smooth="yes"/>
			<point x="1027" y="124"/>
			<point x="1027" y="107"/>
			<point x="1027" y="98" type="curve" smooth="yes"/>
			<point x="1025" y="26"/>
			<point x="1059" y="-12"/>
			<point x="1162" y="-12" type="curve" smooth="yes"/>
			<point x="1308" y="-12"/>
			<point x="1713" y="-9"/>
			<point x="1832" y="-5" type="curve" smooth="yes"/>
			<point x="1902" y="-3"/>
			<point x="1925" y="55"/>
			<point x="1925" y="157" type="curve" smooth="yes"/>
			<point x="1925" y="201"/>
			<point x="1900" y="236"/>
			<point x="1843" y="236" type="curve" smooth="yes"/>
			<point x="1769" y="236"/>
			<point x="1457" y="231"/>
			<point x="1276" y="228" type="curve"/>
			<point x="1308" y="685" type="line"/>
			<point x="1420" y="685"/>
			<point x="1714" y="688"/>
			<point x="1756" y="690" type="curve" smooth="yes"/>
			<point x="1817" y="691"/>
			<point x="1846" y="734"/>
			<point x="1846" y="831" type="curve" smooth="yes"/>
			<point x="1846" y="882"/>
			<point x="1827" y="930"/>
			<point x="1779" y="930" type="curve" smooth="yes"/>
			<point x="1694" y="930"/>
			<point x="1394" y="923"/>
			<point x="1324" y="921" type="curve"/>
			<point x="1355" y="1360" type="line"/>
			<point x="1860" y="1360" type="line" smooth="yes"/>
			<point x="1925" y="1360"/>
			<point x="1963" y="1414"/>
			<point x="1963" y="1510" type="curve" smooth="yes"/>
			<point x="1963" y="1571"/>
			<point x="1933" y="1600"/>
			<point x="1877" y="1600" type="curve" smooth="yes"/>
			<point x="1261" y="1600" type="line" smooth="yes"/>
			<point x="1183" y="1600"/>
			<point x="1137" y="1564"/>
			<point x="1129" y="1499" type="curve" smooth="yes"/>
			<point x="1126" y="1475" type="line" smooth="yes"/>
			<point x="1125" y="1459"/>
			<point x="1121" y="1440"/>
			<point x="1121" y="1375" type="curve"/>
			<point x="1142" y="1379" type="line"/>
			<point x="1110" y="1499"/>
			<point x="956" y="1625"/>
			<point x="782" y="1625" type="curve" smooth="yes"/>
			<point x="410" y="1625"/>
			<point x="90" y="1261"/>
			<point x="90" y="693" type="curve" smooth="yes"/>
			<point x="90" y="217"/>
			<point x="320" y="-12"/>
		</contour>
		<contour>
			<point x="653" y="233" type="curve" smooth="yes"/>
			<point x="483" y="233"/>
			<point x="350" y="368"/>
			<point x="350" y="728" type="curve" smooth="yes"/>
			<point x="350" y="1118"/>
			<point x="544" y="1380"/>
			<point x="759" y="1380" type="curve" smooth="yes"/>
			<point x="929" y="1380"/>
			<point x="1062" y="1247"/>
			<point x="1062" y="887" type="curve" smooth="yes"/>
			<point x="1062" y="497"/>
			<point x="868" y="233"/>
		</contour>
	</outline>
	<anchor name="bottom" x="982" y="0"/>
	<anchor name="top" x="1088" y="1600"/>
</glyph>
<glyph name="Uogonek" format="2">
	<unicode hex="0172"/>
	<advance width="1333"/>
	<outline>
		<contour>
			<point x="452" y="-12" type="curve" smooth="yes"/>
			<point x="653" y="-12"/>
			<point x="833" y="144"/>
			<point x="942" y="480" type="curve"/>
			<point x="933" y="408"/>
			<point x="925" y="334"/>
			<point x="920" y="272" type="curve" smooth="yes"/>
			<point x="909" y="138" type="line" smooth="yes"/>
			<point x="906" y="101"/>
			<point x="905" y="84"/>
			<point x="905" y="70" type="curve" smooth="yes"/>
			<point x="905" y="29"/>
			<point x="922" y="5"/>
			<point x="951" y="-4" type="curve"/>
			<point x="844" y="-105"/>
			<point x="793" y="-203"/>
			<point x="793" y="-309" type="curve" smooth="yes"/>
			<point x="793" y="-413"/>
			<point x="868" y="-485"/>
			<point x="993" y="-485" type="curve" smooth="yes"/>
			<point x="1074" y="-485"/>
			<point x="1158" y="-445"/>
			<point x="1206" y="-398" type="curve" smooth="yes"/>
			<point x="1242" y="-365"/>
			<point x="1247" y="-336"/>
			<point x="1247" y="-322" type="curve" smooth="yes"/>
			<point x="1247" y="-262"/>
			<point x="1196" y="-223"/>
			<point x="1154" y="-223" type="curve" smooth="yes"/>
			<point x="1142" y="-223"/>
			<point x="1132" y="-226"/>
			<point x="1110" y="-241" type="curve" smooth="yes"/>
			<point x="1083" y="-260"/>
			<point x="1054" y="-274"/>
			<point x="1027" y="-274" type="curve" smooth="yes"/>
			<point x="1000" y="-274"/>
			<point x="985" y="-261"/>
			<point x="985" y="-226" type="curve" smooth="yes"/>
			<point x="985" y="-158"/>
			<point x="1036" y="-86"/>
			<point x="1109" y="-20" type="curve" smooth="yes"/>
			<point x="1149" y="16"/>
			<point x="1153" y="43"/>
			<point x="1155" y="66" type="curve" smooth="yes"/>
			<point x="1249" y="1453" type="line" smooth="yes"/>
			<point x="1252" y="1497"/>
			<point x="1253" y="1514"/>
			<point x="1253" y="1524" type="curve" smooth="yes"/>
			<point x="1253" y="1578"/>
			<point x="1223" y="1600"/>
			<point x="1136" y="1600" type="curve" smooth="yes"/>
			<point x="1035" y="1600"/>
			<point x="1005" y="1570"/>
			<point x="1000" y="1497" type="curve" smooth="yes"/>
			<point x="959" y="902" type="line"/>
			<point x="788" y="364"/>
			<point x="661" y="228"/>
			<point x="509" y="228" type="curve" smooth="yes"/>
			<point x="393" y="228"/>
			<point x="350" y="288"/>
			<point x="350" y="435" type="curve" smooth="yes"/>
			<point x="350" y="467"/>
			<point x="352" y="515"/>
			<point x="355" y="555" type="curve" smooth="yes"/>
			<point x="423" y="1453" type="line" smooth="yes"/>
			<point x="424" y="1466"/>
			<point x="428" y="1497"/>
			<point x="428" y="1519" type="curve" smooth="yes"/>
			<point x="428" y="1570"/>
			<point x="411" y="1600"/>
			<point x="310" y="1600" type="curve" smooth="yes"/>
			<point x="207" y="1600"/>
			<point x="178" y="1567"/>
			<point x="173" y="1497" type="curve" smooth="yes"/>
			<point x="110" y="615" type="line" smooth="yes"/>
			<point x="104" y="531"/>
			<point x="100" y="466"/>
			<point x="100" y="417" type="curve" smooth="yes"/>
			<point x="100" y="145"/>
			<point x="235" y="-12"/>
		</contour>
	</outline>
	<anchor name="bottom" x="591" y="0"/>
	<anchor name="ogonek" x="1080" y="0"/>
	<anchor name="top" x="721" y="1600"/>
	<anchor name="topright" x="1250" y="1600"/>
</glyph>
<glyph name="uogonek" format="2">
	<unicode hex="0173"/>
	<advance width="1071"/>
	<outline>
		<contour>
			<point x="832" y="-37" type="curve" smooth="yes"/>
			<point x="884" y="10"/>
			<point x="899" y="34"/>
			<point x="904" y="107" type="curve" smooth="yes"/>
			<point x="957" y="864" type="line" smooth="yes"/>
			<point x="959" y="890"/>
			<point x="961" y="921"/>
			<point x="961" y="937" type="curve" smooth="yes"/>
			<point x="961" y="984"/>
			<point x="937" y="1000"/>
			<point x="845" y="1000" type="curve" smooth="yes"/>
			<point x="754" y="1000"/>
			<point x="722" y="988"/>
			<point x="717" y="900" type="curve" smooth="yes"/>
			<point x="714" y="852" type="line"/>
			<point x="651" y="369"/>
			<point x="532" y="198"/>
			<point x="435" y="198" type="curve" smooth="yes"/>
			<point x="370" y="198"/>
			<point x="340" y="228"/>
			<point x="340" y="307" type="curve" smooth="yes"/>
			<point x="340" y="334"/>
			<point x="343" y="383"/>
			<point x="348" y="442" type="curve" smooth="yes"/>
			<point x="381" y="864" type="line" smooth="yes"/>
			<point x="384" y="902"/>
			<point x="386" y="922"/>
			<point x="386" y="937" type="curve" smooth="yes"/>
			<point x="386" y="984"/>
			<point x="358" y="1000"/>
			<point x="271" y="1000" type="curve" smooth="yes"/>
			<point x="175" y="1000"/>
			<point x="148" y="988"/>
			<point x="142" y="900" type="curve" smooth="yes"/>
			<point x="107" y="400" type="line" smooth="yes"/>
			<point x="103" y="350"/>
			<point x="100" y="308"/>
			<point x="100" y="263" type="curve" smooth="yes"/>
			<point x="100" y="92"/>
			<point x="198" y="-12"/>
			<point x="343" y="-12" type="curve" smooth="yes"/>
			<point x="498" y="-12"/>
			<point x="627" y="117"/>
			<point x="690" y="335" type="curve"/>
			<point x="684" y="341" type="line"/>
			<point x="664" y="131" type="line" smooth="yes"/>
			<point x="663" y="114"/>
			<point x="661" y="94"/>
			<point x="661" y="77" type="curve" smooth="yes"/>
			<point x="661" y="14"/>
			<point x="696" y="-12"/>
			<point x="776" y="-12" type="curve"/>
			<point x="783" y="72" type="line"/>
			<point x="616" y="-55"/>
			<point x="535" y="-176"/>
			<point x="535" y="-309" type="curve" smooth="yes"/>
			<point x="535" y="-413"/>
			<point x="610" y="-485"/>
			<point x="735" y="-485" type="curve" smooth="yes"/>
			<point x="816" y="-485"/>
			<point x="900" y="-445"/>
			<point x="948" y="-398" type="curve" smooth="yes"/>
			<point x="984" y="-365"/>
			<point x="989" y="-336"/>
			<point x="989" y="-322" type="curve" smooth="yes"/>
			<point x="989" y="-262"/>
			<point x="938" y="-223"/>
			<point x="896" y="-223" type="curve" smooth="yes"/>
			<point x="884" y="-223"/>
			<point x="874" y="-226"/>
			<point x="852" y="-241" type="curve" smooth="yes"/>
			<point x="825" y="-260"/>
			<point x="796" y="-274"/>
			<point x="769" y="-274" type="curve" smooth="yes"/>
			<point x="742" y="-274"/>
			<point x="727" y="-261"/>
			<point x="727" y="-226" type="curve" smooth="yes"/>
			<point x="727" y="-157"/>
			<point x="779" y="-85"/>
		</contour>
	</outline>
	<anchor name="bottom" x="432" y="0"/>
	<anchor name="top" x="566" y="985"/>
	<anchor name="topright" x="852" y="985"/>
</glyph>
<glyph name="tildecomb" format="2">
	<unicode hex="0303"/>
	<outline>
		<contour>
			<point x="131" y="1119" type="curve" smooth="yes"/>
			<point x="154" y="1119"/>
			<point x="161" y="1130"/>
			<point x="185" y="1174" type="curve" smooth="yes"/>
			<point x="215" y="1229"/>
			<point x="232" y="1258"/>
			<point x="266" y="1258" type="curve" smooth="yes"/>
			<point x="287" y="1258"/>
			<point x="302" y="1245"/>
			<point x="341" y="1209" type="curve" smooth="yes"/>
			<point x="396" y="1158"/>
			<point x="432" y="1125"/>
			<point x="496" y="1125" type="curve" smooth="yes"/>
			<point x="580" y="1125"/>
			<point x="646" y="1182"/>
			<point x="701" y="1292" type="curve" smooth="yes"/>
			<point x="723" y="1336"/>
			<point x="732" y="1367"/>
			<point x="732" y="1384" type="curve" smooth="yes"/>
			<point x="732" y="1417"/>
			<point x="693" y="1449"/>
			<point x="652" y="1449" type="curve" smooth="yes"/>
			<point x="628" y="1449"/>
			<point x="621" y="1438"/>
			<point x="597" y="1394" type="curve" smooth="yes"/>
			<point x="571" y="1346"/>
			<point x="552" y="1311"/>
			<point x="516" y="1311" type="curve" smooth="yes"/>
			<point x="494" y="1311"/>
			<point x="479" y="1325"/>
			<point x="441" y="1360" type="curve" smooth="yes"/>
			<point x="389" y="1408"/>
			<point x="351" y="1444"/>
			<point x="285" y="1444" type="curve" smooth="yes"/>
			<point x="202" y="1444"/>
			<point x="135" y="1386"/>
			<point x="80" y="1275" type="curve" smooth="yes"/>
			<point x="58" y="1231"/>
			<point x="50" y="1200"/>
			<point x="50" y="1186" type="curve" smooth="yes"/>
			<point x="50" y="1151"/>
			<point x="89" y="1119"/>
		</contour>
	</outline>
	<anchor name="_top" x="350" y="985"/>
	<anchor name="top" x="429" y="1441"/>
</glyph>
<glyph name="macroncomb" format="2">
	<unicode hex="0304"/>
	<outline>
		<contour>
			<point x="321" y="1148" type="curve" smooth="yes"/>
			<point x="459" y="1148"/>
			<point x="545" y="1152"/>
			<point x="585" y="1163" type="curve" smooth="yes"/>
			<point x="622" y="1173"/>
			<point x="642" y="1205"/>
			<point x="642" y="1252" type="curve" smooth="yes"/>
			<point x="642" y="1306"/>
			<point x="624" y="1345"/>
			<point x="587" y="1345" type="curve" smooth="yes"/>
			<point x="554" y="1345"/>
			<point x="443" y="1339"/>
			<point x="352" y="1339" type="curve" smooth="yes"/>
			<point x="267" y="1339"/>
			<point x="141" y="1347"/>
			<point x="118" y="1347" type="curve" smooth="yes"/>
			<point x="71" y="1347"/>
			<point x="50" y="1298"/>
			<point x="50" y="1246" type="curve" smooth="yes"/>
			<point x="50" y="1198"/>
			<point x="74" y="1167"/>
			<point x="117" y="1159" type="curve" smooth="yes"/>
			<point x="154" y="1152"/>
			<point x="243" y="1148"/>
		</contour>
	</outline>
	<anchor name="_center" x="337" y="1222"/>
	<anchor name="_top" x="321" y="985"/>
	<anchor name="top" x="351" y="1305"/>
</glyph>
<glyph name="hungarumlautcomb" format="2">
	<unicode hex="030B"/>
	<outline>
		<contour>
			<point x="127" y="1085" type="curve" smooth="yes"/>
			<point x="170" y="1085"/>
			<point x="218" y="1131"/>
			<point x="277" y="1250" type="curve" smooth="yes"/>
			<point x="318" y="1331"/>
			<point x="340" y="1409"/>
			<point x="340" y="1454" type="curve" smooth="yes"/>
			<point x="340" y="1506"/>
			<point x="276" y="1539"/>
			<point x="221" y="1539" type="curve" smooth="yes"/>
			<point x="179" y="1539"/>
			<point x="155" y="1516"/>
			<point x="139" y="1441" type="curve" smooth="yes"/>
			<point x="114" y="1327"/>
			<point x="98" y="1280"/>
			<point x="78" y="1230" type="curve" smooth="yes"/>
			<point x="58" y="1180"/>
			<point x="50" y="1162"/>
			<point x="50" y="1142" type="curve" smooth="yes"/>
			<point x="50" y="1113"/>
			<point x="95" y="1085"/>
		</contour>
		<contour>
			<point x="376" y="1085" type="curve" smooth="yes"/>
			<point x="419" y="1085"/>
			<point x="467" y="1131"/>
			<point x="526" y="1250" type="curve" smooth="yes"/>
			<point x="567" y="1331"/>
			<point x="589" y="1409"/>
			<point x="589" y="1454" type="curve" smooth="yes"/>
			<point x="589" y="1506"/>
			<point x="525" y="1539"/>
			<point x="470" y="1539" type="curve" smooth="yes"/>
			<point x="428" y="1539"/>
			<point x="404" y="1516"/>
			<point x="388" y="1441" type="curve" smooth="yes"/>
			<point x="363" y="1327"/>
			<point x="347" y="1280"/>
			<point x="327" y="1230" type="curve" smooth="yes"/>
			<point x="307" y="1180"/>
			<point x="299" y="1162"/>
			<point x="299" y="1142" type="curve" smooth="yes"/>
			<point x="299" y="1113"/>
			<point x="344" y="1085"/>
		</contour>
	</outline>
	<anchor name="_top" x="242" y="985"/>
	<anchor name="top" x="370" y="1539"/>
</glyph>
<glyph name="caroncomb" format="2">
	<unicode hex="030C"/>
	<outline>
		<contour>
			<point x="563" y="1514" type="curve" smooth="yes"/>
			<point x="534" y="1514"/>
			<point x="510" y="1503"/>
			<point x="480" y="1468" type="curve" smooth="yes"/>
			<point x="300" y="1258" type="line"/>
			<point x="351" y="1242" type="line"/>
			<point x="243" y="1432" type="line" smooth="yes"/>
			<point x="206" y="1498"/>
			<point x="184" y="1514"/>
			<point x="148" y="1514" type="curve" smooth="yes"/>
			<point x="95" y="1514"/>
			<point x="48" y="1468"/>
			<point x="48" y="1425" type="curve" smooth="yes"/>
			<point x="48" y="1403"/>
			<point x="56" y="1385"/>
			<point x="82" y="1346" type="curve" smooth="yes"/>
			<point x="206" y="1158" type="line" smooth="yes"/>
			<point x="242" y="1103"/>
			<point x="267" y="1085"/>
			<point x="315" y="1085" type="curve" smooth="yes"/>
			<point x="351" y="1085"/>
			<point x="374" y="1092"/>
			<point x="428" y="1148" type="curve" smooth="yes"/>
			<point x="604" y="1331" type="line" smooth="yes"/>
			<point x="643" y="1369"/>
			<point x="656" y="1392"/>
			<point x="656" y="1425" type="curve" smooth="yes"/>
			<point x="656" y="1474"/>
			<point x="607" y="1514"/>
		</contour>
	</outline>
	<anchor name="_top" x="311" y="985"/>
	<anchor name="top" x="345" y="1514"/>
</glyph>
<glyph name="cedillacomb" format="2">
	<unicode hex="0327"/>
	<outline>
		<contour>
			<point x="72" y="-545" type="curve" smooth="yes"/>
			<point x="84" y="-545"/>
			<point x="103" y="-541"/>
			<point x="126" y="-533" type="curve" smooth="yes"/>
			<point x="288" y="-480"/>
			<point x="351" y="-398"/>
			<point x="351" y="-310" type="curve" smooth="yes"/>
			<point x="351" y="-244"/>
			<point x="319" y="-193"/>
			<point x="226" y="-144" type="curve" smooth="yes"/>
			<point x="188" y="-124"/>
			<point x="180" y="-115"/>
			<point x="180" y="-100" type="curve" smooth="yes"/>
			<point x="180" y="-82"/>
			<point x="188" y="-64"/>
			<point x="224" y="0" type="curve"/>
			<point x="137" y="56" type="line"/>
			<point x="55" y="-48"/>
			<point x="25" y="-101"/>
			<point x="25" y="-149" type="curve" smooth="yes"/>
			<point x="25" y="-187"/>
			<point x="41" y="-216"/>
			<point x="103" y="-249" type="curve" smooth="yes"/>
			<point x="157" y="-278"/>
			<point x="171" y="-287"/>
			<point x="171" y="-312" type="curve" smooth="yes"/>
			<point x="171" y="-336"/>
			<point x="133" y="-350"/>
			<point x="49" y="-375" type="curve" smooth="yes"/>
			<point x="10" y="-387"/>
			<point x="1" y="-416"/>
			<point x="1" y="-449" type="curve" smooth="yes"/>
			<point x="1" y="-500"/>
			<point x="33" y="-545"/>
		</contour>
	</outline>
	<anchor name="_bottom" x="166" y="0"/>
	<anchor name="bottom" x="114" y="-491"/>
</glyph>
<glyph name="slashlongcomb" format="2">
	<unicode hex="0338"/>
	<outline>
		<contour>
			<point x="204" y="-112" type="curve" smooth="yes"/>
			<point x="241" y="-112"/>
			<point x="251" y="-103"/>
			<point x="271" y="-71" type="curve" smooth="yes"/>
			<point x="868" y="855" type="line" smooth="yes"/>
			<point x="897" y="900"/>
			<point x="902" y="911"/>
			<point x="902" y="931" type="curve" smooth="yes"/>
			<point x="902" y="976"/>
			<point x="850" y="1028"/>
			<point x="787" y="1028" type="curve" smooth="yes"/>
			<point x="766" y="1028"/>
			<point x="749" y="1016"/>
			<point x="725" y="978" type="curve" smooth="yes"/>
			<point x="116" y="31" type="line" smooth="yes"/>
			<point x="103" y="11"/>
			<point x="97" y="-3"/>
			<point x="97" y="-22" type="curve" smooth="yes"/>
			<point x="97" y="-74"/>
			<point x="155" y="-112"/>
		</contour>
	</outline>
	<anchor name="_center" x="505" y="458"/>
</glyph>
<glyph name="endash" format="2">
	<unicode hex="2013"/>
	<advance width="1580"/>
	<outline>
		<contour>
			<point x="170" y="560" type="curve" smooth="yes"/>
			<point x="1405" y="560" type="line" smooth="yes"/>
			<point x="1448" y="560"/>
			<point x="1480" y="594"/>
			<point x="1480" y="675" type="curve" smooth="yes"/>
			<point x="1480" y="752"/>
			<point x="1456" y="790"/>
			<point x="1410" y="790" type="curve" smooth="yes"/>
			<point x="175" y="790" type="line" smooth="yes"/>
			<point x="132" y="790"/>
			<point x="100" y="753"/>
			<point x="100" y="659" type="curve" smooth="yes"/>
			<point x="100" y="593"/>
			<point x="125" y="560"/>
		</contour>
	</outline>
	<guideline x="761" y="583" angle="0"/>
	<guideline x="766" y="813" angle="180"/>
</glyph>
<glyph name="emdash" format="2">
	<unicode hex="2014"/>
	<advance width="2117"/>
	<outline>
		<contour>
			<point x="170" y="560" type="curve" smooth="yes"/>
			<point x="1942" y="560" type="line" smooth="yes"/>
			<point x="1985" y="560"/>
			<point x="2017" y="594"/>
			<point x="2017" y="675" type="curve" smooth="yes"/>
			<point x="2017" y="752"/>
			<point x="1993" y="790"/>
			<point x="1947" y="790" type="curve" smooth="yes"/>
			<point x="175" y="790" type="line" smooth="yes"/>
			<point x="132" y="790"/>
			<point x="100" y="753"/>
			<point x="100" y="659" type="curve" smooth="yes"/>
			<point x="100" y="593"/>
			<point x="125" y="560"/>
		</contour>
	</outline>
</glyph>
<glyph name="dagger" format="2">
	<unicode hex="2020"/>
	<advance width="789"/>
	<outline>
		<contour>
			<point x="378" y="642" type="curve" smooth="yes"/>
			<point x="434" y="642"/>
			<point x="472" y="665"/>
			<point x="478" y="744" type="curve" smooth="yes"/>
			<point x="551" y="1496" type="line" smooth="yes"/>
			<point x="554" y="1529"/>
			<point x="555" y="1540"/>
			<point x="555" y="1550" type="curve" smooth="yes"/>
			<point x="555" y="1604"/>
			<point x="513" y="1625"/>
			<point x="442" y="1625" type="curve" smooth="yes"/>
			<point x="353" y="1625"/>
			<point x="321" y="1597"/>
			<point x="317" y="1521" type="curve" smooth="yes"/>
			<point x="287" y="843" type="line" smooth="yes"/>
			<point x="284" y="788"/>
			<point x="283" y="755"/>
			<point x="283" y="733" type="curve" smooth="yes"/>
			<point x="283" y="667"/>
			<point x="318" y="642"/>
		</contour>
		<contour>
			<point x="200" y="1204" type="curve" smooth="yes"/>
			<point x="648" y="1204" type="line" smooth="yes"/>
			<point x="702" y="1204"/>
			<point x="729" y="1246"/>
			<point x="729" y="1301" type="curve" smooth="yes"/>
			<point x="729" y="1360"/>
			<point x="709" y="1392"/>
			<point x="655" y="1392" type="curve" smooth="yes"/>
			<point x="209" y="1392" type="line" smooth="yes"/>
			<point x="145" y="1392"/>
			<point x="120" y="1352"/>
			<point x="120" y="1296" type="curve" smooth="yes"/>
			<point x="120" y="1250"/>
			<point x="144" y="1204"/>
		</contour>
	</outline>
	<anchor name="_center" x="431" y="1148"/>
</glyph>
<glyph name="perthousand" format="2">
	<unicode hex="2030"/>
	<advance width="2454"/>
	<outline>
		<contour>
			<point x="423" y="852" type="curve" smooth="yes"/>
			<point x="619" y="852"/>
			<point x="770" y="1046"/>
			<point x="770" y="1288" type="curve" smooth="yes"/>
			<point x="770" y="1487"/>
			<point x="660" y="1622"/>
			<point x="497" y="1622" type="curve" smooth="yes"/>
			<point x="302" y="1622"/>
			<point x="150" y="1428"/>
			<point x="150" y="1186" type="curve" smooth="yes"/>
			<point x="150" y="987"/>
			<point x="262" y="852"/>
		</contour>
		<contour>
			<point x="442" y="1062" type="curve" smooth="yes"/>
			<point x="381" y="1062"/>
			<point x="336" y="1118"/>
			<point x="336" y="1213" type="curve" smooth="yes"/>
			<point x="336" y="1327"/>
			<point x="403" y="1412"/>
			<point x="478" y="1412" type="curve" smooth="yes"/>
			<point x="545" y="1412"/>
			<point x="584" y="1356"/>
			<point x="584" y="1261" type="curve" smooth="yes"/>
			<point x="584" y="1147"/>
			<point x="517" y="1062"/>
		</contour>
		<contour>
			<point x="479" y="-25" type="curve" smooth="yes"/>
			<point x="518" y="-25"/>
			<point x="540" y="5"/>
			<point x="563" y="44" type="curve" smooth="yes"/>
			<point x="1365" y="1441" type="line" smooth="yes"/>
			<point x="1396" y="1496"/>
			<point x="1398" y="1511"/>
			<point x="1398" y="1527" type="curve" smooth="yes"/>
			<point x="1398" y="1576"/>
			<point x="1331" y="1625"/>
			<point x="1262" y="1625" type="curve" smooth="yes"/>
			<point x="1230" y="1625"/>
			<point x="1210" y="1607"/>
			<point x="1179" y="1552" type="curve" smooth="yes"/>
			<point x="375" y="155" type="line" smooth="yes"/>
			<point x="362" y="132"/>
			<point x="346" y="105"/>
			<point x="346" y="76" type="curve" smooth="yes"/>
			<point x="346" y="23"/>
			<point x="420" y="-25"/>
		</contour>
		<contour>
			<point x="1257" y="-22" type="curve" smooth="yes"/>
			<point x="1453" y="-22"/>
			<point x="1604" y="172"/>
			<point x="1604" y="414" type="curve" smooth="yes"/>
			<point x="1604" y="613"/>
			<point x="1494" y="748"/>
			<point x="1331" y="748" type="curve" smooth="yes"/>
			<point x="1136" y="748"/>
			<point x="984" y="554"/>
			<point x="984" y="312" type="curve" smooth="yes"/>
			<point x="984" y="113"/>
			<point x="1096" y="-22"/>
		</contour>
		<contour>
			<point x="1276" y="188" type="curve" smooth="yes"/>
			<point x="1215" y="188"/>
			<point x="1170" y="244"/>
			<point x="1170" y="339" type="curve" smooth="yes"/>
			<point x="1170" y="453"/>
			<point x="1237" y="538"/>
			<point x="1312" y="538" type="curve" smooth="yes"/>
			<point x="1379" y="538"/>
			<point x="1418" y="482"/>
			<point x="1418" y="387" type="curve" smooth="yes"/>
			<point x="1418" y="273"/>
			<point x="1351" y="188"/>
		</contour>
		<contour>
			<point x="1957" y="-22" type="curve" smooth="yes"/>
			<point x="2153" y="-22"/>
			<point x="2304" y="172"/>
			<point x="2304" y="414" type="curve" smooth="yes"/>
			<point x="2304" y="613"/>
			<point x="2194" y="748"/>
			<point x="2031" y="748" type="curve" smooth="yes"/>
			<point x="1836" y="748"/>
			<point x="1684" y="554"/>
			<point x="1684" y="312" type="curve" smooth="yes"/>
			<point x="1684" y="113"/>
			<point x="1796" y="-22"/>
		</contour>
		<contour>
			<point x="1976" y="188" type="curve" smooth="yes"/>
			<point x="1915" y="188"/>
			<point x="1870" y="244"/>
			<point x="1870" y="339" type="curve" smooth="yes"/>
			<point x="1870" y="453"/>
			<point x="1937" y="538"/>
			<point x="2012" y="538" type="curve" smooth="yes"/>
			<point x="2079" y="538"/>
			<point x="2118" y="482"/>
			<point x="2118" y="387" type="curve" smooth="yes"/>
			<point x="2118" y="273"/>
			<point x="2051" y="188"/>
		</contour>
	</outline>
</glyph>
<glyph name="guilsinglleft" format="2">
	<unicode hex="2039"/>
	<advance width="751"/>
	<outline>
		<contour>
			<point x="529" y="924" type="curve" smooth="yes"/>
			<point x="508" y="924"/>
			<point x="488" y="918"/>
			<point x="451" y="882" type="curve" smooth="yes"/>
			<point x="348" y="781"/>
			<point x="253" y="695"/>
			<point x="183" y="633" type="curve" smooth="yes"/>
			<point x="132" y="588"/>
			<point x="118" y="554"/>
			<point x="118" y="510" type="curve" smooth="yes"/>
			<point x="118" y="470"/>
			<point x="140" y="437"/>
			<point x="167" y="405" type="curve" smooth="yes"/>
			<point x="216" y="347"/>
			<point x="304" y="242"/>
			<point x="348" y="192" type="curve" smooth="yes"/>
			<point x="392" y="141"/>
			<point x="412" y="122"/>
			<point x="447" y="122" type="curve" smooth="yes"/>
			<point x="505" y="122"/>
			<point x="559" y="184"/>
			<point x="559" y="231" type="curve" smooth="yes"/>
			<point x="559" y="256"/>
			<point x="547" y="277"/>
			<point x="509" y="316" type="curve" smooth="yes"/>
			<point x="468" y="358"/>
			<point x="336" y="484"/>
			<point x="275" y="531" type="curve"/>
			<point x="275" y="500" type="line"/>
			<point x="340" y="539"/>
			<point x="515" y="667"/>
			<point x="582" y="735" type="curve" smooth="yes"/>
			<point x="623" y="776"/>
			<point x="631" y="801"/>
			<point x="631" y="825" type="curve" smooth="yes"/>
			<point x="631" y="871"/>
			<point x="577" y="924"/>
		</contour>
	</outline>
</glyph>
<glyph name="zerosuperior" format="2">
	<unicode hex="2070"/>
	<advance width="823"/>
	<outline>
		<contour>
			<point x="369" y="985" type="curve" smooth="yes"/>
			<point x="585" y="985"/>
			<point x="763" y="1168"/>
			<point x="763" y="1477" type="curve" smooth="yes"/>
			<point x="763" y="1714"/>
			<point x="636" y="1838"/>
			<point x="453" y="1838" type="curve" smooth="yes"/>
			<point x="238" y="1838"/>
			<point x="60" y="1654"/>
			<point x="60" y="1346" type="curve" smooth="yes"/>
			<point x="60" y="1110"/>
			<point x="187" y="985"/>
		</contour>
		<contour>
			<point x="383" y="1175" type="curve" smooth="yes"/>
			<point x="310" y="1175"/>
			<point x="270" y="1236"/>
			<point x="270" y="1366" type="curve" smooth="yes"/>
			<point x="270" y="1544"/>
			<point x="348" y="1648"/>
			<point x="438" y="1648" type="curve" smooth="yes"/>
			<point x="513" y="1648"/>
			<point x="553" y="1589"/>
			<point x="553" y="1455" type="curve" smooth="yes"/>
			<point x="553" y="1278"/>
			<point x="473" y="1175"/>
		</contour>
	</outline>
</glyph>
<glyph name="foursuperior" format="2">
	<unicode hex="2074"/>
	<advance width="819"/>
	<outline>
		<contour>
			<point x="160" y="1190" type="curve" smooth="yes"/>
			<point x="701" y="1190" type="line" smooth="yes"/>
			<point x="769" y="1190"/>
			<point x="789" y="1238"/>
			<point x="789" y="1300" type="curve" smooth="yes"/>
			<point x="789" y="1350"/>
			<point x="762" y="1379"/>
			<point x="718" y="1379" type="curve" smooth="yes"/>
			<point x="689" y="1379"/>
			<point x="670" y="1377"/>
			<point x="652" y="1376" type="curve" smooth="yes"/>
			<point x="130" y="1347" type="line"/>
			<point x="159" y="1300" type="line"/>
			<point x="276" y="1425"/>
			<point x="395" y="1585"/>
			<point x="447" y="1666" type="curve" smooth="yes"/>
			<point x="466" y="1696"/>
			<point x="478" y="1717"/>
			<point x="478" y="1748" type="curve" smooth="yes"/>
			<point x="478" y="1792"/>
			<point x="423" y="1837"/>
			<point x="350" y="1837" type="curve" smooth="yes"/>
			<point x="314" y="1837"/>
			<point x="300" y="1822"/>
			<point x="274" y="1771" type="curve" smooth="yes"/>
			<point x="220" y="1663"/>
			<point x="136" y="1515"/>
			<point x="69" y="1419" type="curve" smooth="yes"/>
			<point x="39" y="1376"/>
			<point x="30" y="1357"/>
			<point x="30" y="1321" type="curve" smooth="yes"/>
			<point x="30" y="1233"/>
			<point x="92" y="1190"/>
		</contour>
		<contour>
			<point x="573" y="1067" type="curve" smooth="yes"/>
			<point x="609" y="1494" type="line" smooth="yes"/>
			<point x="610" y="1506"/>
			<point x="611" y="1524"/>
			<point x="611" y="1534" type="curve" smooth="yes"/>
			<point x="611" y="1572"/>
			<point x="580" y="1588"/>
			<point x="510" y="1588" type="curve" smooth="yes"/>
			<point x="438" y="1588"/>
			<point x="423" y="1568"/>
			<point x="418" y="1510" type="curve" smooth="yes"/>
			<point x="381" y="1096" type="line" smooth="yes"/>
			<point x="378" y="1061"/>
			<point x="377" y="1055"/>
			<point x="377" y="1041" type="curve" smooth="yes"/>
			<point x="377" y="988"/>
			<point x="420" y="981"/>
			<point x="467" y="981" type="curve" smooth="yes"/>
			<point x="539" y="981"/>
			<point x="567" y="993"/>
		</contour>
	</outline>
</glyph>
<glyph name="eightsuperior" format="2">
	<unicode hex="2078"/>
	<advance width="826"/>
	<outline>
		<contour>
			<point x="387" y="985" type="curve" smooth="yes"/>
			<point x="613" y="985"/>
			<point x="751" y="1107"/>
			<point x="751" y="1235" type="curve" smooth="yes"/>
			<point x="751" y="1328"/>
			<point x="692" y="1387"/>
			<point x="591" y="1427" type="curve"/>
			<point x="706" y="1477"/>
			<point x="756" y="1537"/>
			<point x="756" y="1631" type="curve" smooth="yes"/>
			<point x="756" y="1740"/>
			<point x="648" y="1838"/>
			<point x="462" y="1838" type="curve" smooth="yes"/>
			<point x="253" y="1838"/>
			<point x="102" y="1716"/>
			<point x="102" y="1572" type="curve" smooth="yes"/>
			<point x="102" y="1494"/>
			<point x="137" y="1439"/>
			<point x="219" y="1394" type="curve"/>
			<point x="106" y="1345"/>
			<point x="60" y="1273"/>
			<point x="60" y="1198" type="curve" smooth="yes"/>
			<point x="60" y="1085"/>
			<point x="176" y="985"/>
		</contour>
		<contour>
			<point x="250" y="1235" type="curve" smooth="yes"/>
			<point x="250" y="1275"/>
			<point x="276" y="1312"/>
			<point x="324" y="1342" type="curve"/>
			<point x="511" y="1290"/>
			<point x="551" y="1263"/>
			<point x="551" y="1229" type="curve" smooth="yes"/>
			<point x="551" y="1187"/>
			<point x="504" y="1155"/>
			<point x="405" y="1155" type="curve" smooth="yes"/>
			<point x="303" y="1155"/>
			<point x="250" y="1182"/>
		</contour>
		<contour>
			<point x="302" y="1584" type="curve" smooth="yes"/>
			<point x="302" y="1632"/>
			<point x="356" y="1668"/>
			<point x="439" y="1668" type="curve" smooth="yes"/>
			<point x="520" y="1668"/>
			<point x="566" y="1634"/>
			<point x="566" y="1591" type="curve" smooth="yes"/>
			<point x="566" y="1548"/>
			<point x="546" y="1518"/>
			<point x="471" y="1479" type="curve"/>
			<point x="338" y="1516"/>
			<point x="302" y="1545"/>
		</contour>
	</outline>
	<guideline x="470" y="596" angle="262.8409"/>
</glyph>
<glyph name="trademark" format="2">
	<unicode hex="2122"/>
	<advance width="2043"/>
	<outline>
		<contour>
			<point x="419" y="790" type="curve" smooth="yes"/>
			<point x="491" y="790"/>
			<point x="536" y="797"/>
			<point x="540" y="847" type="curve" smooth="yes"/>
			<point x="595" y="1533" type="line"/>
			<point x="752" y="1533" type="line" smooth="yes"/>
			<point x="833" y="1533"/>
			<point x="872" y="1568"/>
			<point x="872" y="1665" type="curve" smooth="yes"/>
			<point x="872" y="1728"/>
			<point x="842" y="1757"/>
			<point x="804" y="1757" type="curve" smooth="yes"/>
			<point x="221" y="1757" type="line" smooth="yes"/>
			<point x="144" y="1757"/>
			<point x="100" y="1721"/>
			<point x="100" y="1624" type="curve" smooth="yes"/>
			<point x="100" y="1556"/>
			<point x="127" y="1533"/>
			<point x="176" y="1533" type="curve" smooth="yes"/>
			<point x="362" y="1533" type="line"/>
			<point x="312" y="896" type="line" smooth="yes"/>
			<point x="311" y="883"/>
			<point x="310" y="868"/>
			<point x="310" y="859" type="curve" smooth="yes"/>
			<point x="310" y="805"/>
			<point x="333" y="790"/>
		</contour>
		<contour>
			<point x="819" y="882" type="curve" smooth="yes"/>
			<point x="819" y="827"/>
			<point x="863" y="790"/>
			<point x="941" y="790" type="curve" smooth="yes"/>
			<point x="991" y="790"/>
			<point x="1013" y="820"/>
			<point x="1025" y="881" type="curve" smooth="yes"/>
			<point x="1100" y="1264" type="line" smooth="yes"/>
			<point x="1123" y="1381"/>
			<point x="1130" y="1505"/>
			<point x="1133" y="1613" type="curve"/>
			<point x="1055" y="1613" type="line"/>
			<point x="1078" y="1512"/>
			<point x="1104" y="1394"/>
			<point x="1145" y="1291" type="curve" smooth="yes"/>
			<point x="1247" y="1034" type="line" smooth="yes"/>
			<point x="1276" y="961"/>
			<point x="1311" y="938"/>
			<point x="1354" y="938" type="curve" smooth="yes"/>
			<point x="1407" y="938"/>
			<point x="1457" y="954"/>
			<point x="1496" y="1037" type="curve" smooth="yes"/>
			<point x="1596" y="1259" type="line" smooth="yes"/>
			<point x="1646" y="1364"/>
			<point x="1671" y="1478"/>
			<point x="1693" y="1569" type="curve"/>
			<point x="1644" y="1569" type="line"/>
			<point x="1642" y="1439"/>
			<point x="1642" y="1344"/>
			<point x="1658" y="1195" type="curve" smooth="yes"/>
			<point x="1691" y="888" type="line" smooth="yes"/>
			<point x="1698" y="823"/>
			<point x="1729" y="790"/>
			<point x="1798" y="790" type="curve" smooth="yes"/>
			<point x="1896" y="790"/>
			<point x="1943" y="832"/>
			<point x="1943" y="895" type="curve" smooth="yes"/>
			<point x="1943" y="926"/>
			<point x="1940" y="942"/>
			<point x="1937" y="966" type="curve" smooth="yes"/>
			<point x="1853" y="1636" type="line" smooth="yes"/>
			<point x="1841" y="1732"/>
			<point x="1796" y="1757"/>
			<point x="1724" y="1757" type="curve" smooth="yes"/>
			<point x="1650" y="1757"/>
			<point x="1609" y="1724"/>
			<point x="1570" y="1638" type="curve" smooth="yes"/>
			<point x="1459" y="1389" type="line" smooth="yes"/>
			<point x="1424" y="1312"/>
			<point x="1393" y="1226"/>
			<point x="1375" y="1154" type="curve"/>
			<point x="1413" y="1150" type="line"/>
			<point x="1400" y="1226"/>
			<point x="1378" y="1303"/>
			<point x="1342" y="1396" type="curve" smooth="yes"/>
			<point x="1244" y="1653" type="line" smooth="yes"/>
			<point x="1213" y="1735"/>
			<point x="1170" y="1757"/>
			<point x="1105" y="1757" type="curve" smooth="yes"/>
			<point x="1040" y="1757"/>
			<point x="986" y="1725"/>
			<point x="967" y="1631" type="curve" smooth="yes"/>
			<point x="826" y="933" type="line" smooth="yes"/>
			<point x="822" y="913"/>
			<point x="819" y="895"/>
		</contour>
	</outline>
</glyph>
<glyph name="arrowup" format="2">
	<unicode hex="2191"/>
	<advance width="1417"/>
	<outline>
		<contour>
			<point x="824" y="129" type="curve" smooth="yes"/>
			<point x="824" y="1176" type="line"/>
			<point x="1113" y="887" type="line" smooth="yes"/>
			<point x="1138" y="862"/>
			<point x="1152" y="856"/>
			<point x="1171" y="856" type="curve" smooth="yes"/>
			<point x="1231" y="856"/>
			<point x="1302" y="933"/>
			<point x="1302" y="983" type="curve" smooth="yes"/>
			<point x="1302" y="1009"/>
			<point x="1295" y="1022"/>
			<point x="1242" y="1072" type="curve" smooth="yes"/>
			<point x="879" y="1413" type="line" smooth="yes"/>
			<point x="786" y="1500"/>
			<point x="755" y="1520"/>
			<point x="710" y="1520" type="curve" smooth="yes"/>
			<point x="665" y="1520"/>
			<point x="632" y="1500"/>
			<point x="539" y="1413" type="curve" smooth="yes"/>
			<point x="176" y="1072" type="line" smooth="yes"/>
			<point x="123" y="1022"/>
			<point x="116" y="1009"/>
			<point x="116" y="983" type="curve" smooth="yes"/>
			<point x="116" y="933"/>
			<point x="187" y="856"/>
			<point x="247" y="856" type="curve" smooth="yes"/>
			<point x="270" y="856"/>
			<point x="282" y="861"/>
			<point x="336" y="916" type="curve" smooth="yes"/>
			<point x="594" y="1176" type="line"/>
			<point x="594" y="135" type="line" smooth="yes"/>
			<point x="594" y="85"/>
			<point x="629" y="47"/>
			<point x="709" y="47" type="curve" smooth="yes"/>
			<point x="789" y="47"/>
			<point x="824" y="79"/>
		</contour>
	</outline>
</glyph>
<glyph name="infinity" format="2">
	<unicode hex="221E"/>
	<advance width="1262"/>
	<outline>
		<contour>
			<point x="857" y="560" type="curve" smooth="yes"/>
			<point x="1027" y="560"/>
			<point x="1162" y="712"/>
			<point x="1162" y="902" type="curve" smooth="yes"/>
			<point x="1162" y="1077"/>
			<point x="1049" y="1180"/>
			<point x="909" y="1180" type="curve" smooth="yes"/>
			<point x="808" y="1180"/>
			<point x="722" y="1128"/>
			<point x="649" y="1030" type="curve"/>
			<point x="597" y="1117"/>
			<point x="518" y="1180"/>
			<point x="405" y="1180" type="curve" smooth="yes"/>
			<point x="235" y="1180"/>
			<point x="100" y="1028"/>
			<point x="100" y="837" type="curve" smooth="yes"/>
			<point x="100" y="662"/>
			<point x="203" y="560"/>
			<point x="343" y="560" type="curve" smooth="yes"/>
			<point x="454" y="560"/>
			<point x="540" y="611"/>
			<point x="613" y="709" type="curve"/>
			<point x="665" y="623"/>
			<point x="744" y="560"/>
		</contour>
		<contour>
			<point x="270" y="847" type="curve" smooth="yes"/>
			<point x="270" y="929"/>
			<point x="318" y="997"/>
			<point x="385" y="997" type="curve" smooth="yes"/>
			<point x="438" y="997"/>
			<point x="489" y="958"/>
			<point x="535" y="861" type="curve"/>
			<point x="491" y="791"/>
			<point x="440" y="743"/>
			<point x="375" y="743" type="curve" smooth="yes"/>
			<point x="309" y="743"/>
			<point x="270" y="783"/>
		</contour>
		<contour>
			<point x="727" y="879" type="curve"/>
			<point x="780" y="961"/>
			<point x="831" y="997"/>
			<point x="887" y="997" type="curve" smooth="yes"/>
			<point x="953" y="997"/>
			<point x="992" y="957"/>
			<point x="992" y="892" type="curve" smooth="yes"/>
			<point x="992" y="810"/>
			<point x="944" y="743"/>
			<point x="877" y="743" type="curve" smooth="yes"/>
			<point x="824" y="743"/>
			<point x="773" y="781"/>
		</contour>
	</outline>
</glyph>
<glyph name="checkmark" format="2">
	<unicode hex="2713"/>
	<advance width="1481"/>
	<outline>
		<contour>
			<point x="150" y="663" type="curve" smooth="yes"/>
			<point x="150" y="647"/>
			<point x="155" y="621"/>
			<point x="175" y="570" type="curve" smooth="yes"/>
			<point x="228" y="437"/>
			<point x="280" y="239"/>
			<point x="296" y="162" type="curve" smooth="yes"/>
			<point x="325" y="18"/>
			<point x="367" y="-12"/>
			<point x="432" y="-12" type="curve" smooth="yes"/>
			<point x="492" y="-12"/>
			<point x="540" y="21"/>
			<point x="586" y="120" type="curve" smooth="yes"/>
			<point x="790" y="559"/>
			<point x="1051" y="995"/>
			<point x="1229" y="1234" type="curve" smooth="yes"/>
			<point x="1313" y="1347"/>
			<point x="1332" y="1383"/>
			<point x="1331" y="1409" type="curve" smooth="yes"/>
			<point x="1331" y="1462"/>
			<point x="1277" y="1514"/>
			<point x="1218" y="1514" type="curve" smooth="yes"/>
			<point x="1163" y="1514"/>
			<point x="1146" y="1499"/>
			<point x="1070" y="1396" type="curve" smooth="yes"/>
			<point x="906" y="1175"/>
			<point x="629" y="674"/>
			<point x="435" y="165" type="curve"/>
			<point x="451" y="174" type="line"/>
			<point x="412" y="336"/>
			<point x="318" y="603"/>
			<point x="244" y="686" type="curve" smooth="yes"/>
			<point x="230" y="702"/>
			<point x="220" y="710"/>
			<point x="205" y="710" type="curve" smooth="yes"/>
			<point x="180" y="710"/>
			<point x="150" y="687"/>
		</contour>
	</outline>
	<anchor name="_check" x="432" y="-12"/>
</glyph>
<glyph name="tightTrifoliateSnowflake" format="2">
	<unicode hex="2745"/>
	<advance width="2322"/>
	<outline>
		<contour>
			<point x="751" y="128" type="curve" smooth="yes"/>
			<point x="757" y="128"/>
			<point x="763" y="131"/>
			<point x="776" y="139" type="curve" smooth="yes"/>
			<point x="1146" y="366" type="line"/>
			<point x="1478" y="143" type="line" smooth="yes"/>
			<point x="1497" y="130"/>
			<point x="1501" y="128"/>
			<point x="1508" y="128" type="curve" smooth="yes"/>
			<point x="1524" y="128"/>
			<point x="1533" y="142"/>
			<point x="1533" y="158" type="curve" smooth="yes"/>
			<point x="1544" y="587" type="line"/>
			<point x="1943" y="786" type="line" smooth="yes"/>
			<point x="1953" y="791"/>
			<point x="1958" y="800"/>
			<point x="1958" y="810" type="curve" smooth="yes"/>
			<point x="1958" y="818"/>
			<point x="1953" y="825"/>
			<point x="1946" y="829" type="curve" smooth="yes"/>
			<point x="1574" y="1029" type="line"/>
			<point x="1625" y="1462" type="line" smooth="yes"/>
			<point x="1627" y="1479"/>
			<point x="1618" y="1489"/>
			<point x="1607" y="1489" type="curve" smooth="yes"/>
			<point x="1600" y="1489"/>
			<point x="1593" y="1487"/>
			<point x="1582" y="1480" type="curve" smooth="yes"/>
			<point x="1208" y="1250" type="line"/>
			<point x="888" y="1465" type="line" smooth="yes"/>
			<point x="859" y="1484"/>
			<point x="854" y="1488"/>
			<point x="846" y="1488" type="curve" smooth="yes"/>
			<point x="832" y="1488"/>
			<point x="820" y="1476"/>
			<point x="820" y="1462" type="curve" smooth="yes"/>
			<point x="809" y="1029" type="line"/>
			<point x="410" y="829" type="line" smooth="yes"/>
			<point x="401" y="825"/>
			<point x="396" y="816"/>
			<point x="396" y="806" type="curve" smooth="yes"/>
			<point x="396" y="798"/>
			<point x="400" y="790"/>
			<point x="417" y="781" type="curve" smooth="yes"/>
			<point x="779" y="587" type="line"/>
			<point x="762" y="446"/>
			<point x="746" y="304"/>
			<point x="729" y="163" type="curve" smooth="yes"/>
			<point x="726" y="140"/>
			<point x="738" y="128"/>
		</contour>
		<contour>
			<point x="802" y="229" type="line"/>
			<point x="846" y="626" type="line"/>
			<point x="508" y="808" type="line"/>
			<point x="873" y="990" type="line"/>
			<point x="883" y="1388" type="line"/>
			<point x="1202" y="1172" type="line"/>
			<point x="1552" y="1388" type="line"/>
			<point x="1507" y="990" type="line"/>
			<point x="1846" y="808" type="line"/>
			<point x="1479" y="625" type="line"/>
			<point x="1471" y="229" type="line"/>
			<point x="1150" y="444" type="line"/>
		</contour>
		<contour>
			<point x="1123" y="-123" type="curve" smooth="yes"/>
			<point x="1185" y="-123"/>
			<point x="1211" y="-59"/>
			<point x="1214" y="132" type="curve" smooth="yes"/>
			<point x="1221" y="642"/>
			<point x="1246" y="1030"/>
			<point x="1298" y="1524" type="curve" smooth="yes"/>
			<point x="1309" y="1624"/>
			<point x="1311" y="1644"/>
			<point x="1311" y="1674" type="curve" smooth="yes"/>
			<point x="1311" y="1720"/>
			<point x="1292" y="1759"/>
			<point x="1238" y="1759" type="curve" smooth="yes"/>
			<point x="1182" y="1759"/>
			<point x="1141" y="1722"/>
			<point x="1138" y="1601" type="curve" smooth="yes"/>
			<point x="1122" y="1045"/>
			<point x="1093" y="633"/>
			<point x="1049" y="199" type="curve" smooth="yes"/>
			<point x="1040" y="114"/>
			<point x="1036" y="72"/>
			<point x="1036" y="18" type="curve" smooth="yes"/>
			<point x="1035" y="-78"/>
			<point x="1072" y="-123"/>
		</contour>
		<contour>
			<point x="1891" y="286" type="curve" smooth="yes"/>
			<point x="1940" y="286"/>
			<point x="1967" y="319"/>
			<point x="1966" y="357" type="curve" smooth="yes"/>
			<point x="1966" y="402"/>
			<point x="1911" y="452"/>
			<point x="1778" y="529" type="curve" smooth="yes"/>
			<point x="1334" y="781"/>
			<point x="1007" y="990"/>
			<point x="599" y="1274" type="curve" smooth="yes"/>
			<point x="498" y="1346"/>
			<point x="457" y="1372"/>
			<point x="422" y="1373" type="curve" smooth="yes"/>
			<point x="383" y="1373"/>
			<point x="350" y="1336"/>
			<point x="350" y="1290" type="curve" smooth="yes"/>
			<point x="350" y="1253"/>
			<point x="380" y="1217"/>
			<point x="454" y="1171" type="curve" smooth="yes"/>
			<point x="927" y="882"/>
			<point x="1280" y="665"/>
			<point x="1639" y="417" type="curve" smooth="yes"/>
			<point x="1762" y="332"/>
			<point x="1847" y="286"/>
		</contour>
		<contour>
			<point x="433" y="289" type="curve" smooth="yes"/>
			<point x="477" y="289"/>
			<point x="552" y="325"/>
			<point x="685" y="417" type="curve" smooth="yes"/>
			<point x="1044" y="665"/>
			<point x="1397" y="882"/>
			<point x="1870" y="1171" type="curve" smooth="yes"/>
			<point x="1944" y="1217"/>
			<point x="1972" y="1256"/>
			<point x="1972" y="1293" type="curve" smooth="yes"/>
			<point x="1972" y="1345"/>
			<point x="1933" y="1373"/>
			<point x="1902" y="1373" type="curve" smooth="yes"/>
			<point x="1867" y="1372"/>
			<point x="1825" y="1345"/>
			<point x="1725" y="1274" type="curve" smooth="yes"/>
			<point x="1321" y="987"/>
			<point x="990" y="781"/>
			<point x="546" y="529" type="curve" smooth="yes"/>
			<point x="413" y="452"/>
			<point x="358" y="402"/>
			<point x="358" y="357" type="curve" smooth="yes"/>
			<point x="357" y="315"/>
			<point x="386" y="289"/>
		</contour>
	</outline>
</glyph>
<glyph name="gClef-musical" format="2">
	<unicode hex="1D11E"/>
	<advance width="1250"/>
	<outline>
		<contour>
			<point x="406" y="-208" type="curve" smooth="yes"/>
			<point x="383" y="-208"/>
			<point x="355" y="-222"/>
			<point x="327" y="-252" type="curve" smooth="yes"/>
			<point x="279" y="-304"/>
			<point x="250" y="-388"/>
			<point x="250" y="-456" type="curve" smooth="yes"/>
			<point x="250" y="-573"/>
			<point x="334" y="-690"/>
			<point x="511" y="-690" type="curve" smooth="yes"/>
			<point x="714" y="-690"/>
			<point x="878" y="-536"/>
			<point x="878" y="-154" type="curve" smooth="yes"/>
			<point x="878" y="117"/>
			<point x="795" y="417"/>
			<point x="732" y="641" type="curve" smooth="yes"/>
			<point x="686" y="805"/>
			<point x="614" y="1057"/>
			<point x="614" y="1241" type="curve" smooth="yes"/>
			<point x="614" y="1381"/>
			<point x="656" y="1450"/>
			<point x="720" y="1450" type="curve" smooth="yes"/>
			<point x="764" y="1450"/>
			<point x="787" y="1417"/>
			<point x="787" y="1356" type="curve" smooth="yes"/>
			<point x="787" y="1235"/>
			<point x="698" y="1153"/>
			<point x="533" y="1015" type="curve" smooth="yes"/>
			<point x="368" y="877"/>
			<point x="122" y="679"/>
			<point x="122" y="364" type="curve" smooth="yes"/>
			<point x="122" y="67"/>
			<point x="340" y="-115"/>
			<point x="605" y="-115" type="curve" smooth="yes"/>
			<point x="880" y="-115"/>
			<point x="1081" y="82"/>
			<point x="1081" y="343" type="curve" smooth="yes"/>
			<point x="1081" y="570"/>
			<point x="929" y="726"/>
			<point x="724" y="726" type="curve" smooth="yes"/>
			<point x="517" y="726"/>
			<point x="382" y="566"/>
			<point x="382" y="387" type="curve" smooth="yes"/>
			<point x="382" y="265"/>
			<point x="444" y="173"/>
			<point x="503" y="173" type="curve" smooth="yes"/>
			<point x="537" y="173"/>
			<point x="567" y="203"/>
			<point x="567" y="236" type="curve" smooth="yes"/>
			<point x="567" y="256"/>
			<point x="556" y="272"/>
			<point x="548" y="287" type="curve" smooth="yes"/>
			<point x="535" y="311"/>
			<point x="522" y="344"/>
			<point x="522" y="381" type="curve" smooth="yes"/>
			<point x="522" y="462"/>
			<point x="583" y="555"/>
			<point x="703" y="555" type="curve" smooth="yes"/>
			<point x="804" y="555"/>
			<point x="901" y="489"/>
			<point x="901" y="339" type="curve" smooth="yes"/>
			<point x="901" y="202"/>
			<point x="820" y="75"/>
			<point x="616" y="75" type="curve" smooth="yes"/>
			<point x="423" y="75"/>
			<point x="311" y="189"/>
			<point x="311" y="374" type="curve" smooth="yes"/>
			<point x="311" y="616"/>
			<point x="502" y="771"/>
			<point x="651" y="896" type="curve" smooth="yes"/>
			<point x="820" y="1038"/>
			<point x="962" y="1162"/>
			<point x="962" y="1367" type="curve" smooth="yes"/>
			<point x="962" y="1540"/>
			<point x="861" y="1625"/>
			<point x="725" y="1625" type="curve" smooth="yes"/>
			<point x="554" y="1625"/>
			<point x="421" y="1490"/>
			<point x="421" y="1213" type="curve" smooth="yes"/>
			<point x="421" y="1061"/>
			<point x="461" y="898"/>
			<point x="531" y="638" type="curve" smooth="yes"/>
			<point x="578" y="463"/>
			<point x="679" y="93"/>
			<point x="679" y="-186" type="curve" smooth="yes"/>
			<point x="679" y="-436"/>
			<point x="598" y="-515"/>
			<point x="512" y="-515" type="curve" smooth="yes"/>
			<point x="456" y="-515"/>
			<point x="425" y="-481"/>
			<point x="425" y="-429" type="curve" smooth="yes"/>
			<point x="425" y="-385"/>
			<point x="447" y="-349"/>
			<point x="460" y="-328" type="curve" smooth="yes"/>
			<point x="472" y="-309"/>
			<point x="479" y="-298"/>
			<point x="479" y="-281" type="curve" smooth="yes"/>
			<point x="479" y="-240"/>
			<point x="440" y="-208"/>
		</contour>
	</outline>
</glyph>
<glyph name="lowerLeftFountainPen" format="2">
	<unicode hex="1F58B"/>
	<advance width="1518"/>
	<outline>
		<contour>
			<point x="699" y="1797" type="curve" smooth="yes"/>
			<point x="544" y="1171" type="line" smooth="yes"/>
			<point x="542" y="1163"/>
			<point x="541" y="1155"/>
			<point x="541" y="1147" type="curve" smooth="yes"/>
			<point x="541" y="1127"/>
			<point x="548" y="1112"/>
			<point x="559" y="1103" type="curve"/>
			<point x="434" y="579" type="line" smooth="yes"/>
			<point x="430" y="564"/>
			<point x="428" y="553"/>
			<point x="428" y="543" type="curve" smooth="yes"/>
			<point x="428" y="517"/>
			<point x="439" y="505"/>
			<point x="453" y="492" type="curve"/>
			<point x="335" y="-17" type="line" smooth="yes"/>
			<point x="333" y="-27"/>
			<point x="332" y="-36"/>
			<point x="332" y="-45" type="curve" smooth="yes"/>
			<point x="332" y="-60"/>
			<point x="338" y="-72"/>
			<point x="349" y="-80" type="curve"/>
			<point x="300" y="-236" type="line"/>
			<point x="333" y="-324"/>
			<point x="348" y="-428"/>
			<point x="348" y="-546" type="curve" smooth="yes"/>
			<point x="348" y="-575"/>
			<point x="347" y="-605"/>
			<point x="345" y="-636" type="curve" smooth="yes"/>
			<point x="342" y="-687"/>
			<point x="376" y="-705"/>
			<point x="399" y="-705" type="curve" smooth="yes"/>
			<point x="427" y="-705"/>
			<point x="450" y="-694"/>
			<point x="471" y="-652" type="curve" smooth="yes"/>
			<point x="529" y="-538"/>
			<point x="610" y="-417"/>
			<point x="714" y="-318" type="curve"/>
			<point x="732" y="-163" type="line"/>
			<point x="754" y="-163"/>
			<point x="766" y="-147"/>
			<point x="770" y="-127" type="curve" smooth="yes"/>
			<point x="882" y="432" type="line"/>
			<point x="903" y="437"/>
			<point x="922" y="459"/>
			<point x="929" y="497" type="curve" smooth="yes"/>
			<point x="1037" y="1041" type="line"/>
			<point x="1063" y="1049"/>
			<point x="1078" y="1071"/>
			<point x="1085" y="1102" type="curve" smooth="yes"/>
			<point x="1214" y="1752" type="line" smooth="yes"/>
			<point x="1217" y="1766"/>
			<point x="1218" y="1779"/>
			<point x="1218" y="1793" type="curve" smooth="yes"/>
			<point x="1218" y="1902"/>
			<point x="1128" y="1996"/>
			<point x="967" y="1996" type="curve" smooth="yes"/>
			<point x="814" y="1996"/>
			<point x="733" y="1935"/>
		</contour>
		<contour>
			<point x="342" y="-232" type="curve"/>
			<point x="395" y="-68" type="line"/>
			<point x="428" y="-40"/>
			<point x="470" y="-26"/>
			<point x="509" y="-26" type="curve" smooth="yes"/>
			<point x="590" y="-26"/>
			<point x="653" y="-65"/>
			<point x="691" y="-134" type="curve"/>
			<point x="672" y="-296" type="line"/>
			<point x="565" y="-404"/>
			<point x="480" y="-527"/>
			<point x="416" y="-667" type="curve"/>
			<point x="501" y="-279" type="line"/>
			<point x="471" y="-269" type="line"/>
			<point x="382" y="-659" type="line"/>
			<point x="386" y="-615"/>
			<point x="388" y="-572"/>
			<point x="388" y="-533" type="curve" smooth="yes"/>
			<point x="388" y="-419"/>
			<point x="376" y="-320"/>
		</contour>
		<contour>
			<point x="482" y="-310" type="curve" smooth="yes"/>
			<point x="519" y="-310"/>
			<point x="549" y="-280"/>
			<point x="549" y="-244" type="curve" smooth="yes"/>
			<point x="549" y="-217"/>
			<point x="527" y="-195"/>
			<point x="500" y="-195" type="curve" smooth="yes"/>
			<point x="466" y="-195"/>
			<point x="439" y="-225"/>
			<point x="439" y="-263" type="curve" smooth="yes"/>
			<point x="439" y="-289"/>
			<point x="459" y="-310"/>
		</contour>
		<contour>
			<point x="637" y="732" type="curve" smooth="yes"/>
			<point x="674" y="886" type="line"/>
			<point x="681" y="914"/>
			<point x="707" y="931"/>
			<point x="730" y="931" type="curve" smooth="yes"/>
			<point x="749" y="931"/>
			<point x="765" y="919"/>
			<point x="765" y="897" type="curve" smooth="yes"/>
			<point x="765" y="894"/>
			<point x="765" y="890"/>
			<point x="764" y="886" type="curve" smooth="yes"/>
			<point x="728" y="732" type="line" smooth="yes"/>
			<point x="720" y="699"/>
			<point x="695" y="684"/>
			<point x="673" y="684" type="curve" smooth="yes"/>
			<point x="653" y="684"/>
			<point x="636" y="697"/>
			<point x="636" y="720" type="curve" smooth="yes"/>
			<point x="636" y="723"/>
			<point x="636" y="728"/>
		</contour>
	</outline>
</glyph>
<glyph name="slightlySmilingFace" format="2">
	<unicode hex="1F642"/>
	<advance width="2084"/>
	<outline>
		<contour>
			<point x="1408" y="1731" type="curve" smooth="yes"/>
			<point x="1408" y="1674"/>
			<point x="1434" y="1640"/>
			<point x="1499" y="1623" type="curve" smooth="yes"/>
			<point x="1601" y="1597"/>
			<point x="1654" y="1500"/>
			<point x="1654" y="1300" type="curve" smooth="yes"/>
			<point x="1654" y="488"/>
			<point x="1138" y="-233"/>
			<point x="763" y="-233" type="curve" smooth="yes"/>
			<point x="612" y="-233"/>
			<point x="461" y="-53"/>
			<point x="461" y="338" type="curve" smooth="yes"/>
			<point x="460" y="935"/>
			<point x="769" y="1461"/>
			<point x="1087" y="1461" type="curve" smooth="yes"/>
			<point x="1116" y="1461"/>
			<point x="1136" y="1446"/>
			<point x="1154" y="1432" type="curve" smooth="yes"/>
			<point x="1170" y="1419"/>
			<point x="1185" y="1408"/>
			<point x="1204" y="1408" type="curve" smooth="yes"/>
			<point x="1253" y="1408"/>
			<point x="1310" y="1461"/>
			<point x="1310" y="1516" type="curve" smooth="yes"/>
			<point x="1310" y="1646"/>
			<point x="1202" y="1735"/>
			<point x="1074" y="1735" type="curve" smooth="yes"/>
			<point x="673" y="1735"/>
			<point x="269" y="1127"/>
			<point x="269" y="484" type="curve" smooth="yes"/>
			<point x="269" y="-119"/>
			<point x="513" y="-434"/>
			<point x="824" y="-434" type="curve" smooth="yes"/>
			<point x="1308" y="-434"/>
			<point x="1914" y="368"/>
			<point x="1914" y="1319" type="curve" smooth="yes"/>
			<point x="1914" y="1701"/>
			<point x="1713" y="1855"/>
			<point x="1541" y="1855" type="curve" smooth="yes"/>
			<point x="1441" y="1855"/>
			<point x="1408" y="1809"/>
		</contour>
		<contour>
			<point x="817" y="1130" type="curve" smooth="yes"/>
			<point x="762" y="1130"/>
			<point x="715" y="1083"/>
			<point x="715" y="1004" type="curve" smooth="yes"/>
			<point x="715" y="941"/>
			<point x="762" y="891"/>
			<point x="822" y="891" type="curve" smooth="yes"/>
			<point x="888" y="891"/>
			<point x="957" y="944"/>
			<point x="957" y="1012" type="curve" smooth="yes"/>
			<point x="957" y="1070"/>
			<point x="907" y="1130"/>
		</contour>
		<contour>
			<point x="1250" y="1026" type="curve" smooth="yes"/>
			<point x="1187" y="1026"/>
			<point x="1135" y="978"/>
			<point x="1135" y="895" type="curve" smooth="yes"/>
			<point x="1135" y="836"/>
			<point x="1182" y="789"/>
			<point x="1242" y="789" type="curve" smooth="yes"/>
			<point x="1311" y="789"/>
			<point x="1385" y="839"/>
			<point x="1385" y="900" type="curve" smooth="yes"/>
			<point x="1385" y="963"/>
			<point x="1336" y="1026"/>
		</contour>
		<contour>
			<point x="180" y="591" type="curve" smooth="yes"/>
			<point x="180" y="436"/>
			<point x="453" y="141"/>
			<point x="819" y="141" type="curve" smooth="yes"/>
			<point x="1086" y="141"/>
			<point x="1249" y="298"/>
			<point x="1249" y="382" type="curve" smooth="yes"/>
			<point x="1249" y="440"/>
			<point x="1198" y="482"/>
			<point x="1153" y="482" type="curve" smooth="yes"/>
			<point x="1135" y="482"/>
			<point x="1119" y="472"/>
			<point x="1097" y="455" type="curve" smooth="yes"/>
			<point x="1047" y="416"/>
			<point x="964" y="350"/>
			<point x="813" y="350" type="curve" smooth="yes"/>
			<point x="629" y="350"/>
			<point x="467" y="431"/>
			<point x="378" y="582" type="curve"/>
			<point x="302" y="707" type="line"/>
			<point x="245" y="707"/>
			<point x="180" y="655"/>
		</contour>
	</outline>
</glyph>
<glyph name="U.ss05" format="2">
	<advance width="1293"/>
	<outline>
		<contour>
			<point x="585" y="-12" type="curve" smooth="yes"/>
			<point x="898" y="-12"/>
			<point x="1128" y="191"/>
			<point x="1157" y="597" type="curve" smooth="yes"/>
			<point x="1219" y="1453" type="line" smooth="yes"/>
			<point x="1222" y="1492"/>
			<point x="1223" y="1514"/>
			<point x="1223" y="1524" type="curve" smooth="yes"/>
			<point x="1223" y="1578"/>
			<point x="1193" y="1600"/>
			<point x="1106" y="1600" type="curve" smooth="yes"/>
			<point x="1007" y="1600"/>
			<point x="975" y="1572"/>
			<point x="970" y="1497" type="curve" smooth="yes"/>
			<point x="910" y="635" type="line" smooth="yes"/>
			<point x="889" y="340"/>
			<point x="790" y="228"/>
			<point x="593" y="228" type="curve" smooth="yes"/>
			<point x="430" y="228"/>
			<point x="350" y="306"/>
			<point x="350" y="497" type="curve" smooth="yes"/>
			<point x="350" y="552"/>
			<point x="357" y="647"/>
			<point x="365" y="746" type="curve" smooth="yes"/>
			<point x="421" y="1453" type="line" smooth="yes"/>
			<point x="422" y="1466"/>
			<point x="425" y="1497"/>
			<point x="425" y="1519" type="curve" smooth="yes"/>
			<point x="425" y="1570"/>
			<point x="408" y="1600"/>
			<point x="307" y="1600" type="curve" smooth="yes"/>
			<point x="210" y="1600"/>
			<point x="175" y="1572"/>
			<point x="170" y="1497" type="curve" smooth="yes"/>
			<point x="120" y="806" type="line" smooth="yes"/>
			<point x="115" y="738"/>
			<point x="100" y="581"/>
			<point x="100" y="494" type="curve" smooth="yes"/>
			<point x="100" y="179"/>
			<point x="281" y="-12"/>
		</contour>
	</outline>
	<anchor name="bottom" x="583" y="0"/>
	<anchor name="ogonek" x="700" y="0"/>
	<anchor name="top" x="705" y="1600"/>
	<anchor name="topright" x="1220" y="1600"/>
</glyph>
<glyph name="Uogonek.ss05" format="2">
	<advance width="1293"/>
	<outline>
		<contour>
			<point x="610" y="-485" type="curve" smooth="yes"/>
			<point x="691" y="-485"/>
			<point x="775" y="-445"/>
			<point x="823" y="-398" type="curve" smooth="yes"/>
			<point x="859" y="-365"/>
			<point x="864" y="-336"/>
			<point x="864" y="-322" type="curve" smooth="yes"/>
			<point x="864" y="-262"/>
			<point x="813" y="-223"/>
			<point x="771" y="-223" type="curve" smooth="yes"/>
			<point x="759" y="-223"/>
			<point x="749" y="-226"/>
			<point x="727" y="-241" type="curve" smooth="yes"/>
			<point x="700" y="-260"/>
			<point x="671" y="-274"/>
			<point x="644" y="-274" type="curve" smooth="yes"/>
			<point x="617" y="-274"/>
			<point x="602" y="-261"/>
			<point x="602" y="-226" type="curve" smooth="yes"/>
			<point x="602" y="-150"/>
			<point x="681" y="-23"/>
			<point x="815" y="31" type="curve" smooth="yes"/>
			<point x="1020" y="114"/>
			<point x="1137" y="315"/>
			<point x="1157" y="597" type="curve" smooth="yes"/>
			<point x="1219" y="1453" type="line" smooth="yes"/>
			<point x="1222" y="1492"/>
			<point x="1223" y="1514"/>
			<point x="1223" y="1524" type="curve" smooth="yes"/>
			<point x="1223" y="1578"/>
			<point x="1193" y="1600"/>
			<point x="1106" y="1600" type="curve" smooth="yes"/>
			<point x="1007" y="1600"/>
			<point x="975" y="1572"/>
			<point x="970" y="1497" type="curve" smooth="yes"/>
			<point x="910" y="635" type="line" smooth="yes"/>
			<point x="889" y="340"/>
			<point x="790" y="228"/>
			<point x="593" y="228" type="curve" smooth="yes"/>
			<point x="430" y="228"/>
			<point x="350" y="306"/>
			<point x="350" y="497" type="curve" smooth="yes"/>
			<point x="350" y="552"/>
			<point x="357" y="647"/>
			<point x="365" y="746" type="curve" smooth="yes"/>
			<point x="421" y="1453" type="line" smooth="yes"/>
			<point x="422" y="1466"/>
			<point x="425" y="1497"/>
			<point x="425" y="1519" type="curve" smooth="yes"/>
			<point x="425" y="1570"/>
			<point x="408" y="1600"/>
			<point x="307" y="1600" type="curve" smooth="yes"/>
			<point x="210" y="1600"/>
			<point x="175" y="1572"/>
			<point x="170" y="1497" type="curve" smooth="yes"/>
			<point x="120" y="806" type="line" smooth="yes"/>
			<point x="115" y="738"/>
			<point x="100" y="581"/>
			<point x="100" y="494" type="curve" smooth="yes"/>
			<point x="100" y="178"/>
			<point x="283" y="-13"/>
			<point x="589" y="-13" type="curve"/>
			<point x="593" y="10" type="line"/>
			<point x="467" y="-85"/>
			<point x="410" y="-197"/>
			<point x="410" y="-309" type="curve" smooth="yes"/>
			<point x="410" y="-413"/>
			<point x="485" y="-485"/>
		</contour>
	</outline>
</glyph>
<glyph name="aogonek.ss04" format="2">
	<advance width="1016"/>
	<outline>
		<contour>
			<point x="675" y="266" type="curve"/>
			<point x="717" y="356" type="line"/>
			<point x="660" y="493"/>
			<point x="523" y="598"/>
			<point x="386" y="598" type="curve" smooth="yes"/>
			<point x="201" y="598"/>
			<point x="70" y="455"/>
			<point x="70" y="277" type="curve" smooth="yes"/>
			<point x="70" y="106"/>
			<point x="182" y="-13"/>
			<point x="363" y="-13" type="curve" smooth="yes"/>
			<point x="485" y="-13"/>
			<point x="603" y="74"/>
			<point x="696" y="218" type="curve"/>
			<point x="646" y="279" type="line"/>
			<point x="564" y="186"/>
			<point x="497" y="147"/>
			<point x="433" y="147" type="curve" smooth="yes"/>
			<point x="342" y="147"/>
			<point x="295" y="209"/>
			<point x="295" y="286" type="curve" smooth="yes"/>
			<point x="295" y="375"/>
			<point x="354" y="434"/>
			<point x="429" y="434" type="curve" smooth="yes"/>
			<point x="514" y="434"/>
			<point x="615" y="365"/>
		</contour>
		<contour>
			<point x="839" y="231" type="curve"/>
			<point x="852" y="340"/>
			<point x="868" y="459"/>
			<point x="878" y="530" type="curve" smooth="yes"/>
			<point x="887" y="595"/>
			<point x="896" y="667"/>
			<point x="896" y="712" type="curve" smooth="yes"/>
			<point x="896" y="910"/>
			<point x="775" y="1000"/>
			<point x="603" y="1000" type="curve" smooth="yes"/>
			<point x="466" y="1000"/>
			<point x="306" y="956"/>
			<point x="222" y="899" type="curve" smooth="yes"/>
			<point x="187" y="875"/>
			<point x="167" y="846"/>
			<point x="167" y="818" type="curve" smooth="yes"/>
			<point x="167" y="760"/>
			<point x="214" y="708"/>
			<point x="263" y="708" type="curve" smooth="yes"/>
			<point x="284" y="708"/>
			<point x="296" y="712"/>
			<point x="332" y="730" type="curve" smooth="yes"/>
			<point x="401" y="765"/>
			<point x="480" y="788"/>
			<point x="550" y="788" type="curve" smooth="yes"/>
			<point x="632" y="788"/>
			<point x="674" y="755"/>
			<point x="674" y="675" type="curve" smooth="yes"/>
			<point x="674" y="645"/>
			<point x="669" y="583"/>
			<point x="661" y="522" type="curve" smooth="yes"/>
			<point x="654" y="466"/>
			<point x="645" y="376"/>
			<point x="640" y="283" type="curve" smooth="yes"/>
			<point x="635" y="186"/>
			<point x="639" y="93"/>
			<point x="645" y="64" type="curve" smooth="yes"/>
			<point x="656" y="6"/>
			<point x="685" y="-12"/>
			<point x="731" y="-12" type="curve" smooth="yes"/>
			<point x="811" y="-12"/>
			<point x="872" y="42"/>
			<point x="872" y="98" type="curve" smooth="yes"/>
			<point x="872" y="128"/>
			<point x="866" y="170"/>
		</contour>
		<contour>
			<point x="664" y="-485" type="curve" smooth="yes"/>
			<point x="745" y="-485"/>
			<point x="829" y="-445"/>
			<point x="877" y="-398" type="curve" smooth="yes"/>
			<point x="913" y="-365"/>
			<point x="918" y="-336"/>
			<point x="918" y="-322" type="curve" smooth="yes"/>
			<point x="918" y="-262"/>
			<point x="867" y="-223"/>
			<point x="825" y="-223" type="curve" smooth="yes"/>
			<point x="813" y="-223"/>
			<point x="803" y="-226"/>
			<point x="781" y="-241" type="curve" smooth="yes"/>
			<point x="754" y="-260"/>
			<point x="725" y="-274"/>
			<point x="698" y="-274" type="curve" smooth="yes"/>
			<point x="671" y="-274"/>
			<point x="656" y="-261"/>
			<point x="656" y="-226" type="curve" smooth="yes"/>
			<point x="656" y="-152"/>
			<point x="722" y="-57"/>
			<point x="816" y="11" type="curve" smooth="yes"/>
			<point x="830" y="21"/>
			<point x="833" y="37"/>
			<point x="833" y="45" type="curve" smooth="yes"/>
			<point x="833" y="75"/>
			<point x="816" y="115"/>
			<point x="794" y="115" type="curve" smooth="yes"/>
			<point x="775" y="115"/>
			<point x="757" y="106"/>
			<point x="712" y="72" type="curve" smooth="yes"/>
			<point x="545" y="-55"/>
			<point x="464" y="-176"/>
			<point x="464" y="-309" type="curve" smooth="yes"/>
			<point x="464" y="-413"/>
			<point x="539" y="-485"/>
		</contour>
	</outline>
	<guideline x="896" y="712" angle="90"/>
</glyph>
<glyph name="cedillacomb.case" format="2">
	<outline>
		<contour>
			<point x="128" y="-642" type="curve" smooth="yes"/>
			<point x="142" y="-642"/>
			<point x="163" y="-638"/>
			<point x="188" y="-629" type="curve" smooth="yes"/>
			<point x="366" y="-570"/>
			<point x="436" y="-480"/>
			<point x="436" y="-383" type="curve" smooth="yes"/>
			<point x="436" y="-316"/>
			<point x="411" y="-258"/>
			<point x="328" y="-214" type="curve" smooth="yes"/>
			<point x="250" y="-173"/>
			<point x="242" y="-165"/>
			<point x="242" y="-145" type="curve" smooth="yes"/>
			<point x="242" y="-130"/>
			<point x="246" y="-120"/>
			<point x="253" y="-103" type="curve" smooth="yes"/>
			<point x="298" y="8" type="line"/>
			<point x="179" y="56" type="line"/>
			<point x="100" y="-124" type="line" smooth="yes"/>
			<point x="82" y="-164"/>
			<point x="74" y="-197"/>
			<point x="75" y="-218" type="curve" smooth="yes"/>
			<point x="74" y="-263"/>
			<point x="92" y="-297"/>
			<point x="173" y="-336" type="curve" smooth="yes"/>
			<point x="222" y="-359"/>
			<point x="240" y="-366"/>
			<point x="240" y="-384" type="curve" smooth="yes"/>
			<point x="240" y="-405"/>
			<point x="206" y="-417"/>
			<point x="103" y="-445" type="curve" smooth="yes"/>
			<point x="60" y="-456"/>
			<point x="50" y="-496"/>
			<point x="50" y="-536" type="curve" smooth="yes"/>
			<point x="50" y="-592"/>
			<point x="85" y="-642"/>
		</contour>
	</outline>
	<anchor name="_bottom" x="223" y="0"/>
	<anchor name="bottom" x="147" y="-534"/>
</glyph>
<glyph name="commaaccentcomb.case" format="2">
	<outline>
		<contour>
			<point x="148" y="-614" type="curve" smooth="yes"/>
			<point x="179" y="-614"/>
			<point x="205" y="-600"/>
			<point x="244" y="-549" type="curve" smooth="yes"/>
			<point x="307" y="-466"/>
			<point x="354" y="-340"/>
			<point x="354" y="-240" type="curve" smooth="yes"/>
			<point x="354" y="-187"/>
			<point x="285" y="-142"/>
			<point x="210" y="-142" type="curve" smooth="yes"/>
			<point x="147" y="-142"/>
			<point x="129" y="-171"/>
			<point x="117" y="-246" type="curve" smooth="yes"/>
			<point x="104" y="-333"/>
			<point x="90" y="-393"/>
			<point x="65" y="-473" type="curve" smooth="yes"/>
			<point x="56" y="-502"/>
			<point x="49" y="-515"/>
			<point x="49" y="-538" type="curve" smooth="yes"/>
			<point x="49" y="-580"/>
			<point x="107" y="-614"/>
		</contour>
	</outline>
	<anchor name="_bottom" x="240" y="0"/>
	<anchor name="bottom" x="137" y="-537"/>
</glyph>
<glyph name="f.ss01" format="2">
	<advance width="678"/>
	<outline>
		<contour>
			<point x="389" y="64" type="curve" smooth="yes"/>
			<point x="467" y="1217" type="line" smooth="yes"/>
			<point x="477" y="1372"/>
			<point x="528" y="1415"/>
			<point x="599" y="1415" type="curve" smooth="yes"/>
			<point x="634" y="1415"/>
			<point x="667" y="1404"/>
			<point x="703" y="1383" type="curve" smooth="yes"/>
			<point x="727" y="1369"/>
			<point x="739" y="1363"/>
			<point x="762" y="1363" type="curve" smooth="yes"/>
			<point x="802" y="1363"/>
			<point x="850" y="1422"/>
			<point x="850" y="1470" type="curve" smooth="yes"/>
			<point x="850" y="1535"/>
			<point x="748" y="1625"/>
			<point x="575" y="1625" type="curve" smooth="yes"/>
			<point x="391" y="1625"/>
			<point x="244" y="1484"/>
			<point x="228" y="1250" type="curve" smooth="yes"/>
			<point x="152" y="121" type="line" smooth="yes"/>
			<point x="150" y="87"/>
			<point x="149" y="75"/>
			<point x="149" y="67" type="curve" smooth="yes"/>
			<point x="149" y="11"/>
			<point x="177" y="-12"/>
			<point x="264" y="-12" type="curve" smooth="yes"/>
			<point x="347" y="-12"/>
			<point x="385" y="9"/>
		</contour>
		<contour>
			<point x="79" y="795" type="curve" smooth="yes"/>
			<point x="638" y="795" type="line" smooth="yes"/>
			<point x="682" y="795"/>
			<point x="714" y="828"/>
			<point x="714" y="916" type="curve" smooth="yes"/>
			<point x="714" y="963"/>
			<point x="695" y="985"/>
			<point x="658" y="985" type="curve" smooth="yes"/>
			<point x="99" y="985" type="line" smooth="yes"/>
			<point x="53" y="985"/>
			<point x="20" y="954"/>
			<point x="20" y="871" type="curve" smooth="yes"/>
			<point x="20" y="819"/>
			<point x="41" y="795"/>
		</contour>
	</outline>
	<guideline x="105" y="316" angle="86.1904"/>
</glyph>
<glyph name="four.osf" format="2">
	<advance width="1336"/>
	<outline>
		<contour>
			<point x="294" y="-16" type="curve" smooth="yes"/>
			<point x="340" y="-16"/>
			<point x="683" y="-11"/>
			<point x="891" y="-9" type="curve" smooth="yes"/>
			<point x="1060" y="-8"/>
			<point x="1147" y="-7"/>
			<point x="1169" y="-7" type="curve" smooth="yes"/>
			<point x="1252" y="-7"/>
			<point x="1276" y="41"/>
			<point x="1276" y="116" type="curve" smooth="yes"/>
			<point x="1276" y="187"/>
			<point x="1243" y="223"/>
			<point x="1189" y="223" type="curve" smooth="yes"/>
			<point x="1149" y="223"/>
			<point x="1090" y="221"/>
			<point x="1027" y="218" type="curve" smooth="yes"/>
			<point x="270" y="185" type="line"/>
			<point x="294" y="115" type="line"/>
			<point x="438" y="396"/>
			<point x="578" y="676"/>
			<point x="654" y="882" type="curve" smooth="yes"/>
			<point x="684" y="963"/>
			<point x="691" y="983"/>
			<point x="691" y="1012" type="curve" smooth="yes"/>
			<point x="691" y="1065"/>
			<point x="619" y="1105"/>
			<point x="543" y="1105" type="curve" smooth="yes"/>
			<point x="482" y="1105"/>
			<point x="465" y="1086"/>
			<point x="436" y="1002" type="curve" smooth="yes"/>
			<point x="352" y="756"/>
			<point x="261" y="498"/>
			<point x="163" y="284" type="curve" smooth="yes"/>
			<point x="131" y="214"/>
			<point x="120" y="184"/>
			<point x="120" y="148" type="curve" smooth="yes"/>
			<point x="120" y="44"/>
			<point x="221" y="-16"/>
		</contour>
		<contour>
			<point x="876" y="-454" type="curve" smooth="yes"/>
			<point x="894" y="-174"/>
			<point x="915" y="201"/>
			<point x="935" y="454" type="curve" smooth="yes"/>
			<point x="940" y="517"/>
			<point x="941" y="535"/>
			<point x="941" y="553" type="curve" smooth="yes"/>
			<point x="941" y="601"/>
			<point x="903" y="625"/>
			<point x="810" y="625" type="curve" smooth="yes"/>
			<point x="746" y="625"/>
			<point x="721" y="607"/>
			<point x="712" y="517" type="curve" smooth="yes"/>
			<point x="696" y="360"/>
			<point x="661" y="-226"/>
			<point x="652" y="-372" type="curve" smooth="yes"/>
			<point x="649" y="-413"/>
			<point x="648" y="-432"/>
			<point x="648" y="-451" type="curve" smooth="yes"/>
			<point x="648" y="-516"/>
			<point x="697" y="-528"/>
			<point x="755" y="-528" type="curve" smooth="yes"/>
			<point x="824" y="-528"/>
			<point x="872" y="-514"/>
		</contour>
	</outline>
</glyph>
<glyph name="nine.old" format="2">
	<advance width="1187"/>
	<outline>
		<contour>
			<point x="951" y="881" type="curve"/>
			<point x="859" y="941" type="line"/>
			<point x="793" y="851"/>
			<point x="685" y="791"/>
			<point x="566" y="791" type="curve" smooth="yes"/>
			<point x="406" y="791"/>
			<point x="325" y="897"/>
			<point x="325" y="1059" type="curve" smooth="yes"/>
			<point x="325" y="1251"/>
			<point x="437" y="1385"/>
			<point x="585" y="1385" type="curve" smooth="yes"/>
			<point x="734" y="1385"/>
			<point x="847" y="1274"/>
			<point x="851" y="871" type="curve" smooth="yes"/>
			<point x="855" y="421"/>
			<point x="663" y="223"/>
			<point x="462" y="223" type="curve" smooth="yes"/>
			<point x="392" y="223"/>
			<point x="322" y="239"/>
			<point x="254" y="267" type="curve" smooth="yes"/>
			<point x="227" y="278"/>
			<point x="209" y="283"/>
			<point x="192" y="283" type="curve" smooth="yes"/>
			<point x="152" y="283"/>
			<point x="98" y="209"/>
			<point x="98" y="144" type="curve" smooth="yes"/>
			<point x="98" y="112"/>
			<point x="117" y="78"/>
			<point x="183" y="47" type="curve" smooth="yes"/>
			<point x="268" y="7"/>
			<point x="365" y="-12"/>
			<point x="473" y="-12" type="curve" smooth="yes"/>
			<point x="803" y="-12"/>
			<point x="1087" y="298"/>
			<point x="1087" y="911" type="curve" smooth="yes"/>
			<point x="1087" y="1351"/>
			<point x="910" y="1620"/>
			<point x="610" y="1620" type="curve" smooth="yes"/>
			<point x="318" y="1620"/>
			<point x="90" y="1370"/>
			<point x="90" y="1045" type="curve" smooth="yes"/>
			<point x="90" y="749"/>
			<point x="291" y="566"/>
			<point x="526" y="566" type="curve" smooth="yes"/>
			<point x="706" y="566"/>
			<point x="876" y="702"/>
		</contour>
	</outline>
</glyph>
<glyph name="one.tf" format="2">
	<advance width="1200"/>
	<outline>
		<contour>
			<point x="487" y="82" type="line"/>
			<point x="739" y="82" type="line"/>
			<point x="828" y="1459" type="line" smooth="yes"/>
			<point x="829" y="1475"/>
			<point x="830" y="1493"/>
			<point x="830" y="1506" type="curve" smooth="yes"/>
			<point x="831" y="1564"/>
			<point x="793" y="1612"/>
			<point x="730" y="1612" type="curve" smooth="yes"/>
			<point x="702" y="1612"/>
			<point x="684" y="1602"/>
			<point x="636" y="1567" type="curve" smooth="yes"/>
			<point x="561" y="1512"/>
			<point x="391" y="1391"/>
			<point x="273" y="1316" type="curve" smooth="yes"/>
			<point x="209" y="1275"/>
			<point x="196" y="1254"/>
			<point x="196" y="1223" type="curve" smooth="yes"/>
			<point x="196" y="1150"/>
			<point x="260" y="1085"/>
			<point x="305" y="1085" type="curve" smooth="yes"/>
			<point x="330" y="1085"/>
			<point x="344" y="1091"/>
			<point x="380" y="1111" type="curve" smooth="yes"/>
			<point x="470" y="1163"/>
			<point x="559" y="1222"/>
			<point x="622" y="1266" type="curve"/>
			<point x="577" y="1292" type="line"/>
		</contour>
		<contour>
			<point x="238" y="0" type="curve" smooth="yes"/>
			<point x="994" y="0" type="line" smooth="yes"/>
			<point x="1059" y="0"/>
			<point x="1085" y="58"/>
			<point x="1085" y="132" type="curve" smooth="yes"/>
			<point x="1085" y="208"/>
			<point x="1059" y="240"/>
			<point x="1007" y="240" type="curve" smooth="yes"/>
			<point x="250" y="240" type="line" smooth="yes"/>
			<point x="185" y="240"/>
			<point x="165" y="180"/>
			<point x="165" y="105" type="curve" smooth="yes"/>
			<point x="165" y="35"/>
			<point x="187" y="0"/>
		</contour>
	</outline>
</glyph>
<glyph name="one.tosf" format="2">
	<advance width="1200"/>
	<outline>
		<contour>
			<point x="495" y="82" type="line"/>
			<point x="748" y="82" type="line"/>
			<point x="804" y="949" type="line" smooth="yes"/>
			<point x="805" y="965"/>
			<point x="806" y="983"/>
			<point x="806" y="996" type="curve" smooth="yes"/>
			<point x="807" y="1054"/>
			<point x="767" y="1099"/>
			<point x="704" y="1099" type="curve" smooth="yes"/>
			<point x="676" y="1099"/>
			<point x="660" y="1092"/>
			<point x="612" y="1057" type="curve" smooth="yes"/>
			<point x="537" y="1002"/>
			<point x="367" y="881"/>
			<point x="249" y="806" type="curve" smooth="yes"/>
			<point x="185" y="765"/>
			<point x="172" y="746"/>
			<point x="172" y="715" type="curve" smooth="yes"/>
			<point x="172" y="655"/>
			<point x="241" y="581"/>
			<point x="281" y="581" type="curve" smooth="yes"/>
			<point x="305" y="581"/>
			<point x="316" y="586"/>
			<point x="351" y="605" type="curve" smooth="yes"/>
			<point x="443" y="658"/>
			<point x="534" y="720"/>
			<point x="598" y="766" type="curve"/>
			<point x="555" y="782" type="line"/>
		</contour>
		<contour>
			<point x="248" y="0" type="curve" smooth="yes"/>
			<point x="1004" y="0" type="line" smooth="yes"/>
			<point x="1069" y="0"/>
			<point x="1095" y="58"/>
			<point x="1095" y="132" type="curve" smooth="yes"/>
			<point x="1095" y="208"/>
			<point x="1069" y="240"/>
			<point x="1017" y="240" type="curve" smooth="yes"/>
			<point x="260" y="240" type="line" smooth="yes"/>
			<point x="195" y="240"/>
			<point x="175" y="180"/>
			<point x="175" y="105" type="curve" smooth="yes"/>
			<point x="175" y="35"/>
			<point x="197" y="0"/>
		</contour>
	</outline>
</glyph>
<glyph name="q.ss02" format="2">
	<advance width="1097"/>
	<outline>
		<contour>
			<point x="831" y="691" type="curve"/>
			<point x="736" y="736" type="line"/>
			<point x="654" y="407"/>
			<point x="522" y="198"/>
			<point x="420" y="198" type="curve" smooth="yes"/>
			<point x="362" y="198"/>
			<point x="325" y="246"/>
			<point x="325" y="398" type="curve" smooth="yes"/>
			<point x="325" y="625"/>
			<point x="433" y="790"/>
			<point x="582" y="790" type="curve" smooth="yes"/>
			<point x="637" y="790"/>
			<point x="703" y="768"/>
			<point x="753" y="733" type="curve"/>
			<point x="796" y="770" type="line"/>
			<point x="720" y="929"/>
			<point x="644" y="1000"/>
			<point x="510" y="1000" type="curve" smooth="yes"/>
			<point x="284" y="1000"/>
			<point x="80" y="744"/>
			<point x="80" y="368" type="curve" smooth="yes"/>
			<point x="80" y="121"/>
			<point x="188" y="-12"/>
			<point x="335" y="-12" type="curve" smooth="yes"/>
			<point x="503" y="-12"/>
			<point x="672" y="165"/>
		</contour>
		<contour>
			<point x="746" y="890" type="curve" smooth="yes"/>
			<point x="651" y="-470" type="line" smooth="yes"/>
			<point x="647" y="-527"/>
			<point x="645" y="-556"/>
			<point x="645" y="-581" type="curve" smooth="yes"/>
			<point x="645" y="-648"/>
			<point x="677" y="-690"/>
			<point x="734" y="-690" type="curve" smooth="yes"/>
			<point x="763" y="-690"/>
			<point x="798" y="-684"/>
			<point x="863" y="-670" type="curve" smooth="yes"/>
			<point x="921" y="-658"/>
			<point x="942" y="-654"/>
			<point x="1014" y="-643" type="curve" smooth="yes"/>
			<point x="1086" y="-632"/>
			<point x="1108" y="-602"/>
			<point x="1108" y="-521" type="curve" smooth="yes"/>
			<point x="1108" y="-464"/>
			<point x="1077" y="-429"/>
			<point x="1024" y="-429" type="curve" smooth="yes"/>
			<point x="1001" y="-429"/>
			<point x="962" y="-435"/>
			<point x="895" y="-448" type="curve"/>
			<point x="986" y="844" type="line" smooth="yes"/>
			<point x="989" y="880"/>
			<point x="990" y="892"/>
			<point x="990" y="927" type="curve" smooth="yes"/>
			<point x="990" y="982"/>
			<point x="962" y="1000"/>
			<point x="875" y="1000" type="curve" smooth="yes"/>
			<point x="779" y="1000"/>
			<point x="753" y="987"/>
		</contour>
	</outline>
</glyph>
<glyph name="ringcomb.case" format="2">
	<outline>
		<contour>
			<point x="269" y="969" type="curve" smooth="yes"/>
			<point x="411" y="969"/>
			<point x="523" y="1079"/>
			<point x="523" y="1213" type="curve" smooth="yes"/>
			<point x="523" y="1334"/>
			<point x="431" y="1418"/>
			<point x="307" y="1418" type="curve" smooth="yes"/>
			<point x="164" y="1418"/>
			<point x="50" y="1308"/>
			<point x="50" y="1175" type="curve" smooth="yes"/>
			<point x="50" y="1053"/>
			<point x="146" y="969"/>
		</contour>
		<contour>
			<point x="277" y="1110" type="curve" smooth="yes"/>
			<point x="230" y="1110"/>
			<point x="200" y="1135"/>
			<point x="200" y="1183" type="curve" smooth="yes"/>
			<point x="200" y="1238"/>
			<point x="239" y="1277"/>
			<point x="297" y="1277" type="curve" smooth="yes"/>
			<point x="346" y="1277"/>
			<point x="373" y="1250"/>
			<point x="373" y="1204" type="curve" smooth="yes"/>
			<point x="373" y="1151"/>
			<point x="337" y="1110"/>
		</contour>
	</outline>
	<anchor name="_top" x="251" y="910"/>
	<anchor name="top" x="307" y="1418"/>
</glyph>
<glyph name="s_e_h_r_g_u_t_exclam" format="2">
	<advance width="5108"/>
	<outline>
		<contour>
			<point x="419" y="1075" type="curve" smooth="yes"/>
			<point x="634" y="1075"/>
			<point x="780" y="1191"/>
			<point x="780" y="1376" type="curve" smooth="yes"/>
			<point x="780" y="1506"/>
			<point x="699" y="1601"/>
			<point x="517" y="1689" type="curve" smooth="yes"/>
			<point x="378" y="1756"/>
			<point x="351" y="1780"/>
			<point x="351" y="1828" type="curve" smooth="yes"/>
			<point x="351" y="1873"/>
			<point x="407" y="1907"/>
			<point x="488" y="1907" type="curve" smooth="yes"/>
			<point x="554" y="1907"/>
			<point x="608" y="1892"/>
			<point x="650" y="1878" type="curve" smooth="yes"/>
			<point x="676" y="1869"/>
			<point x="692" y="1864"/>
			<point x="709" y="1864" type="curve" smooth="yes"/>
			<point x="747" y="1864"/>
			<point x="785" y="1921"/>
			<point x="785" y="1966" type="curve" smooth="yes"/>
			<point x="785" y="1997"/>
			<point x="775" y="2014"/>
			<point x="739" y="2033" type="curve" smooth="yes"/>
			<point x="669" y="2070"/>
			<point x="582" y="2087"/>
			<point x="492" y="2087" type="curve" smooth="yes"/>
			<point x="267" y="2087"/>
			<point x="121" y="1945"/>
			<point x="121" y="1797" type="curve" smooth="yes"/>
			<point x="121" y="1661"/>
			<point x="203" y="1576"/>
			<point x="382" y="1493" type="curve" smooth="yes"/>
			<point x="509" y="1434"/>
			<point x="550" y="1396"/>
			<point x="550" y="1341" type="curve" smooth="yes"/>
			<point x="550" y="1291"/>
			<point x="508" y="1255"/>
			<point x="422" y="1255" type="curve" smooth="yes"/>
			<point x="334" y="1255"/>
			<point x="247" y="1283"/>
			<point x="192" y="1308" type="curve" smooth="yes"/>
			<point x="163" y="1321"/>
			<point x="145" y="1329"/>
			<point x="125" y="1329" type="curve" smooth="yes"/>
			<point x="90" y="1329"/>
			<point x="50" y="1278"/>
			<point x="50" y="1222" type="curve" smooth="yes"/>
			<point x="50" y="1196"/>
			<point x="68" y="1170"/>
			<point x="135" y="1136" type="curve" smooth="yes"/>
			<point x="213" y="1096"/>
			<point x="309" y="1075"/>
		</contour>
		<contour>
			<point x="1305" y="1075" type="curve" smooth="yes"/>
			<point x="1438" y="1075"/>
			<point x="1562" y="1128"/>
			<point x="1637" y="1206" type="curve" smooth="yes"/>
			<point x="1671" y="1241"/>
			<point x="1686" y="1274"/>
			<point x="1686" y="1297" type="curve" smooth="yes"/>
			<point x="1686" y="1339"/>
			<point x="1638" y="1389"/>
			<point x="1598" y="1389" type="curve" smooth="yes"/>
			<point x="1586" y="1389"/>
			<point x="1570" y="1386"/>
			<point x="1534" y="1357" type="curve" smooth="yes"/>
			<point x="1469" y="1304"/>
			<point x="1401" y="1275"/>
			<point x="1317" y="1275" type="curve" smooth="yes"/>
			<point x="1190" y="1275"/>
			<point x="1128" y="1353"/>
			<point x="1128" y="1525" type="curve" smooth="yes"/>
			<point x="1128" y="1752"/>
			<point x="1232" y="1916"/>
			<point x="1352" y="1916" type="curve" smooth="yes"/>
			<point x="1416" y="1916"/>
			<point x="1449" y="1877"/>
			<point x="1449" y="1802" type="curve" smooth="yes"/>
			<point x="1449" y="1692"/>
			<point x="1338" y="1610"/>
			<point x="1060" y="1594" type="curve" smooth="yes"/>
			<point x="1013" y="1591"/>
			<point x="984" y="1572"/>
			<point x="984" y="1531" type="curve" smooth="yes"/>
			<point x="984" y="1484"/>
			<point x="1011" y="1448"/>
			<point x="1045" y="1449" type="curve" smooth="yes"/>
			<point x="1465" y="1465"/>
			<point x="1694" y="1610"/>
			<point x="1694" y="1832" type="curve" smooth="yes"/>
			<point x="1694" y="1982"/>
			<point x="1573" y="2086"/>
			<point x="1393" y="2086" type="curve" smooth="yes"/>
			<point x="1102" y="2086"/>
			<point x="883" y="1839"/>
			<point x="883" y="1514" type="curve" smooth="yes"/>
			<point x="883" y="1245"/>
			<point x="1046" y="1075"/>
		</contour>
		<contour>
			<point x="1926" y="1075" type="curve" smooth="yes"/>
			<point x="2007" y="1075"/>
			<point x="2048" y="1096"/>
			<point x="2051" y="1151" type="curve" smooth="yes"/>
			<point x="2053" y="1187"/>
			<point x="2054" y="1224"/>
			<point x="2055" y="1260" type="curve"/>
			<point x="2097" y="1565"/>
			<point x="2267" y="1857"/>
			<point x="2402" y="1857" type="curve" smooth="yes"/>
			<point x="2449" y="1857"/>
			<point x="2466" y="1831"/>
			<point x="2466" y="1767" type="curve" smooth="yes"/>
			<point x="2466" y="1738"/>
			<point x="2464" y="1709"/>
			<point x="2459" y="1655" type="curve" smooth="yes"/>
			<point x="2422" y="1243" type="line" smooth="yes"/>
			<point x="2419" y="1208"/>
			<point x="2417" y="1174"/>
			<point x="2417" y="1154" type="curve" smooth="yes"/>
			<point x="2417" y="1098"/>
			<point x="2445" y="1075"/>
			<point x="2532" y="1075" type="curve" smooth="yes"/>
			<point x="2615" y="1075"/>
			<point x="2653" y="1096"/>
			<point x="2657" y="1151" type="curve" smooth="yes"/>
			<point x="2697" y="1695" type="line" smooth="yes"/>
			<point x="2701" y="1743"/>
			<point x="2703" y="1785"/>
			<point x="2703" y="1846" type="curve" smooth="yes"/>
			<point x="2703" y="1994"/>
			<point x="2626" y="2087"/>
			<point x="2500" y="2087" type="curve" smooth="yes"/>
			<point x="2342" y="2087"/>
			<point x="2181" y="1948"/>
			<point x="2065" y="1638" type="curve"/>
			<point x="2075" y="1635" type="line"/>
			<point x="2149" y="2566" type="line" smooth="yes"/>
			<point x="2152" y="2604"/>
			<point x="2153" y="2624"/>
			<point x="2153" y="2639" type="curve" smooth="yes"/>
			<point x="2153" y="2694"/>
			<point x="2126" y="2712"/>
			<point x="2042" y="2712" type="curve" smooth="yes"/>
			<point x="1946" y="2712"/>
			<point x="1920" y="2699"/>
			<point x="1913" y="2602" type="curve" smooth="yes"/>
			<point x="1814" y="1243" type="line" smooth="yes"/>
			<point x="1811" y="1208"/>
			<point x="1811" y="1174"/>
			<point x="1811" y="1154" type="curve" smooth="yes"/>
			<point x="1811" y="1098"/>
			<point x="1839" y="1075"/>
		</contour>
		<contour>
			<point x="2943" y="1075" type="curve" smooth="yes"/>
			<point x="3026" y="1075"/>
			<point x="3065" y="1096"/>
			<point x="3068" y="1151" type="curve" smooth="yes"/>
			<point x="3073" y="1232" type="line"/>
			<point x="3126" y="1634"/>
			<point x="3247" y="1837"/>
			<point x="3338" y="1837" type="curve" smooth="yes"/>
			<point x="3371" y="1837"/>
			<point x="3385" y="1816"/>
			<point x="3390" y="1753" type="curve" smooth="yes"/>
			<point x="3393" y="1715"/>
			<point x="3410" y="1697"/>
			<point x="3459" y="1697" type="curve" smooth="yes"/>
			<point x="3563" y="1697"/>
			<point x="3607" y="1752"/>
			<point x="3607" y="1872" type="curve" smooth="yes"/>
			<point x="3607" y="1982"/>
			<point x="3545" y="2087"/>
			<point x="3425" y="2087" type="curve" smooth="yes"/>
			<point x="3295" y="2087"/>
			<point x="3186" y="1969"/>
			<point x="3069" y="1624" type="curve"/>
			<point x="3082" y="1624" type="line"/>
			<point x="3117" y="1908" type="line" smooth="yes"/>
			<point x="3125" y="1972"/>
			<point x="3128" y="1997"/>
			<point x="3128" y="2014" type="curve" smooth="yes"/>
			<point x="3128" y="2069"/>
			<point x="3100" y="2087"/>
			<point x="3013" y="2087" type="curve" smooth="yes"/>
			<point x="2917" y="2087"/>
			<point x="2891" y="2074"/>
			<point x="2884" y="1977" type="curve" smooth="yes"/>
			<point x="2833" y="1233" type="line" smooth="yes"/>
			<point x="2831" y="1208"/>
			<point x="2828" y="1174"/>
			<point x="2828" y="1154" type="curve" smooth="yes"/>
			<point x="2828" y="1098"/>
			<point x="2856" y="1075"/>
		</contour>
		<contour>
			<point x="2097" y="-695" type="curve" smooth="yes"/>
			<point x="2365" y="-695"/>
			<point x="2543" y="-525"/>
			<point x="2576" y="-40" type="curve" smooth="yes"/>
			<point x="2639" y="879" type="line" smooth="yes"/>
			<point x="2641" y="902"/>
			<point x="2641" y="917"/>
			<point x="2641" y="922" type="curve" smooth="yes"/>
			<point x="2641" y="977"/>
			<point x="2613" y="995"/>
			<point x="2526" y="995" type="curve" smooth="yes"/>
			<point x="2430" y="995"/>
			<point x="2403" y="982"/>
			<point x="2397" y="885" type="curve" smooth="yes"/>
			<point x="2339" y="2" type="line" smooth="yes"/>
			<point x="2313" y="-390"/>
			<point x="2215" y="-485"/>
			<point x="2084" y="-485" type="curve" smooth="yes"/>
			<point x="1990" y="-485"/>
			<point x="1908" y="-443"/>
			<point x="1834" y="-387" type="curve" smooth="yes"/>
			<point x="1813" y="-371"/>
			<point x="1800" y="-365"/>
			<point x="1788" y="-365" type="curve" smooth="yes"/>
			<point x="1734" y="-365"/>
			<point x="1679" y="-435"/>
			<point x="1679" y="-497" type="curve" smooth="yes"/>
			<point x="1679" y="-565"/>
			<point x="1872" y="-695"/>
		</contour>
		<contour>
			<point x="1984" y="-17" type="curve" smooth="yes"/>
			<point x="2164" y="-17"/>
			<point x="2323" y="160"/>
			<point x="2482" y="686" type="curve"/>
			<point x="2388" y="731" type="line"/>
			<point x="2305" y="402"/>
			<point x="2172" y="194"/>
			<point x="2072" y="194" type="curve" smooth="yes"/>
			<point x="2013" y="194"/>
			<point x="1976" y="241"/>
			<point x="1976" y="393" type="curve" smooth="yes"/>
			<point x="1976" y="620"/>
			<point x="2084" y="785"/>
			<point x="2233" y="785" type="curve" smooth="yes"/>
			<point x="2288" y="785"/>
			<point x="2354" y="763"/>
			<point x="2404" y="728" type="curve"/>
			<point x="2447" y="765" type="line"/>
			<point x="2371" y="924"/>
			<point x="2295" y="995"/>
			<point x="2161" y="995" type="curve" smooth="yes"/>
			<point x="1935" y="995"/>
			<point x="1731" y="739"/>
			<point x="1731" y="363" type="curve" smooth="yes"/>
			<point x="1731" y="124"/>
			<point x="1830" y="-17"/>
		</contour>
		<contour>
			<point x="3008" y="-16" type="curve" smooth="yes"/>
			<point x="3163" y="-16"/>
			<point x="3292" y="113"/>
			<point x="3355" y="331" type="curve"/>
			<point x="3349" y="337" type="line"/>
			<point x="3329" y="127" type="line" smooth="yes"/>
			<point x="3328" y="107"/>
			<point x="3326" y="83"/>
			<point x="3326" y="63" type="curve" smooth="yes"/>
			<point x="3326" y="7"/>
			<point x="3354" y="-16"/>
			<point x="3441" y="-16" type="curve" smooth="yes"/>
			<point x="3524" y="-16"/>
			<point x="3562" y="5"/>
			<point x="3566" y="60" type="curve" smooth="yes"/>
			<point x="3622" y="860" type="line" smooth="yes"/>
			<point x="3624" y="886"/>
			<point x="3626" y="917"/>
			<point x="3626" y="933" type="curve" smooth="yes"/>
			<point x="3626" y="980"/>
			<point x="3602" y="996"/>
			<point x="3510" y="996" type="curve" smooth="yes"/>
			<point x="3419" y="996"/>
			<point x="3387" y="984"/>
			<point x="3382" y="896" type="curve" smooth="yes"/>
			<point x="3379" y="848" type="line"/>
			<point x="3316" y="365"/>
			<point x="3197" y="194"/>
			<point x="3100" y="194" type="curve" smooth="yes"/>
			<point x="3035" y="194"/>
			<point x="3005" y="224"/>
			<point x="3005" y="303" type="curve" smooth="yes"/>
			<point x="3005" y="330"/>
			<point x="3008" y="379"/>
			<point x="3013" y="438" type="curve" smooth="yes"/>
			<point x="3046" y="860" type="line" smooth="yes"/>
			<point x="3049" y="898"/>
			<point x="3051" y="918"/>
			<point x="3051" y="933" type="curve" smooth="yes"/>
			<point x="3051" y="980"/>
			<point x="3023" y="996"/>
			<point x="2936" y="996" type="curve" smooth="yes"/>
			<point x="2840" y="996"/>
			<point x="2813" y="984"/>
			<point x="2807" y="896" type="curve" smooth="yes"/>
			<point x="2772" y="396" type="line" smooth="yes"/>
			<point x="2768" y="346"/>
			<point x="2765" y="304"/>
			<point x="2765" y="259" type="curve" smooth="yes"/>
			<point x="2765" y="88"/>
			<point x="2863" y="-16"/>
		</contour>
		<contour>
			<point x="4111" y="-14" type="curve" smooth="yes"/>
			<point x="4218" y="-14"/>
			<point x="4308" y="27"/>
			<point x="4379" y="109" type="curve" smooth="yes"/>
			<point x="4409" y="143"/>
			<point x="4418" y="164"/>
			<point x="4418" y="182" type="curve" smooth="yes"/>
			<point x="4418" y="218"/>
			<point x="4359" y="274"/>
			<point x="4318" y="274" type="curve" smooth="yes"/>
			<point x="4307" y="274"/>
			<point x="4297" y="269"/>
			<point x="4275" y="252" type="curve" smooth="yes"/>
			<point x="4230" y="217"/>
			<point x="4194" y="196"/>
			<point x="4158" y="196" type="curve" smooth="yes"/>
			<point x="4118" y="196"/>
			<point x="4096" y="214"/>
			<point x="4096" y="278" type="curve" smooth="yes"/>
			<point x="4096" y="309"/>
			<point x="4098" y="347"/>
			<point x="4102" y="388" type="curve" smooth="yes"/>
			<point x="4164" y="1197" type="line" smooth="yes"/>
			<point x="4165" y="1212"/>
			<point x="4165" y="1213"/>
			<point x="4165" y="1220" type="curve" smooth="yes"/>
			<point x="4165" y="1270"/>
			<point x="4128" y="1282"/>
			<point x="4047" y="1282" type="curve" smooth="yes"/>
			<point x="3985" y="1282"/>
			<point x="3922" y="1272"/>
			<point x="3917" y="1208" type="curve" smooth="yes"/>
			<point x="3859" y="406" type="line" smooth="yes"/>
			<point x="3854" y="332"/>
			<point x="3851" y="300"/>
			<point x="3851" y="258" type="curve" smooth="yes"/>
			<point x="3851" y="87"/>
			<point x="3954" y="-14"/>
		</contour>
		<contour>
			<point x="3771" y="793" type="curve" smooth="yes"/>
			<point x="4330" y="793" type="line" smooth="yes"/>
			<point x="4374" y="793"/>
			<point x="4406" y="826"/>
			<point x="4406" y="914" type="curve" smooth="yes"/>
			<point x="4406" y="961"/>
			<point x="4387" y="983"/>
			<point x="4350" y="983" type="curve" smooth="yes"/>
			<point x="3791" y="983" type="line" smooth="yes"/>
			<point x="3745" y="983"/>
			<point x="3712" y="952"/>
			<point x="3712" y="869" type="curve" smooth="yes"/>
			<point x="3712" y="817"/>
			<point x="3733" y="793"/>
		</contour>
		<contour>
			<point x="4827" y="830" type="curve" smooth="yes"/>
			<point x="4914" y="830"/>
			<point x="4944" y="850"/>
			<point x="4950" y="919" type="curve" smooth="yes"/>
			<point x="5062" y="2503" type="line" smooth="yes"/>
			<point x="5065" y="2552"/>
			<point x="5066" y="2567"/>
			<point x="5066" y="2585" type="curve" smooth="yes"/>
			<point x="5066" y="2634"/>
			<point x="5031" y="2651"/>
			<point x="4951" y="2651" type="curve" smooth="yes"/>
			<point x="4892" y="2651"/>
			<point x="4844" y="2642"/>
			<point x="4838" y="2566" type="curve" smooth="yes"/>
			<point x="4728" y="970" type="line" smooth="yes"/>
			<point x="4726" y="942"/>
			<point x="4725" y="929"/>
			<point x="4725" y="903" type="curve" smooth="yes"/>
			<point x="4725" y="871"/>
			<point x="4736" y="830"/>
		</contour>
		<contour>
			<point x="4810" y="297" type="curve" smooth="yes"/>
			<point x="4900" y="297"/>
			<point x="4980" y="371"/>
			<point x="4980" y="470" type="curve" smooth="yes"/>
			<point x="4980" y="565"/>
			<point x="4923" y="627"/>
			<point x="4834" y="627" type="curve" smooth="yes"/>
			<point x="4744" y="627"/>
			<point x="4665" y="553"/>
			<point x="4665" y="453" type="curve" smooth="yes"/>
			<point x="4665" y="359"/>
			<point x="4721" y="297"/>
		</contour>
	</outline>
	<guideline x="2727" y="346" angle="0"/>
</glyph>
<glyph name="slashcomb.case" format="2">
	<advance width="863"/>
	<outline>
		<contour>
			<point x="145" y="514" type="curve" smooth="yes"/>
			<point x="166" y="514"/>
			<point x="185" y="522"/>
			<point x="215" y="543" type="curve" smooth="yes"/>
			<point x="764" y="931" type="line" smooth="yes"/>
			<point x="795" y="953"/>
			<point x="813" y="972"/>
			<point x="813" y="1004" type="curve" smooth="yes"/>
			<point x="813" y="1044"/>
			<point x="770" y="1121"/>
			<point x="710" y="1121" type="curve" smooth="yes"/>
			<point x="695" y="1121"/>
			<point x="677" y="1116"/>
			<point x="649" y="1096" type="curve" smooth="yes"/>
			<point x="91" y="702" type="line" smooth="yes"/>
			<point x="68" y="686"/>
			<point x="50" y="661"/>
			<point x="50" y="638" type="curve" smooth="yes"/>
			<point x="50" y="575"/>
			<point x="105" y="514"/>
		</contour>
	</outline>
	<anchor name="_center" x="400" y="823"/>
</glyph>
<glyph name="two.osf" format="2">
	<advance width="1184"/>
	<outline>
		<contour>
			<point x="249" y="0" type="curve" smooth="yes"/>
			<point x="995" y="0" type="line" smooth="yes"/>
			<point x="1075" y="0"/>
			<point x="1104" y="62"/>
			<point x="1104" y="139" type="curve" smooth="yes"/>
			<point x="1104" y="231"/>
			<point x="1062" y="245"/>
			<point x="935" y="245" type="curve" smooth="yes"/>
			<point x="796" y="245"/>
			<point x="402" y="228"/>
			<point x="225" y="210" type="curve"/>
			<point x="189" y="160" type="line"/>
			<point x="854" y="388"/>
			<point x="1040" y="543"/>
			<point x="1040" y="779" type="curve" smooth="yes"/>
			<point x="1040" y="980"/>
			<point x="870" y="1096"/>
			<point x="664" y="1096" type="curve" smooth="yes"/>
			<point x="490" y="1096"/>
			<point x="335" y="1040"/>
			<point x="229" y="962" type="curve" smooth="yes"/>
			<point x="170" y="919"/>
			<point x="159" y="891"/>
			<point x="159" y="865" type="curve" smooth="yes"/>
			<point x="159" y="815"/>
			<point x="212" y="744"/>
			<point x="261" y="744" type="curve" smooth="yes"/>
			<point x="290" y="744"/>
			<point x="315" y="757"/>
			<point x="351" y="777" type="curve" smooth="yes"/>
			<point x="455" y="835"/>
			<point x="542" y="861"/>
			<point x="638" y="861" type="curve" smooth="yes"/>
			<point x="736" y="861"/>
			<point x="795" y="821"/>
			<point x="795" y="741" type="curve" smooth="yes"/>
			<point x="795" y="623"/>
			<point x="675" y="553"/>
			<point x="261" y="361" type="curve" smooth="yes"/>
			<point x="158" y="313"/>
			<point x="110" y="267"/>
			<point x="110" y="180" type="curve" smooth="yes"/>
			<point x="110" y="76"/>
			<point x="160" y="0"/>
		</contour>
	</outline>
</glyph>
